<?xml version="1.0" encoding="UTF-8" standalone="no"?>
<!DOCTYPE svg PUBLIC "-//W3C//DTD SVG 1.1//EN"
 "http://www.w3.org/Graphics/SVG/1.1/DTD/svg11.dtd">
<!-- Generated by graphviz version 7.0.1 (20221109.1506)
 -->
<!-- Title: classes Pages: 1 -->
<svg width="3429pt" height="938pt"
 viewBox="0.00 0.00 3428.50 938.00" xmlns="http://www.w3.org/2000/svg" xmlns:xlink="http://www.w3.org/1999/xlink">
<g id="graph0" class="graph" transform="scale(1 1) rotate(0) translate(4 934)">
<title>classes</title>
<polygon fill="white" stroke="none" points="-4,4 -4,-934 3424.5,-934 3424.5,4 -4,4"/>
<!-- histdatacom.APICaller -->
<g id="node1" class="node">
<title>histdatacom.APICaller</title>
<polygon fill="none" stroke="black" points="498,-157.5 498,-227.5 569,-227.5 569,-157.5 498,-157.5"/>
<text text-anchor="middle" x="533.5" y="-212.3" font-family="Times,serif" font-size="14.00">APICaller</text>
<polyline fill="none" stroke="black" points="498,-204.5 569,-204.5"/>
<polyline fill="none" stroke="black" points="498,-180.5 569,-180.5"/>
<text text-anchor="middle" x="533.5" y="-165.3" font-family="Times,serif" font-size="14.00"> </text>
</g>
<!-- histdatacom.api.Api -->
<g id="node2" class="node">
<title>histdatacom.api.Api</title>
<polygon fill="none" stroke="black" points="0,-443 0,-627 323,-627 323,-443 0,-443"/>
<text text-anchor="middle" x="161.5" y="-611.8" font-family="Times,serif" font-size="14.00">Api</text>
<polyline fill="none" stroke="black" points="0,-604 323,-604"/>
<polyline fill="none" stroke="black" points="0,-580 323,-580"/>
<text text-anchor="start" x="8" y="-564.8" font-family="Times,serif" font-size="14.00">import_jay_data(jay_path: str): &#39;Frame&#39;</text>
<text text-anchor="middle" x="161.5" y="-549.8" font-family="Times,serif" font-size="14.00">merge_jays(): list</text>
<polyline fill="none" stroke="black" points="0,-542 323,-542"/>
<text text-anchor="middle" x="161.5" y="-526.8" font-family="Times,serif" font-size="14.00">Frame</text>
<polyline fill="none" stroke="black" points="0,-519 323,-519"/>
<text text-anchor="middle" x="161.5" y="-503.8" font-family="Times,serif" font-size="14.00">DataFrame</text>
<polyline fill="none" stroke="black" points="0,-496 323,-496"/>
<text text-anchor="start" x="8" y="-480.8" font-family="Times,serif" font-size="14.00">Table</text>
<text text-anchor="start" x="8" y="-465.8" font-family="Times,serif" font-size="14.00">test_for_jay_or_create(record: Record, args: dict): None</text>
<text text-anchor="start" x="8" y="-450.8" font-family="Times,serif" font-size="14.00">validate_jays(): None</text>
</g>
<!-- histdatacom.histdata_com._HistDataCom -->
<g id="node21" class="node">
<title>histdatacom.histdata_com._HistDataCom</title>
<polygon fill="none" stroke="black" points="503.5,-685.5 503.5,-929.5 601.5,-929.5 601.5,-685.5 503.5,-685.5"/>
<text text-anchor="middle" x="552.5" y="-914.3" font-family="Times,serif" font-size="14.00">_HistDataCom</text>
<polyline fill="none" stroke="black" points="503.5,-906.5 601.5,-906.5"/>
<text text-anchor="start" x="511.5" y="-891.3" font-family="Times,serif" font-size="14.00">api</text>
<text text-anchor="start" x="511.5" y="-876.3" font-family="Times,serif" font-size="14.00">csvs</text>
<text text-anchor="start" x="511.5" y="-861.3" font-family="Times,serif" font-size="14.00">influx</text>
<text text-anchor="start" x="511.5" y="-846.3" font-family="Times,serif" font-size="14.00">repo</text>
<text text-anchor="start" x="511.5" y="-831.3" font-family="Times,serif" font-size="14.00">scraper</text>
<polyline fill="none" stroke="black" points="503.5,-823.5 601.5,-823.5"/>
<text text-anchor="middle" x="552.5" y="-808.3" font-family="Times,serif" font-size="14.00">run(): list</text>
<polyline fill="none" stroke="black" points="503.5,-800.5 601.5,-800.5"/>
<text text-anchor="middle" x="552.5" y="-785.3" font-family="Times,serif" font-size="14.00">dict</text>
<polyline fill="none" stroke="black" points="503.5,-777.5 601.5,-777.5"/>
<text text-anchor="middle" x="552.5" y="-762.3" font-family="Times,serif" font-size="14.00">Frame</text>
<polyline fill="none" stroke="black" points="503.5,-754.5 601.5,-754.5"/>
<text text-anchor="middle" x="552.5" y="-739.3" font-family="Times,serif" font-size="14.00">DataFrame</text>
<polyline fill="none" stroke="black" points="503.5,-731.5 601.5,-731.5"/>
<text text-anchor="middle" x="552.5" y="-716.3" font-family="Times,serif" font-size="14.00">Table</text>
<polyline fill="none" stroke="black" points="503.5,-708.5 601.5,-708.5"/>
<text text-anchor="start" x="511.5" y="-693.3" font-family="Times,serif" font-size="14.00">None</text>
</g>
<!-- histdatacom.api.Api&#45;&gt;histdatacom.histdata_com._HistDataCom -->
<g id="edge1" class="edge">
<title>histdatacom.api.Api&#45;&gt;histdatacom.histdata_com._HistDataCom</title>
<path fill="none" stroke="black" d="M292.79,-626.83C360.66,-673.78 440.14,-728.77 493.13,-765.43"/>
<polygon fill="black" stroke="black" points="493.08,-765.4 500.29,-765.52 502.95,-772.22 495.74,-772.1 493.08,-765.4"/>
<text text-anchor="middle" x="354" y="-655.8" font-family="Times,serif" font-size="14.00" fill="green">api</text>
</g>
<!-- histdatacom.cli.ArgParser -->
<g id="node3" class="node">
<title>histdatacom.cli.ArgParser</title>
<polygon fill="none" stroke="black" points="1382,-500.5 1382,-569.5 1565,-569.5 1565,-500.5 1382,-500.5"/>
<text text-anchor="middle" x="1473.5" y="-554.3" font-family="Times,serif" font-size="14.00">ArgParser</text>
<polyline fill="none" stroke="black" points="1382,-546.5 1565,-546.5"/>
<text text-anchor="start" x="1390" y="-531.3" font-family="Times,serif" font-size="14.00">arg_namespace</text>
<polyline fill="none" stroke="black" points="1382,-523.5 1565,-523.5"/>
<text text-anchor="start" x="1390" y="-508.3" font-family="Times,serif" font-size="14.00">arg_list_to_set(args: dict): dict</text>
</g>
<!-- histdatacom.csvs.Csv -->
<g id="node4" class="node">
<title>histdatacom.csvs.Csv</title>
<polygon fill="none" stroke="black" points="341,-500 341,-570 470,-570 470,-500 341,-500"/>
<text text-anchor="middle" x="405.5" y="-554.8" font-family="Times,serif" font-size="14.00">Csv</text>
<polyline fill="none" stroke="black" points="341,-547 470,-547"/>
<polyline fill="none" stroke="black" points="341,-523 470,-523"/>
<text text-anchor="start" x="349" y="-507.8" font-family="Times,serif" font-size="14.00">extract_csvs(): None</text>
</g>
<!-- histdatacom.csvs.Csv&#45;&gt;histdatacom.histdata_com._HistDataCom -->
<g id="edge2" class="edge">
<title>histdatacom.csvs.Csv&#45;&gt;histdatacom.histdata_com._HistDataCom</title>
<path fill="none" stroke="black" d="M423.97,-569.99C442.35,-603.81 471.48,-657.41 497.36,-705.04"/>
<polygon fill="black" stroke="black" points="497.36,-705.03 503.74,-708.39 503.09,-715.57 496.71,-712.21 497.36,-705.03"/>
<text text-anchor="middle" x="487.5" y="-655.8" font-family="Times,serif" font-size="14.00" fill="green">csvs</text>
</g>
<!-- histdatacom.fx_enums.Format -->
<g id="node5" class="node">
<title>histdatacom.fx_enums.Format</title>
<polygon fill="none" stroke="black" points="1698.5,-150.5 1698.5,-234.5 1804.5,-234.5 1804.5,-150.5 1698.5,-150.5"/>
<text text-anchor="middle" x="1751.5" y="-219.3" font-family="Times,serif" font-size="14.00">Format</text>
<polyline fill="none" stroke="black" points="1698.5,-211.5 1804.5,-211.5"/>
<text text-anchor="start" x="1706.5" y="-196.3" font-family="Times,serif" font-size="14.00">name</text>
<polyline fill="none" stroke="black" points="1698.5,-188.5 1804.5,-188.5"/>
<text text-anchor="start" x="1706.5" y="-173.3" font-family="Times,serif" font-size="14.00">list_keys(): set</text>
<text text-anchor="start" x="1706.5" y="-158.3" font-family="Times,serif" font-size="14.00">list_values(): set</text>
</g>
<!-- histdatacom.influx.Influx -->
<g id="node6" class="node">
<title>histdatacom.influx.Influx</title>
<polygon fill="none" stroke="black" points="488.5,-500 488.5,-570 616.5,-570 616.5,-500 488.5,-500"/>
<text text-anchor="middle" x="552.5" y="-554.8" font-family="Times,serif" font-size="14.00">Influx</text>
<polyline fill="none" stroke="black" points="488.5,-547 616.5,-547"/>
<polyline fill="none" stroke="black" points="488.5,-523 616.5,-523"/>
<text text-anchor="start" x="496.5" y="-507.8" font-family="Times,serif" font-size="14.00">import_data(): None</text>
</g>
<!-- histdatacom.influx.Influx&#45;&gt;histdatacom.histdata_com._HistDataCom -->
<g id="edge3" class="edge">
<title>histdatacom.influx.Influx&#45;&gt;histdatacom.histdata_com._HistDataCom</title>
<path fill="none" stroke="black" d="M552.5,-569.99C552.5,-596.31 552.5,-634.61 552.5,-672.76"/>
<polygon fill="black" stroke="black" points="552.5,-672.77 556.5,-678.77 552.5,-684.77 548.5,-678.77 552.5,-672.77"/>
<text text-anchor="middle" x="569" y="-655.8" font-family="Times,serif" font-size="14.00" fill="green">influx</text>
</g>
<!-- histdatacom.influx.InfluxDBWriter -->
<g id="node7" class="node">
<title>histdatacom.influx.InfluxDBWriter</title>
<polygon fill="none" stroke="black" points="1822.5,-135.5 1822.5,-249.5 2058.5,-249.5 2058.5,-135.5 1822.5,-135.5"/>
<text text-anchor="middle" x="1940.5" y="-234.3" font-family="Times,serif" font-size="14.00">InfluxDBWriter</text>
<polyline fill="none" stroke="black" points="1822.5,-226.5 2058.5,-226.5"/>
<text text-anchor="start" x="1830.5" y="-211.3" font-family="Times,serif" font-size="14.00">args : dict</text>
<text text-anchor="start" x="1830.5" y="-196.3" font-family="Times,serif" font-size="14.00">client : InfluxDBClient</text>
<text text-anchor="start" x="1830.5" y="-181.3" font-family="Times,serif" font-size="14.00">influx_chunks_queue : Optional[Queue]</text>
<text text-anchor="start" x="1830.5" y="-166.3" font-family="Times,serif" font-size="14.00">write_api : WriteApi</text>
<polyline fill="none" stroke="black" points="1822.5,-158.5 2058.5,-158.5"/>
<text text-anchor="start" x="1830.5" y="-143.3" font-family="Times,serif" font-size="14.00">run(): None</text>
</g>
<!-- histdatacom.options.Options -->
<g id="node8" class="node">
<title>histdatacom.options.Options</title>
<polygon fill="none" stroke="black" points="1426.5,-23 1426.5,-362 1680.5,-362 1680.5,-23 1426.5,-23"/>
<text text-anchor="middle" x="1553.5" y="-346.8" font-family="Times,serif" font-size="14.00">Options</text>
<polyline fill="none" stroke="black" points="1426.5,-339 1680.5,-339"/>
<text text-anchor="start" x="1434.5" y="-323.8" font-family="Times,serif" font-size="14.00">api_return_type : str</text>
<text text-anchor="start" x="1434.5" y="-308.8" font-family="Times,serif" font-size="14.00">available_remote_data : bool</text>
<text text-anchor="start" x="1434.5" y="-293.8" font-family="Times,serif" font-size="14.00">batch_size : str</text>
<text text-anchor="start" x="1434.5" y="-278.8" font-family="Times,serif" font-size="14.00">by : str</text>
<text text-anchor="start" x="1434.5" y="-263.8" font-family="Times,serif" font-size="14.00">cpu_utilization : str</text>
<text text-anchor="start" x="1434.5" y="-248.8" font-family="Times,serif" font-size="14.00">data_directory : str</text>
<text text-anchor="start" x="1434.5" y="-233.8" font-family="Times,serif" font-size="14.00">delete_after_influx : bool</text>
<text text-anchor="start" x="1434.5" y="-218.8" font-family="Times,serif" font-size="14.00">download_data_archives : bool</text>
<text text-anchor="start" x="1434.5" y="-203.8" font-family="Times,serif" font-size="14.00">end_yearmonth : NoneType, str | None, str</text>
<text text-anchor="start" x="1434.5" y="-188.8" font-family="Times,serif" font-size="14.00">extract_csvs : bool</text>
<text text-anchor="start" x="1434.5" y="-173.8" font-family="Times,serif" font-size="14.00">formats : set</text>
<text text-anchor="start" x="1434.5" y="-158.8" font-family="Times,serif" font-size="14.00">from_api : bool</text>
<text text-anchor="start" x="1434.5" y="-143.8" font-family="Times,serif" font-size="14.00">import_to_influxdb : bool</text>
<text text-anchor="start" x="1434.5" y="-128.8" font-family="Times,serif" font-size="14.00">pairs : set</text>
<text text-anchor="start" x="1434.5" y="-113.8" font-family="Times,serif" font-size="14.00">start_yearmonth : str, NoneType, str | None</text>
<text text-anchor="start" x="1434.5" y="-98.8" font-family="Times,serif" font-size="14.00">timeframes : set</text>
<text text-anchor="start" x="1434.5" y="-83.8" font-family="Times,serif" font-size="14.00">update_remote_data : bool</text>
<text text-anchor="start" x="1434.5" y="-68.8" font-family="Times,serif" font-size="14.00">validate_urls : bool</text>
<text text-anchor="start" x="1434.5" y="-53.8" font-family="Times,serif" font-size="14.00">zip_persist : bool</text>
<polyline fill="none" stroke="black" points="1426.5,-46 1680.5,-46"/>
<text text-anchor="middle" x="1553.5" y="-30.8" font-family="Times,serif" font-size="14.00"> </text>
</g>
<!-- histdatacom.options.Options&#45;&gt;histdatacom.cli.ArgParser -->
<g id="edge4" class="edge">
<title>histdatacom.options.Options&#45;&gt;histdatacom.cli.ArgParser</title>
<path fill="none" stroke="black" d="M1513.97,-361.75C1503.02,-408.35 1492.03,-455.14 1484.27,-488.17"/>
<polygon fill="black" stroke="black" points="1484.31,-488 1486.83,-494.76 1481.56,-499.69 1479.04,-492.93 1484.31,-488"/>
<text text-anchor="middle" x="1547" y="-406.8" font-family="Times,serif" font-size="14.00" fill="green">arg_namespace</text>
</g>
<!-- histdatacom.concurrency.QueueManager -->
<g id="node11" class="node">
<title>histdatacom.concurrency.QueueManager</title>
<polygon fill="none" stroke="black" points="1583,-500.5 1583,-569.5 1684,-569.5 1684,-500.5 1583,-500.5"/>
<text text-anchor="middle" x="1633.5" y="-554.3" font-family="Times,serif" font-size="14.00">QueueManager</text>
<polyline fill="none" stroke="black" points="1583,-546.5 1684,-546.5"/>
<text text-anchor="start" x="1591" y="-531.3" font-family="Times,serif" font-size="14.00">options</text>
<polyline fill="none" stroke="black" points="1583,-523.5 1684,-523.5"/>
<text text-anchor="middle" x="1633.5" y="-508.3" font-family="Times,serif" font-size="14.00"> </text>
</g>
<!-- histdatacom.options.Options&#45;&gt;histdatacom.concurrency.QueueManager -->
<g id="edge5" class="edge">
<title>histdatacom.options.Options&#45;&gt;histdatacom.concurrency.QueueManager</title>
<path fill="none" stroke="black" d="M1593.03,-361.75C1603.98,-408.35 1614.97,-455.14 1622.73,-488.17"/>
<polygon fill="black" stroke="black" points="1622.69,-488 1627.96,-492.93 1625.44,-499.69 1620.17,-494.76 1622.69,-488"/>
<text text-anchor="middle" x="1625.5" y="-406.8" font-family="Times,serif" font-size="14.00" fill="green">options</text>
</g>
<!-- histdatacom.fx_enums.Pairs -->
<g id="node9" class="node">
<title>histdatacom.fx_enums.Pairs</title>
<polygon fill="none" stroke="black" points="2076.5,-150.5 2076.5,-234.5 2182.5,-234.5 2182.5,-150.5 2076.5,-150.5"/>
<text text-anchor="middle" x="2129.5" y="-219.3" font-family="Times,serif" font-size="14.00">Pairs</text>
<polyline fill="none" stroke="black" points="2076.5,-211.5 2182.5,-211.5"/>
<text text-anchor="start" x="2084.5" y="-196.3" font-family="Times,serif" font-size="14.00">name</text>
<polyline fill="none" stroke="black" points="2076.5,-188.5 2182.5,-188.5"/>
<text text-anchor="start" x="2084.5" y="-173.3" font-family="Times,serif" font-size="14.00">list_keys(): set</text>
<text text-anchor="start" x="2084.5" y="-158.3" font-family="Times,serif" font-size="14.00">list_values(): set</text>
</g>
<!-- histdatacom.concurrency.ProcessPool -->
<g id="node10" class="node">
<title>histdatacom.concurrency.ProcessPool</title>
<polygon fill="none" stroke="black" points="2201,-113 2201,-272 2344,-272 2344,-113 2201,-113"/>
<text text-anchor="middle" x="2272.5" y="-256.8" font-family="Times,serif" font-size="14.00">ProcessPool</text>
<polyline fill="none" stroke="black" points="2201,-249 2344,-249"/>
<text text-anchor="start" x="2209" y="-233.8" font-family="Times,serif" font-size="14.00">args : dict</text>
<text text-anchor="start" x="2209" y="-218.8" font-family="Times,serif" font-size="14.00">cpu_count : int</text>
<text text-anchor="start" x="2209" y="-203.8" font-family="Times,serif" font-size="14.00">dump : bool</text>
<text text-anchor="start" x="2209" y="-188.8" font-family="Times,serif" font-size="14.00">exec_func : Callable</text>
<text text-anchor="start" x="2209" y="-173.8" font-family="Times,serif" font-size="14.00">join : bool</text>
<text text-anchor="start" x="2209" y="-158.8" font-family="Times,serif" font-size="14.00">progress_post_text : str</text>
<text text-anchor="start" x="2209" y="-143.8" font-family="Times,serif" font-size="14.00">progress_pre_text : str</text>
<polyline fill="none" stroke="black" points="2201,-136 2344,-136"/>
<text text-anchor="middle" x="2272.5" y="-120.8" font-family="Times,serif" font-size="14.00"> </text>
</g>
<!-- histdatacom.records.Record -->
<g id="node12" class="node">
<title>histdatacom.records.Record</title>
<polygon fill="none" stroke="black" points="2362.5,-0.5 2362.5,-384.5 2602.5,-384.5 2602.5,-0.5 2362.5,-0.5"/>
<text text-anchor="middle" x="2482.5" y="-369.3" font-family="Times,serif" font-size="14.00">Record</text>
<polyline fill="none" stroke="black" points="2362.5,-361.5 2602.5,-361.5"/>
<text text-anchor="start" x="2370.5" y="-346.3" font-family="Times,serif" font-size="14.00">bytes_length</text>
<text text-anchor="start" x="2370.5" y="-331.3" font-family="Times,serif" font-size="14.00">csv_filename</text>
<text text-anchor="start" x="2370.5" y="-316.3" font-family="Times,serif" font-size="14.00">data_date</text>
<text text-anchor="start" x="2370.5" y="-301.3" font-family="Times,serif" font-size="14.00">data_datemonth</text>
<text text-anchor="start" x="2370.5" y="-286.3" font-family="Times,serif" font-size="14.00">data_dir</text>
<text text-anchor="start" x="2370.5" y="-271.3" font-family="Times,serif" font-size="14.00">data_format</text>
<text text-anchor="start" x="2370.5" y="-256.3" font-family="Times,serif" font-size="14.00">data_fxpair</text>
<text text-anchor="start" x="2370.5" y="-241.3" font-family="Times,serif" font-size="14.00">data_month</text>
<text text-anchor="start" x="2370.5" y="-226.3" font-family="Times,serif" font-size="14.00">data_timeframe</text>
<text text-anchor="start" x="2370.5" y="-211.3" font-family="Times,serif" font-size="14.00">data_tk</text>
<text text-anchor="start" x="2370.5" y="-196.3" font-family="Times,serif" font-size="14.00">data_year</text>
<text text-anchor="start" x="2370.5" y="-181.3" font-family="Times,serif" font-size="14.00">encoding</text>
<text text-anchor="start" x="2370.5" y="-166.3" font-family="Times,serif" font-size="14.00">jay_end</text>
<text text-anchor="start" x="2370.5" y="-151.3" font-family="Times,serif" font-size="14.00">jay_filename</text>
<text text-anchor="start" x="2370.5" y="-136.3" font-family="Times,serif" font-size="14.00">jay_line_count</text>
<text text-anchor="start" x="2370.5" y="-121.3" font-family="Times,serif" font-size="14.00">jay_start</text>
<text text-anchor="start" x="2370.5" y="-106.3" font-family="Times,serif" font-size="14.00">status</text>
<text text-anchor="start" x="2370.5" y="-91.3" font-family="Times,serif" font-size="14.00">url</text>
<text text-anchor="start" x="2370.5" y="-76.3" font-family="Times,serif" font-size="14.00">zip_filename</text>
<text text-anchor="start" x="2370.5" y="-61.3" font-family="Times,serif" font-size="14.00">zip_persist</text>
<polyline fill="none" stroke="black" points="2362.5,-53.5 2602.5,-53.5"/>
<text text-anchor="start" x="2370.5" y="-38.3" font-family="Times,serif" font-size="14.00">delete_momento_file(): None</text>
<text text-anchor="start" x="2370.5" y="-23.3" font-family="Times,serif" font-size="14.00">restore_momento(base_dir: str): bool</text>
<text text-anchor="start" x="2370.5" y="-8.3" font-family="Times,serif" font-size="14.00">write_memento_file(base_dir: str): None</text>
</g>
<!-- histdatacom.records.Records -->
<g id="node13" class="node">
<title>histdatacom.records.Records</title>
<polygon fill="none" stroke="black" points="2620.5,-146 2620.5,-239 2886.5,-239 2886.5,-146 2620.5,-146"/>
<text text-anchor="middle" x="2753.5" y="-223.8" font-family="Times,serif" font-size="14.00">Records</text>
<polyline fill="none" stroke="black" points="2620.5,-216 2886.5,-216"/>
<polyline fill="none" stroke="black" points="2620.5,-192 2886.5,-192"/>
<text text-anchor="middle" x="2753.5" y="-176.8" font-family="Times,serif" font-size="14.00">dump_to_queue(dst_queue: Queue, count: int</text>
<polyline fill="none" stroke="black" points="2620.5,-169 2886.5,-169"/>
<text text-anchor="start" x="2628.5" y="-153.8" font-family="Times,serif" font-size="14.00">None): None</text>
</g>
<!-- histdatacom.scraper.repo.Repo -->
<g id="node14" class="node">
<title>histdatacom.scraper.repo.Repo</title>
<polygon fill="none" stroke="black" points="635,-436.5 635,-633.5 870,-633.5 870,-436.5 635,-436.5"/>
<text text-anchor="middle" x="752.5" y="-618.3" font-family="Times,serif" font-size="14.00">Repo</text>
<polyline fill="none" stroke="black" points="635,-610.5 870,-610.5"/>
<text text-anchor="start" x="643" y="-595.3" font-family="Times,serif" font-size="14.00">repo_local_path : Path</text>
<text text-anchor="start" x="643" y="-580.3" font-family="Times,serif" font-size="14.00">repo_url : str</text>
<polyline fill="none" stroke="black" points="635,-572.5 870,-572.5"/>
<text text-anchor="start" x="643" y="-557.3" font-family="Times,serif" font-size="14.00">check_for_repo_action(): bool</text>
<text text-anchor="start" x="643" y="-542.3" font-family="Times,serif" font-size="14.00">check_if_queue_is_needed(): bool</text>
<text text-anchor="middle" x="752.5" y="-527.3" font-family="Times,serif" font-size="14.00">get_available_repo_data(): dict</text>
<polyline fill="none" stroke="black" points="635,-519.5 870,-519.5"/>
<text text-anchor="start" x="643" y="-504.3" font-family="Times,serif" font-size="14.00">None</text>
<text text-anchor="start" x="643" y="-489.3" font-family="Times,serif" font-size="14.00">read_repo_data_file(): None</text>
<text text-anchor="start" x="643" y="-474.3" font-family="Times,serif" font-size="14.00">set_repo_datum(record: &#39;Record&#39;): None</text>
<text text-anchor="start" x="643" y="-459.3" font-family="Times,serif" font-size="14.00">test_for_repo_data_file(): bool</text>
<text text-anchor="start" x="643" y="-444.3" font-family="Times,serif" font-size="14.00">update_repo_from_github(): None</text>
</g>
<!-- histdatacom.scraper.repo.Repo&#45;&gt;histdatacom.histdata_com._HistDataCom -->
<g id="edge6" class="edge">
<title>histdatacom.scraper.repo.Repo&#45;&gt;histdatacom.histdata_com._HistDataCom</title>
<path fill="none" stroke="black" d="M680.58,-633.27C657.04,-665.11 631.24,-700.01 609,-730.08"/>
<polygon fill="black" stroke="black" points="608.96,-730.13 608.61,-737.34 601.83,-739.78 602.18,-732.58 608.96,-730.13"/>
<text text-anchor="middle" x="677" y="-655.8" font-family="Times,serif" font-size="14.00" fill="green">repo</text>
</g>
<!-- histdatacom.scraper.scraper.Scraper -->
<g id="node15" class="node">
<title>histdatacom.scraper.scraper.Scraper</title>
<polygon fill="none" stroke="black" points="888,-455.5 888,-614.5 1107,-614.5 1107,-455.5 888,-455.5"/>
<text text-anchor="middle" x="997.5" y="-599.3" font-family="Times,serif" font-size="14.00">Scraper</text>
<polyline fill="none" stroke="black" points="888,-591.5 1107,-591.5"/>
<text text-anchor="start" x="896" y="-576.3" font-family="Times,serif" font-size="14.00">check_for_repo_action : Callable</text>
<text text-anchor="start" x="896" y="-561.3" font-family="Times,serif" font-size="14.00">check_if_queue_is_needed : Callable</text>
<text text-anchor="start" x="896" y="-546.3" font-family="Times,serif" font-size="14.00">set_repo_datum : Callable</text>
<text text-anchor="start" x="896" y="-531.3" font-family="Times,serif" font-size="14.00">urls</text>
<polyline fill="none" stroke="black" points="888,-523.5 1107,-523.5"/>
<text text-anchor="start" x="896" y="-508.3" font-family="Times,serif" font-size="14.00">download_zips(): None</text>
<text text-anchor="start" x="896" y="-493.3" font-family="Times,serif" font-size="14.00">get_zip_file(record: Record): None</text>
<text text-anchor="start" x="896" y="-478.3" font-family="Times,serif" font-size="14.00">populate_initial_queue(): None</text>
<text text-anchor="start" x="896" y="-463.3" font-family="Times,serif" font-size="14.00">validate_urls(): None</text>
</g>
<!-- histdatacom.scraper.scraper.Scraper&#45;&gt;histdatacom.histdata_com._HistDataCom -->
<g id="edge7" class="edge">
<title>histdatacom.scraper.scraper.Scraper&#45;&gt;histdatacom.histdata_com._HistDataCom</title>
<path fill="none" stroke="black" d="M906,-614.39C896.89,-621.27 887.63,-627.92 878.5,-634 790.41,-692.7 680.14,-747.53 613.07,-779"/>
<polygon fill="black" stroke="black" points="613.16,-778.96 609.42,-785.12 602.29,-784.03 606.03,-777.87 613.16,-778.96"/>
<text text-anchor="middle" x="865.5" y="-655.8" font-family="Times,serif" font-size="14.00" fill="green">scraper</text>
</g>
<!-- histdatacom.concurrency.ThreadPool -->
<g id="node16" class="node">
<title>histdatacom.concurrency.ThreadPool</title>
<polygon fill="none" stroke="black" points="2905,-128 2905,-257 3048,-257 3048,-128 2905,-128"/>
<text text-anchor="middle" x="2976.5" y="-241.8" font-family="Times,serif" font-size="14.00">ThreadPool</text>
<polyline fill="none" stroke="black" points="2905,-234 3048,-234"/>
<text text-anchor="start" x="2913" y="-218.8" font-family="Times,serif" font-size="14.00">args : dict</text>
<text text-anchor="start" x="2913" y="-203.8" font-family="Times,serif" font-size="14.00">cpu_count : int</text>
<text text-anchor="start" x="2913" y="-188.8" font-family="Times,serif" font-size="14.00">exec_func : Callable</text>
<text text-anchor="start" x="2913" y="-173.8" font-family="Times,serif" font-size="14.00">progress_post_text : str</text>
<text text-anchor="start" x="2913" y="-158.8" font-family="Times,serif" font-size="14.00">progress_pre_text : str</text>
<polyline fill="none" stroke="black" points="2905,-151 3048,-151"/>
<text text-anchor="middle" x="2976.5" y="-135.8" font-family="Times,serif" font-size="14.00"> </text>
</g>
<!-- histdatacom.fx_enums.TimeFormat -->
<g id="node17" class="node">
<title>histdatacom.fx_enums.TimeFormat</title>
<polygon fill="none" stroke="black" points="3066.5,-150.5 3066.5,-234.5 3172.5,-234.5 3172.5,-150.5 3066.5,-150.5"/>
<text text-anchor="middle" x="3119.5" y="-219.3" font-family="Times,serif" font-size="14.00">TimeFormat</text>
<polyline fill="none" stroke="black" points="3066.5,-211.5 3172.5,-211.5"/>
<text text-anchor="start" x="3074.5" y="-196.3" font-family="Times,serif" font-size="14.00">name</text>
<polyline fill="none" stroke="black" points="3066.5,-188.5 3172.5,-188.5"/>
<text text-anchor="start" x="3074.5" y="-173.3" font-family="Times,serif" font-size="14.00">list_keys(): set</text>
<text text-anchor="start" x="3074.5" y="-158.3" font-family="Times,serif" font-size="14.00">list_values(): set</text>
</g>
<!-- histdatacom.fx_enums.TimePrecision -->
<g id="node18" class="node">
<title>histdatacom.fx_enums.TimePrecision</title>
<polygon fill="none" stroke="black" points="3190.5,-150.5 3190.5,-234.5 3296.5,-234.5 3296.5,-150.5 3190.5,-150.5"/>
<text text-anchor="middle" x="3243.5" y="-219.3" font-family="Times,serif" font-size="14.00">TimePrecision</text>
<polyline fill="none" stroke="black" points="3190.5,-211.5 3296.5,-211.5"/>
<text text-anchor="start" x="3198.5" y="-196.3" font-family="Times,serif" font-size="14.00">name</text>
<polyline fill="none" stroke="black" points="3190.5,-188.5 3296.5,-188.5"/>
<text text-anchor="start" x="3198.5" y="-173.3" font-family="Times,serif" font-size="14.00">list_keys(): set</text>
<text text-anchor="start" x="3198.5" y="-158.3" font-family="Times,serif" font-size="14.00">list_values(): set</text>
</g>
<!-- histdatacom.fx_enums.Timeframe -->
<g id="node19" class="node">
<title>histdatacom.fx_enums.Timeframe</title>
<polygon fill="none" stroke="black" points="3314.5,-150.5 3314.5,-234.5 3420.5,-234.5 3420.5,-150.5 3314.5,-150.5"/>
<text text-anchor="middle" x="3367.5" y="-219.3" font-family="Times,serif" font-size="14.00">Timeframe</text>
<polyline fill="none" stroke="black" points="3314.5,-211.5 3420.5,-211.5"/>
<text text-anchor="start" x="3322.5" y="-196.3" font-family="Times,serif" font-size="14.00">name</text>
<polyline fill="none" stroke="black" points="3314.5,-188.5 3420.5,-188.5"/>
<text text-anchor="start" x="3322.5" y="-173.3" font-family="Times,serif" font-size="14.00">list_keys(): set</text>
<text text-anchor="start" x="3322.5" y="-158.3" font-family="Times,serif" font-size="14.00">list_values(): set</text>
</g>
<!-- histdatacom.scraper.urls.Urls -->
<g id="node20" class="node">
<title>histdatacom.scraper.urls.Urls</title>
<polygon fill="none" stroke="black" points="587,-158 587,-227 1408,-227 1408,-158 587,-158"/>
<text text-anchor="middle" x="997.5" y="-211.8" font-family="Times,serif" font-size="14.00">Urls</text>
<polyline fill="none" stroke="black" points="587,-204 1408,-204"/>
<text text-anchor="start" x="595" y="-188.8" font-family="Times,serif" font-size="14.00">base_url : str</text>
<polyline fill="none" stroke="black" points="587,-181 1408,-181"/>
<text text-anchor="start" x="595" y="-165.8" font-family="Times,serif" font-size="14.00">generate_form_urls(start_yearmonth: str, end_yearmonth: str, formats: set, pairs: Optional[Set[Any]], timeframes: set): Generator[str, None, None]</text>
</g>
<!-- histdatacom.scraper.urls.Urls&#45;&gt;histdatacom.scraper.scraper.Scraper -->
<g id="edge8" class="edge">
<title>histdatacom.scraper.urls.Urls&#45;&gt;histdatacom.scraper.scraper.Scraper</title>
<path fill="none" stroke="black" d="M997.5,-226.77C997.5,-276.31 997.5,-371.29 997.5,-442.59"/>
<polygon fill="black" stroke="black" points="997.5,-442.71 1001.5,-448.71 997.5,-454.71 993.5,-448.71 997.5,-442.71"/>
<text text-anchor="middle" x="1008" y="-406.8" font-family="Times,serif" font-size="14.00" fill="green">urls</text>
</g>
</g>
</svg>
