<?xml version="1.0" encoding="UTF-8" standalone="no"?>
<!DOCTYPE svg PUBLIC "-//W3C//DTD SVG 1.1//EN"
 "http://www.w3.org/Graphics/SVG/1.1/DTD/svg11.dtd">
<!-- Generated by graphviz version 2.50.0 (20211204.2007)
 -->
<!-- Title: classes Pages: 1 -->
<svg width="3733pt" height="859pt"
 viewBox="0.00 0.00 3732.50 859.00" xmlns="http://www.w3.org/2000/svg" xmlns:xlink="http://www.w3.org/1999/xlink">
<g id="graph0" class="graph" transform="scale(1 1) rotate(0) translate(4 855)">
<title>classes</title>
<polygon fill="white" stroke="transparent" points="-4,4 -4,-855 3728.5,-855 3728.5,4 -4,4"/>
<!-- histdatacom.cli.ArgParser -->
<g id="node1" class="node">
<title>histdatacom.cli.ArgParser</title>
<polygon fill="none" stroke="black" points="0,-541.5 0,-850.5 322,-850.5 322,-541.5 0,-541.5"/>
<text text-anchor="middle" x="161" y="-835.3" font-family="Times,serif" font-size="14.00">ArgParser</text>
<polyline fill="none" stroke="black" points="0,-827.5 322,-827.5 "/>
<text text-anchor="start" x="8" y="-812.3" font-family="Times,serif" font-size="14.00">arg_namespace</text>
<polyline fill="none" stroke="black" points="0,-804.5 322,-804.5 "/>
<text text-anchor="start" x="8" y="-789.3" font-family="Times,serif" font-size="14.00">check_cli_end_yearmonth(args_namespace)</text>
<text text-anchor="start" x="8" y="-774.3" font-family="Times,serif" font-size="14.00">check_cli_start_yearmonth(args_namespace)</text>
<text text-anchor="start" x="8" y="-759.3" font-family="Times,serif" font-size="14.00">check_datetime_input(args_namespace)</text>
<text text-anchor="start" x="8" y="-744.3" font-family="Times,serif" font-size="14.00">check_end_yearmonth_in_range(args_namespace)</text>
<text text-anchor="start" x="8" y="-729.3" font-family="Times,serif" font-size="14.00">check_for_ascii_if_api(args_namespace)</text>
<text text-anchor="start" x="8" y="-714.3" font-family="Times,serif" font-size="14.00">check_for_ascii_if_influx(args_namespace)</text>
<text text-anchor="start" x="8" y="-699.3" font-family="Times,serif" font-size="14.00">check_for_now_in_yearmonth(args_namespace)</text>
<text text-anchor="start" x="8" y="-684.3" font-family="Times,serif" font-size="14.00">check_for_same_start_yearmonth(args_namespace)</text>
<text text-anchor="start" x="8" y="-669.3" font-family="Times,serif" font-size="14.00">check_for_start_in_yearmonth(args_namespace)</text>
<text text-anchor="start" x="8" y="-654.3" font-family="Times,serif" font-size="14.00">check_start_lessthan_end(args_namespace)</text>
<text text-anchor="start" x="8" y="-639.3" font-family="Times,serif" font-size="14.00">check_start_yearmonth_in_range(args_namespace)</text>
<text text-anchor="start" x="8" y="-624.3" font-family="Times,serif" font-size="14.00">clean_from_api_args(args_namespace)</text>
<text text-anchor="start" x="8" y="-609.3" font-family="Times,serif" font-size="14.00">exit_on_datetime_error(err)</text>
<text text-anchor="start" x="8" y="-594.3" font-family="Times,serif" font-size="14.00">false_from_api_if_behavior_flag(args_namespace)</text>
<text text-anchor="start" x="8" y="-579.3" font-family="Times,serif" font-size="14.00">replace_falsey_yearmonth_with_none(args_namespace)</text>
<text text-anchor="start" x="8" y="-564.3" font-family="Times,serif" font-size="14.00">validate_prerequisites(args_namespace)</text>
<text text-anchor="start" x="8" y="-549.3" font-family="Times,serif" font-size="14.00">validate_yearmonth_format(yearmonth)</text>
</g>
<!-- histdatacom.fx_enums.Format -->
<g id="node2" class="node">
<title>histdatacom.fx_enums.Format</title>
<polygon fill="none" stroke="black" points="272.5,-203 272.5,-287 355.5,-287 355.5,-203 272.5,-203"/>
<text text-anchor="middle" x="314" y="-271.8" font-family="Times,serif" font-size="14.00">Format</text>
<polyline fill="none" stroke="black" points="272.5,-264 355.5,-264 "/>
<text text-anchor="start" x="280.5" y="-248.8" font-family="Times,serif" font-size="14.00">name</text>
<polyline fill="none" stroke="black" points="272.5,-241 355.5,-241 "/>
<text text-anchor="start" x="280.5" y="-225.8" font-family="Times,serif" font-size="14.00">list_keys()</text>
<text text-anchor="start" x="280.5" y="-210.8" font-family="Times,serif" font-size="14.00">list_values()</text>
</g>
<!-- histdatacom.concurrency.InfluxDBWriter -->
<g id="node3" class="node">
<title>histdatacom.concurrency.InfluxDBWriter</title>
<polygon fill="none" stroke="black" points="373.5,-180.5 373.5,-309.5 492.5,-309.5 492.5,-180.5 373.5,-180.5"/>
<text text-anchor="middle" x="433" y="-294.3" font-family="Times,serif" font-size="14.00">InfluxDBWriter</text>
<polyline fill="none" stroke="black" points="373.5,-286.5 492.5,-286.5 "/>
<text text-anchor="start" x="381.5" y="-271.3" font-family="Times,serif" font-size="14.00">args</text>
<text text-anchor="start" x="381.5" y="-256.3" font-family="Times,serif" font-size="14.00">client</text>
<text text-anchor="start" x="381.5" y="-241.3" font-family="Times,serif" font-size="14.00">csv_chunks_queue</text>
<text text-anchor="start" x="381.5" y="-226.3" font-family="Times,serif" font-size="14.00">write_api</text>
<polyline fill="none" stroke="black" points="373.5,-218.5 492.5,-218.5 "/>
<text text-anchor="start" x="381.5" y="-203.3" font-family="Times,serif" font-size="14.00">run()</text>
<text text-anchor="start" x="381.5" y="-188.3" font-family="Times,serif" font-size="14.00">terminate()</text>
</g>
<!-- histdatacom.Options -->
<g id="node4" class="node">
<title>histdatacom.Options</title>
<polygon fill="none" stroke="black" points="510.5,-210 510.5,-280 569.5,-280 569.5,-210 510.5,-210"/>
<text text-anchor="middle" x="540" y="-264.8" font-family="Times,serif" font-size="14.00">Options</text>
<polyline fill="none" stroke="black" points="510.5,-257 569.5,-257 "/>
<polyline fill="none" stroke="black" points="510.5,-233 569.5,-233 "/>
<text text-anchor="middle" x="540" y="-217.8" font-family="Times,serif" font-size="14.00"> </text>
</g>
<!-- histdatacom.options.Options -->
<g id="node5" class="node">
<title>histdatacom.options.Options</title>
<polygon fill="none" stroke="black" points="68,-120.5 68,-369.5 254,-369.5 254,-120.5 68,-120.5"/>
<text text-anchor="middle" x="161" y="-354.3" font-family="Times,serif" font-size="14.00">Options</text>
<polyline fill="none" stroke="black" points="68,-346.5 254,-346.5 "/>
<text text-anchor="start" x="76" y="-331.3" font-family="Times,serif" font-size="14.00">api_return_type : str</text>
<text text-anchor="start" x="76" y="-316.3" font-family="Times,serif" font-size="14.00">cpu_utilization : str</text>
<text text-anchor="start" x="76" y="-301.3" font-family="Times,serif" font-size="14.00">data_directory : str</text>
<text text-anchor="start" x="76" y="-286.3" font-family="Times,serif" font-size="14.00">download_data_archives : bool</text>
<text text-anchor="start" x="76" y="-271.3" font-family="Times,serif" font-size="14.00">end_yearmonth : str</text>
<text text-anchor="start" x="76" y="-256.3" font-family="Times,serif" font-size="14.00">extract_csvs : bool</text>
<text text-anchor="start" x="76" y="-241.3" font-family="Times,serif" font-size="14.00">formats</text>
<text text-anchor="start" x="76" y="-226.3" font-family="Times,serif" font-size="14.00">from_api : bool</text>
<text text-anchor="start" x="76" y="-211.3" font-family="Times,serif" font-size="14.00">import_to_influxdb : bool</text>
<text text-anchor="start" x="76" y="-196.3" font-family="Times,serif" font-size="14.00">pairs : set</text>
<text text-anchor="start" x="76" y="-181.3" font-family="Times,serif" font-size="14.00">start_yearmonth : str</text>
<text text-anchor="start" x="76" y="-166.3" font-family="Times,serif" font-size="14.00">timeframes : set</text>
<text text-anchor="start" x="76" y="-151.3" font-family="Times,serif" font-size="14.00">validate_urls : bool</text>
<polyline fill="none" stroke="black" points="68,-143.5 254,-143.5 "/>
<text text-anchor="middle" x="161" y="-128.3" font-family="Times,serif" font-size="14.00"> </text>
</g>
<!-- histdatacom.options.Options&#45;&gt;histdatacom.cli.ArgParser -->
<g id="edge4" class="edge">
<title>histdatacom.options.Options&#45;&gt;histdatacom.cli.ArgParser</title>
<path fill="none" stroke="black" d="M161,-369.58C161,-418.83 161,-476.27 161,-529.06"/>
<polygon fill="black" stroke="black" points="161,-529.3 165,-535.3 161,-541.3 157,-535.3 161,-529.3"/>
<text text-anchor="middle" x="203.5" y="-511.8" font-family="Times,serif" font-size="14.00" fill="green">arg_namespace</text>
</g>
<!-- histdatacom.fx_enums.Pairs -->
<g id="node6" class="node">
<title>histdatacom.fx_enums.Pairs</title>
<polygon fill="none" stroke="black" points="587.5,-203 587.5,-287 670.5,-287 670.5,-203 587.5,-203"/>
<text text-anchor="middle" x="629" y="-271.8" font-family="Times,serif" font-size="14.00">Pairs</text>
<polyline fill="none" stroke="black" points="587.5,-264 670.5,-264 "/>
<text text-anchor="start" x="595.5" y="-248.8" font-family="Times,serif" font-size="14.00">name</text>
<polyline fill="none" stroke="black" points="587.5,-241 670.5,-241 "/>
<text text-anchor="start" x="595.5" y="-225.8" font-family="Times,serif" font-size="14.00">list_keys()</text>
<text text-anchor="start" x="595.5" y="-210.8" font-family="Times,serif" font-size="14.00">list_values()</text>
</g>
<!-- histdatacom.concurrency.ProcessPool -->
<g id="node7" class="node">
<title>histdatacom.concurrency.ProcessPool</title>
<polygon fill="none" stroke="black" points="688.5,-165.5 688.5,-324.5 807.5,-324.5 807.5,-165.5 688.5,-165.5"/>
<text text-anchor="middle" x="748" y="-309.3" font-family="Times,serif" font-size="14.00">ProcessPool</text>
<polyline fill="none" stroke="black" points="688.5,-301.5 807.5,-301.5 "/>
<text text-anchor="start" x="696.5" y="-286.3" font-family="Times,serif" font-size="14.00">args</text>
<text text-anchor="start" x="696.5" y="-271.3" font-family="Times,serif" font-size="14.00">cpu_count</text>
<text text-anchor="start" x="696.5" y="-256.3" font-family="Times,serif" font-size="14.00">dump : bool</text>
<text text-anchor="start" x="696.5" y="-241.3" font-family="Times,serif" font-size="14.00">exec_func</text>
<text text-anchor="start" x="696.5" y="-226.3" font-family="Times,serif" font-size="14.00">join : bool</text>
<text text-anchor="start" x="696.5" y="-211.3" font-family="Times,serif" font-size="14.00">progress_post_text</text>
<text text-anchor="start" x="696.5" y="-196.3" font-family="Times,serif" font-size="14.00">progress_pre_text</text>
<polyline fill="none" stroke="black" points="688.5,-188.5 807.5,-188.5 "/>
<text text-anchor="middle" x="748" y="-173.3" font-family="Times,serif" font-size="14.00"> </text>
</g>
<!-- histdatacom.concurrency.QueueManager -->
<g id="node8" class="node">
<title>histdatacom.concurrency.QueueManager</title>
<polygon fill="none" stroke="black" points="825.5,-203 825.5,-287 1022.5,-287 1022.5,-203 825.5,-203"/>
<text text-anchor="middle" x="924" y="-271.8" font-family="Times,serif" font-size="14.00">QueueManager</text>
<polyline fill="none" stroke="black" points="825.5,-264 1022.5,-264 "/>
<text text-anchor="start" x="833.5" y="-248.8" font-family="Times,serif" font-size="14.00">options</text>
<text text-anchor="start" x="833.5" y="-233.8" font-family="Times,serif" font-size="14.00">records_manager : SyncManager</text>
<polyline fill="none" stroke="black" points="825.5,-226 1022.5,-226 "/>
<text text-anchor="middle" x="924" y="-210.8" font-family="Times,serif" font-size="14.00"> </text>
</g>
<!-- histdatacom.records.Record -->
<g id="node9" class="node">
<title>histdatacom.records.Record</title>
<polygon fill="none" stroke="black" points="1041,-0.5 1041,-489.5 1237,-489.5 1237,-0.5 1041,-0.5"/>
<text text-anchor="middle" x="1139" y="-474.3" font-family="Times,serif" font-size="14.00">Record</text>
<polyline fill="none" stroke="black" points="1041,-466.5 1237,-466.5 "/>
<text text-anchor="start" x="1049" y="-451.3" font-family="Times,serif" font-size="14.00">bytes_length</text>
<text text-anchor="start" x="1049" y="-436.3" font-family="Times,serif" font-size="14.00">csv_filename</text>
<text text-anchor="start" x="1049" y="-421.3" font-family="Times,serif" font-size="14.00">csv_linecount</text>
<text text-anchor="start" x="1049" y="-406.3" font-family="Times,serif" font-size="14.00">data_date</text>
<text text-anchor="start" x="1049" y="-391.3" font-family="Times,serif" font-size="14.00">data_datemonth</text>
<text text-anchor="start" x="1049" y="-376.3" font-family="Times,serif" font-size="14.00">data_dir</text>
<text text-anchor="start" x="1049" y="-361.3" font-family="Times,serif" font-size="14.00">data_format</text>
<text text-anchor="start" x="1049" y="-346.3" font-family="Times,serif" font-size="14.00">data_fxpair</text>
<text text-anchor="start" x="1049" y="-331.3" font-family="Times,serif" font-size="14.00">data_month : str</text>
<text text-anchor="start" x="1049" y="-316.3" font-family="Times,serif" font-size="14.00">data_timeframe</text>
<text text-anchor="start" x="1049" y="-301.3" font-family="Times,serif" font-size="14.00">data_tk</text>
<text text-anchor="start" x="1049" y="-286.3" font-family="Times,serif" font-size="14.00">data_year : str</text>
<text text-anchor="start" x="1049" y="-271.3" font-family="Times,serif" font-size="14.00">encoding</text>
<text text-anchor="start" x="1049" y="-256.3" font-family="Times,serif" font-size="14.00">jay_end</text>
<text text-anchor="start" x="1049" y="-241.3" font-family="Times,serif" font-size="14.00">jay_filename</text>
<text text-anchor="start" x="1049" y="-226.3" font-family="Times,serif" font-size="14.00">jay_linecount</text>
<text text-anchor="start" x="1049" y="-211.3" font-family="Times,serif" font-size="14.00">jay_start</text>
<text text-anchor="start" x="1049" y="-196.3" font-family="Times,serif" font-size="14.00">status</text>
<text text-anchor="start" x="1049" y="-181.3" font-family="Times,serif" font-size="14.00">url</text>
<text text-anchor="start" x="1049" y="-166.3" font-family="Times,serif" font-size="14.00">zip_filename</text>
<text text-anchor="start" x="1049" y="-151.3" font-family="Times,serif" font-size="14.00">zip_persist</text>
<polyline fill="none" stroke="black" points="1041,-143.5 1237,-143.5 "/>
<text text-anchor="start" x="1049" y="-128.3" font-family="Times,serif" font-size="14.00">create_record_data_dir(base_dir)</text>
<text text-anchor="start" x="1049" y="-113.3" font-family="Times,serif" font-size="14.00">delete_info_file()</text>
<text text-anchor="start" x="1049" y="-98.3" font-family="Times,serif" font-size="14.00">print_record(string)</text>
<text text-anchor="start" x="1049" y="-83.3" font-family="Times,serif" font-size="14.00">restore_momento(base_dir)</text>
<text text-anchor="start" x="1049" y="-68.3" font-family="Times,serif" font-size="14.00">set_csv_linecount()</text>
<text text-anchor="start" x="1049" y="-53.3" font-family="Times,serif" font-size="14.00">set_datetime_attrs()</text>
<text text-anchor="start" x="1049" y="-38.3" font-family="Times,serif" font-size="14.00">set_record_data_dir(base_dir)</text>
<text text-anchor="start" x="1049" y="-23.3" font-family="Times,serif" font-size="14.00">to_dict()</text>
<text text-anchor="start" x="1049" y="-8.3" font-family="Times,serif" font-size="14.00">write_info_file(base_dir)</text>
</g>
<!-- histdatacom.records.Records -->
<g id="node10" class="node">
<title>histdatacom.records.Records</title>
<polygon fill="none" stroke="black" points="1255,-195 1255,-295 1461,-295 1461,-195 1255,-195"/>
<text text-anchor="middle" x="1358" y="-279.8" font-family="Times,serif" font-size="14.00">Records</text>
<polyline fill="none" stroke="black" points="1255,-272 1461,-272 "/>
<polyline fill="none" stroke="black" points="1255,-248 1461,-248 "/>
<text text-anchor="start" x="1263" y="-232.8" font-family="Times,serif" font-size="14.00">dump_to_queue(dst_queue, count)</text>
<text text-anchor="start" x="1263" y="-217.8" font-family="Times,serif" font-size="14.00">print()</text>
<text text-anchor="start" x="1263" y="-202.8" font-family="Times,serif" font-size="14.00">write_pickle(path)</text>
</g>
<!-- histdatacom.concurrency.ThreadPool -->
<g id="node11" class="node">
<title>histdatacom.concurrency.ThreadPool</title>
<polygon fill="none" stroke="black" points="1479.5,-180.5 1479.5,-309.5 1598.5,-309.5 1598.5,-180.5 1479.5,-180.5"/>
<text text-anchor="middle" x="1539" y="-294.3" font-family="Times,serif" font-size="14.00">ThreadPool</text>
<polyline fill="none" stroke="black" points="1479.5,-286.5 1598.5,-286.5 "/>
<text text-anchor="start" x="1487.5" y="-271.3" font-family="Times,serif" font-size="14.00">args</text>
<text text-anchor="start" x="1487.5" y="-256.3" font-family="Times,serif" font-size="14.00">cpu_count</text>
<text text-anchor="start" x="1487.5" y="-241.3" font-family="Times,serif" font-size="14.00">exec_func</text>
<text text-anchor="start" x="1487.5" y="-226.3" font-family="Times,serif" font-size="14.00">progress_post_text</text>
<text text-anchor="start" x="1487.5" y="-211.3" font-family="Times,serif" font-size="14.00">progress_pre_text</text>
<polyline fill="none" stroke="black" points="1479.5,-203.5 1598.5,-203.5 "/>
<text text-anchor="middle" x="1539" y="-188.3" font-family="Times,serif" font-size="14.00"> </text>
</g>
<!-- histdatacom.fx_enums.TimeFormat -->
<g id="node12" class="node">
<title>histdatacom.fx_enums.TimeFormat</title>
<polygon fill="none" stroke="black" points="1617,-203 1617,-287 1703,-287 1703,-203 1617,-203"/>
<text text-anchor="middle" x="1660" y="-271.8" font-family="Times,serif" font-size="14.00">TimeFormat</text>
<polyline fill="none" stroke="black" points="1617,-264 1703,-264 "/>
<text text-anchor="start" x="1625" y="-248.8" font-family="Times,serif" font-size="14.00">name</text>
<polyline fill="none" stroke="black" points="1617,-241 1703,-241 "/>
<text text-anchor="start" x="1625" y="-225.8" font-family="Times,serif" font-size="14.00">list_keys()</text>
<text text-anchor="start" x="1625" y="-210.8" font-family="Times,serif" font-size="14.00">list_values()</text>
</g>
<!-- histdatacom.fx_enums.TimePrecision -->
<g id="node13" class="node">
<title>histdatacom.fx_enums.TimePrecision</title>
<polygon fill="none" stroke="black" points="1721,-203 1721,-287 1817,-287 1817,-203 1721,-203"/>
<text text-anchor="middle" x="1769" y="-271.8" font-family="Times,serif" font-size="14.00">TimePrecision</text>
<polyline fill="none" stroke="black" points="1721,-264 1817,-264 "/>
<text text-anchor="start" x="1729" y="-248.8" font-family="Times,serif" font-size="14.00">name</text>
<polyline fill="none" stroke="black" points="1721,-241 1817,-241 "/>
<text text-anchor="start" x="1729" y="-225.8" font-family="Times,serif" font-size="14.00">list_keys()</text>
<text text-anchor="start" x="1729" y="-210.8" font-family="Times,serif" font-size="14.00">list_values()</text>
</g>
<!-- histdatacom.fx_enums.Timeframe -->
<g id="node14" class="node">
<title>histdatacom.fx_enums.Timeframe</title>
<polygon fill="none" stroke="black" points="1835.5,-203 1835.5,-287 1918.5,-287 1918.5,-203 1835.5,-203"/>
<text text-anchor="middle" x="1877" y="-271.8" font-family="Times,serif" font-size="14.00">Timeframe</text>
<polyline fill="none" stroke="black" points="1835.5,-264 1918.5,-264 "/>
<text text-anchor="start" x="1843.5" y="-248.8" font-family="Times,serif" font-size="14.00">name</text>
<polyline fill="none" stroke="black" points="1835.5,-241 1918.5,-241 "/>
<text text-anchor="start" x="1843.5" y="-225.8" font-family="Times,serif" font-size="14.00">list_keys()</text>
<text text-anchor="start" x="1843.5" y="-210.8" font-family="Times,serif" font-size="14.00">list_values()</text>
</g>
<!-- histdatacom.api._API -->
<g id="node15" class="node">
<title>histdatacom.api._API</title>
<polygon fill="none" stroke="black" points="1937,-143 1937,-347 2263,-347 2263,-143 1937,-143"/>
<text text-anchor="middle" x="2100" y="-331.8" font-family="Times,serif" font-size="14.00">_API</text>
<polyline fill="none" stroke="black" points="1937,-324 2263,-324 "/>
<text text-anchor="start" x="1945" y="-308.8" font-family="Times,serif" font-size="14.00">args</text>
<polyline fill="none" stroke="black" points="1937,-301 2263,-301 "/>
<text text-anchor="start" x="1945" y="-285.8" font-family="Times,serif" font-size="14.00">create_jay(record, args)</text>
<text text-anchor="start" x="1945" y="-270.8" font-family="Times,serif" font-size="14.00">export_datatable_to_jay(data_frame, file_path)</text>
<text text-anchor="start" x="1945" y="-255.8" font-family="Times,serif" font-size="14.00">extract_single_value_from_frame(frame, row, column)</text>
<text text-anchor="start" x="1945" y="-240.8" font-family="Times,serif" font-size="14.00">import_file_to_datatable(record, zip_path)</text>
<text text-anchor="start" x="1945" y="-225.8" font-family="Times,serif" font-size="14.00">import_jay_data(jay_path)</text>
<text text-anchor="start" x="1945" y="-210.8" font-family="Times,serif" font-size="14.00">merge_jays(records_current)</text>
<text text-anchor="start" x="1945" y="-195.8" font-family="Times,serif" font-size="14.00">merge_records(tp_set_dict)</text>
<text text-anchor="start" x="1945" y="-180.8" font-family="Times,serif" font-size="14.00">test_for_jay_or_create(record, args)</text>
<text text-anchor="start" x="1945" y="-165.8" font-family="Times,serif" font-size="14.00">validate_jay(record, args, records_current, records_next)</text>
<text text-anchor="start" x="1945" y="-150.8" font-family="Times,serif" font-size="14.00">validate_jays(records_current, records_next)</text>
</g>
<!-- histdatacom.histdata_com._HistDataCom -->
<g id="node17" class="node">
<title>histdatacom.histdata_com._HistDataCom</title>
<polygon fill="none" stroke="black" points="2579.5,-609 2579.5,-783 2698.5,-783 2698.5,-609 2579.5,-609"/>
<text text-anchor="middle" x="2639" y="-767.8" font-family="Times,serif" font-size="14.00">_HistDataCom</text>
<polyline fill="none" stroke="black" points="2579.5,-760 2698.5,-760 "/>
<text text-anchor="start" x="2587.5" y="-744.8" font-family="Times,serif" font-size="14.00">api</text>
<text text-anchor="start" x="2587.5" y="-729.8" font-family="Times,serif" font-size="14.00">args</text>
<text text-anchor="start" x="2587.5" y="-714.8" font-family="Times,serif" font-size="14.00">csv_chunks_queue</text>
<text text-anchor="start" x="2587.5" y="-699.8" font-family="Times,serif" font-size="14.00">csvs</text>
<text text-anchor="start" x="2587.5" y="-684.8" font-family="Times,serif" font-size="14.00">influx</text>
<text text-anchor="start" x="2587.5" y="-669.8" font-family="Times,serif" font-size="14.00">records_current</text>
<text text-anchor="start" x="2587.5" y="-654.8" font-family="Times,serif" font-size="14.00">records_next</text>
<text text-anchor="start" x="2587.5" y="-639.8" font-family="Times,serif" font-size="14.00">urls</text>
<polyline fill="none" stroke="black" points="2579.5,-632 2698.5,-632 "/>
<text text-anchor="start" x="2587.5" y="-616.8" font-family="Times,serif" font-size="14.00">run()</text>
</g>
<!-- histdatacom.api._API&#45;&gt;histdatacom.histdata_com._HistDataCom -->
<g id="edge1" class="edge">
<title>histdatacom.api._API&#45;&gt;histdatacom.histdata_com._HistDataCom</title>
<path fill="none" stroke="black" d="M2156.82,-347.19C2186.8,-394.5 2226.75,-449.25 2272,-490 2361.94,-570.99 2489.37,-633.08 2567.97,-666.77"/>
<polygon fill="black" stroke="black" points="2568.16,-666.85 2575.24,-665.51 2579.21,-671.53 2572.12,-672.87 2568.16,-666.85"/>
<text text-anchor="middle" x="2315.5" y="-511.8" font-family="Times,serif" font-size="14.00" fill="green">api</text>
</g>
<!-- histdatacom.csvs._CSVs -->
<g id="node16" class="node">
<title>histdatacom.csvs._CSVs</title>
<polygon fill="none" stroke="black" points="2281.5,-203 2281.5,-287 2602.5,-287 2602.5,-203 2281.5,-203"/>
<text text-anchor="middle" x="2442" y="-271.8" font-family="Times,serif" font-size="14.00">_CSVs</text>
<polyline fill="none" stroke="black" points="2281.5,-264 2602.5,-264 "/>
<text text-anchor="start" x="2289.5" y="-248.8" font-family="Times,serif" font-size="14.00">args</text>
<polyline fill="none" stroke="black" points="2281.5,-241 2602.5,-241 "/>
<text text-anchor="start" x="2289.5" y="-225.8" font-family="Times,serif" font-size="14.00">extract_csv(record, args, records_current, records_next)</text>
<text text-anchor="start" x="2289.5" y="-210.8" font-family="Times,serif" font-size="14.00">extract_csvs(records_current, records_next)</text>
</g>
<!-- histdatacom.csvs._CSVs&#45;&gt;histdatacom.histdata_com._HistDataCom -->
<g id="edge2" class="edge">
<title>histdatacom.csvs._CSVs&#45;&gt;histdatacom.histdata_com._HistDataCom</title>
<path fill="none" stroke="black" d="M2460,-287.04C2490.66,-356.9 2553.78,-500.78 2596.27,-597.6"/>
<polygon fill="black" stroke="black" points="2596.39,-597.89 2602.47,-601.77 2601.21,-608.88 2595.14,-604.99 2596.39,-597.89"/>
<text text-anchor="middle" x="2571" y="-511.8" font-family="Times,serif" font-size="14.00" fill="green">csvs</text>
</g>
<!-- histdatacom.influx._Influx -->
<g id="node18" class="node">
<title>histdatacom.influx._Influx</title>
<polygon fill="none" stroke="black" points="2620.5,-120.5 2620.5,-369.5 3051.5,-369.5 3051.5,-120.5 2620.5,-120.5"/>
<text text-anchor="middle" x="2836" y="-354.3" font-family="Times,serif" font-size="14.00">_Influx</text>
<polyline fill="none" stroke="black" points="2620.5,-346.5 3051.5,-346.5 "/>
<text text-anchor="start" x="2628.5" y="-331.3" font-family="Times,serif" font-size="14.00">args</text>
<polyline fill="none" stroke="black" points="2620.5,-323.5 3051.5,-323.5 "/>
<text text-anchor="start" x="2628.5" y="-308.3" font-family="Times,serif" font-size="14.00">convert_datetime_to_utc_timestamp(csv_format, timeframe, row)</text>
<text text-anchor="start" x="2628.5" y="-293.3" font-family="Times,serif" font-size="14.00">fieldnames_match(csv_format, timeframe)</text>
<text text-anchor="start" x="2628.5" y="-278.3" font-family="Times,serif" font-size="14.00">get_timeformat(csv_format, timeframe)</text>
<text text-anchor="start" x="2628.5" y="-263.3" font-family="Times,serif" font-size="14.00">import_csv(record, args, records_current, records_next, csv_chunks_queue)</text>
<text text-anchor="start" x="2628.5" y="-248.3" font-family="Times,serif" font-size="14.00">import_data(records_current, records_next, csv_chunks_queue)</text>
<text text-anchor="start" x="2628.5" y="-233.3" font-family="Times,serif" font-size="14.00">import_file(record, args, records_current, records_next, csv_chunks_queue)</text>
<text text-anchor="start" x="2628.5" y="-218.3" font-family="Times,serif" font-size="14.00">import_jay(record, args, records_current, records_next, csv_chunks_queue)</text>
<text text-anchor="start" x="2628.5" y="-203.3" font-family="Times,serif" font-size="14.00">init_counters(csv_chunks_queue_, records_current_, records_next_, args_)</text>
<text text-anchor="start" x="2628.5" y="-188.3" font-family="Times,serif" font-size="14.00">load_influx_yaml()</text>
<text text-anchor="start" x="2628.5" y="-173.3" font-family="Times,serif" font-size="14.00">parse_csv_row(row, record)</text>
<text text-anchor="start" x="2628.5" y="-158.3" font-family="Times,serif" font-size="14.00">parse_csv_rows(rows, record)</text>
<text text-anchor="start" x="2628.5" y="-143.3" font-family="Times,serif" font-size="14.00">parse_jay_row(row, record)</text>
<text text-anchor="start" x="2628.5" y="-128.3" font-family="Times,serif" font-size="14.00">parse_jay_rows(iterable, record)</text>
</g>
<!-- histdatacom.influx._Influx&#45;&gt;histdatacom.histdata_com._HistDataCom -->
<g id="edge3" class="edge">
<title>histdatacom.influx._Influx&#45;&gt;histdatacom.histdata_com._HistDataCom</title>
<path fill="none" stroke="black" d="M2781.78,-369.58C2750.28,-441.36 2711.17,-530.52 2681.84,-597.35"/>
<polygon fill="black" stroke="black" points="2681.68,-597.73 2682.93,-604.83 2676.86,-608.72 2675.6,-601.62 2681.68,-597.73"/>
<text text-anchor="middle" x="2736.5" y="-511.8" font-family="Times,serif" font-size="14.00" fill="green">influx</text>
</g>
<!-- histdatacom.urls._URLs -->
<g id="node19" class="node">
<title>histdatacom.urls._URLs</title>
<polygon fill="none" stroke="black" points="3069.5,-68 3069.5,-422 3724.5,-422 3724.5,-68 3069.5,-68"/>
<text text-anchor="middle" x="3397" y="-406.8" font-family="Times,serif" font-size="14.00">_URLs</text>
<polyline fill="none" stroke="black" points="3069.5,-399 3724.5,-399 "/>
<text text-anchor="start" x="3077.5" y="-383.8" font-family="Times,serif" font-size="14.00">args</text>
<polyline fill="none" stroke="black" points="3069.5,-376 3724.5,-376 "/>
<text text-anchor="start" x="3077.5" y="-360.8" font-family="Times,serif" font-size="14.00">correct_for_zero_month(month)</text>
<text text-anchor="start" x="3077.5" y="-345.8" font-family="Times,serif" font-size="14.00">download_zip(record, args)</text>
<text text-anchor="start" x="3077.5" y="-330.8" font-family="Times,serif" font-size="14.00">download_zips(records_current, records_next)</text>
<text text-anchor="start" x="3077.5" y="-315.8" font-family="Times,serif" font-size="14.00">fetch_form_values(page_data, record)</text>
<text text-anchor="start" x="3077.5" y="-300.8" font-family="Times,serif" font-size="14.00">generate_form_urls(start_yearmonth, end_yearmonth, formats, pairs, timeframes, base_url)</text>
<text text-anchor="start" x="3077.5" y="-285.8" font-family="Times,serif" font-size="14.00">get_base_url(url)</text>
<text text-anchor="start" x="3077.5" y="-270.8" font-family="Times,serif" font-size="14.00">get_page_data(url)</text>
<text text-anchor="start" x="3077.5" y="-255.8" font-family="Times,serif" font-size="14.00">populate_initial_queue(records_current, records_next)</text>
<text text-anchor="start" x="3077.5" y="-240.8" font-family="Times,serif" font-size="14.00">request_file(record, args)</text>
<text text-anchor="start" x="3077.5" y="-225.8" font-family="Times,serif" font-size="14.00">valid_format_timeframe_pair_urls(formats, timeframes, pairs)</text>
<text text-anchor="start" x="3077.5" y="-210.8" font-family="Times,serif" font-size="14.00">validate_url(record, args)</text>
<text text-anchor="start" x="3077.5" y="-195.8" font-family="Times,serif" font-size="14.00">validate_urls(records_current, records_next)</text>
<text text-anchor="start" x="3077.5" y="-180.8" font-family="Times,serif" font-size="14.00">write_file(record, content)</text>
<text text-anchor="start" x="3077.5" y="-165.8" font-family="Times,serif" font-size="14.00">yield_current_year(year, start_year, start_month, end_year, end_month)</text>
<text text-anchor="start" x="3077.5" y="-150.8" font-family="Times,serif" font-size="14.00">yield_end_year(timeframe, year, end_month)</text>
<text text-anchor="start" x="3077.5" y="-135.8" font-family="Times,serif" font-size="14.00">yield_range_of_yearmonths(year, timeframe, form_url, start_year, start_month, end_year, end_month, current_year)</text>
<text text-anchor="start" x="3077.5" y="-120.8" font-family="Times,serif" font-size="14.00">yield_same_year(timeframe, year, start_month, end_month)</text>
<text text-anchor="start" x="3077.5" y="-105.8" font-family="Times,serif" font-size="14.00">yield_single_year_or_month(timeframe, start_yearmonth)</text>
<text text-anchor="start" x="3077.5" y="-90.8" font-family="Times,serif" font-size="14.00">yield_start_year(timeframe, year, start_month)</text>
<text text-anchor="start" x="3077.5" y="-75.8" font-family="Times,serif" font-size="14.00">yield_year(timeframe, year)</text>
</g>
<!-- histdatacom.urls._URLs&#45;&gt;histdatacom.histdata_com._HistDataCom -->
<g id="edge5" class="edge">
<title>histdatacom.urls._URLs&#45;&gt;histdatacom.histdata_com._HistDataCom</title>
<path fill="none" stroke="black" d="M3164.85,-422.01C3130.34,-445.83 3094.7,-469.21 3060,-490 2941.55,-560.99 2794.92,-628.03 2709.67,-665.11"/>
<polygon fill="black" stroke="black" points="2709.58,-665.15 2705.66,-671.2 2698.57,-669.92 2702.48,-663.86 2709.58,-665.15"/>
<text text-anchor="middle" x="3038.5" y="-511.8" font-family="Times,serif" font-size="14.00" fill="green">urls</text>
</g>
</g>
</svg>
