<?xml version="1.0" encoding="UTF-8" standalone="no"?>
<!DOCTYPE svg PUBLIC "-//W3C//DTD SVG 1.1//EN"
 "http://www.w3.org/Graphics/SVG/1.1/DTD/svg11.dtd">
<!-- Generated by graphviz version 7.0.1 (20221109.1506)
 -->
<!-- Title: packages Pages: 1 -->
<svg width="1080pt" height="692pt"
 viewBox="0.00 0.00 1079.50 692.00" xmlns="http://www.w3.org/2000/svg" xmlns:xlink="http://www.w3.org/1999/xlink">
<g id="graph0" class="graph" transform="scale(1 1) rotate(0) translate(4 688)">
<title>packages</title>
<polygon fill="white" stroke="none" points="-4,4 -4,-688 1075.5,-688 1075.5,4 -4,4"/>
<!-- histdatacom -->
<g id="node1" class="node">
<title>histdatacom</title>
<polygon fill="none" stroke="black" points="868.5,-540 785.5,-540 785.5,-504 868.5,-504 868.5,-540"/>
<text text-anchor="middle" x="827" y="-518.3" font-family="Times,serif" font-size="14.00">histdatacom</text>
</g>
<!-- histdatacom.fx_enums -->
<g id="node9" class="node">
<title>histdatacom.fx_enums</title>
<polygon fill="none" stroke="black" points="894,-684 754,-684 754,-648 894,-648 894,-684"/>
<text text-anchor="middle" x="824" y="-662.3" font-family="Times,serif" font-size="14.00">histdatacom.fx_enums</text>
</g>
<!-- histdatacom&#45;&gt;histdatacom.fx_enums -->
<g id="edge1" class="edge">
<title>histdatacom&#45;&gt;histdatacom.fx_enums</title>
<path fill="none" stroke="black" d="M826.63,-540.41C826.12,-564.82 825.17,-609.42 824.57,-638.11"/>
<polygon fill="black" stroke="black" points="824.36,-647.89 820.07,-637.8 824.47,-642.89 824.57,-637.89 824.57,-637.89 824.57,-637.89 824.47,-642.89 829.07,-637.99 824.36,-647.89 824.36,-647.89"/>
</g>
<!-- histdatacom.options -->
<g id="node12" class="node">
<title>histdatacom.options</title>
<polygon fill="none" stroke="black" points="978,-612 852,-612 852,-576 978,-576 978,-612"/>
<text text-anchor="middle" x="915" y="-590.3" font-family="Times,serif" font-size="14.00">histdatacom.options</text>
</g>
<!-- histdatacom&#45;&gt;histdatacom.options -->
<g id="edge2" class="edge">
<title>histdatacom&#45;&gt;histdatacom.options</title>
<path fill="none" stroke="black" d="M848.75,-540.3C859.86,-549.14 873.53,-560.01 885.56,-569.59"/>
<polygon fill="black" stroke="black" points="893.19,-575.65 882.57,-572.95 889.28,-572.54 885.37,-569.43 885.37,-569.43 885.37,-569.43 889.28,-572.54 888.17,-565.91 893.19,-575.65 893.19,-575.65"/>
</g>
<!-- histdatacom.__main__ -->
<g id="node2" class="node">
<title>histdatacom.__main__</title>
<polygon fill="none" stroke="black" points="765.5,-36 624.5,-36 624.5,0 765.5,0 765.5,-36"/>
<text text-anchor="middle" x="695" y="-14.3" font-family="Times,serif" font-size="14.00">histdatacom.__main__</text>
</g>
<!-- histdatacom.api -->
<g id="node3" class="node">
<title>histdatacom.api</title>
<polygon fill="none" stroke="black" points="686.5,-324 583.5,-324 583.5,-288 686.5,-288 686.5,-324"/>
<text text-anchor="middle" x="635" y="-302.3" font-family="Times,serif" font-size="14.00">histdatacom.api</text>
</g>
<!-- histdatacom.api&#45;&gt;histdatacom -->
<g id="edge3" class="edge">
<title>histdatacom.api&#45;&gt;histdatacom</title>
<path fill="none" stroke="black" d="M686.82,-316.93C714.12,-324.57 746.34,-337.73 768,-360 787.04,-379.58 809.09,-453.77 820.06,-494.26"/>
<polygon fill="black" stroke="black" points="822.6,-503.77 815.67,-495.27 821.31,-498.94 820.02,-494.11 820.02,-494.11 820.02,-494.11 821.31,-498.94 824.36,-492.94 822.6,-503.77 822.6,-503.77"/>
</g>
<!-- histdatacom.concurrency -->
<g id="node5" class="node">
<title>histdatacom.concurrency</title>
<polygon fill="none" stroke="black" points="632.5,-108 479.5,-108 479.5,-72 632.5,-72 632.5,-108"/>
<text text-anchor="middle" x="556" y="-86.3" font-family="Times,serif" font-size="14.00">histdatacom.concurrency</text>
</g>
<!-- histdatacom.api&#45;&gt;histdatacom.concurrency -->
<g id="edge4" class="edge">
<title>histdatacom.api&#45;&gt;histdatacom.concurrency</title>
<path fill="none" stroke="black" d="M631.68,-287.53C625.58,-257.37 611.16,-193.95 589,-144 584.89,-134.73 579.38,-125.17 574.04,-116.75"/>
<polygon fill="black" stroke="black" points="568.6,-108.46 577.85,-114.36 571.34,-112.64 574.09,-116.83 574.09,-116.83 574.09,-116.83 571.34,-112.64 570.32,-119.29 568.6,-108.46 568.6,-108.46"/>
</g>
<!-- histdatacom.config -->
<g id="node6" class="node">
<title>histdatacom.config</title>
<polygon fill="none" stroke="black" points="446.5,-540 325.5,-540 325.5,-504 446.5,-504 446.5,-540"/>
<text text-anchor="middle" x="386" y="-518.3" font-family="Times,serif" font-size="14.00">histdatacom.config</text>
</g>
<!-- histdatacom.api&#45;&gt;histdatacom.config -->
<g id="edge5" class="edge">
<title>histdatacom.api&#45;&gt;histdatacom.config</title>
<path fill="none" stroke="black" d="M603.45,-324.45C543.19,-357.84 417.37,-427.83 414,-432 399.64,-449.74 392.61,-474.92 389.18,-493.97"/>
<polygon fill="black" stroke="black" points="387.63,-503.83 384.74,-493.25 388.41,-498.89 389.18,-493.95 389.18,-493.95 389.18,-493.95 388.41,-498.89 393.63,-494.65 387.63,-503.83 387.63,-503.83"/>
</g>
<!-- histdatacom.records -->
<g id="node13" class="node">
<title>histdatacom.records</title>
<polygon fill="none" stroke="black" points="479,-612 353,-612 353,-576 479,-576 479,-612"/>
<text text-anchor="middle" x="416" y="-590.3" font-family="Times,serif" font-size="14.00">histdatacom.records</text>
</g>
<!-- histdatacom.api&#45;&gt;histdatacom.records -->
<g id="edge6" class="edge">
<title>histdatacom.api&#45;&gt;histdatacom.records</title>
<path fill="none" stroke="black" d="M685.58,-324.28C701.72,-332.46 717.78,-344.04 727,-360 735.01,-373.85 733.2,-381.25 727,-396 691.57,-480.31 658.26,-492.68 580,-540 552.16,-556.83 518.38,-568.93 488.73,-577.27"/>
<polygon fill="black" stroke="black" points="479.27,-579.85 487.73,-572.88 484.09,-578.54 488.92,-577.23 488.92,-577.23 488.92,-577.23 484.09,-578.54 490.1,-581.57 479.27,-579.85 479.27,-579.85"/>
</g>
<!-- histdatacom.scraper.scraper -->
<g id="node16" class="node">
<title>histdatacom.scraper.scraper</title>
<polygon fill="none" stroke="black" points="718.5,-396 551.5,-396 551.5,-360 718.5,-360 718.5,-396"/>
<text text-anchor="middle" x="635" y="-374.3" font-family="Times,serif" font-size="14.00">histdatacom.scraper.scraper</text>
</g>
<!-- histdatacom.api&#45;&gt;histdatacom.scraper.scraper -->
<g id="edge7" class="edge">
<title>histdatacom.api&#45;&gt;histdatacom.scraper.scraper</title>
<path fill="none" stroke="black" d="M635,-324.3C635,-332.1 635,-341.49 635,-350.17"/>
<polygon fill="black" stroke="black" points="635,-359.9 630.5,-349.9 635,-354.9 635,-349.9 635,-349.9 635,-349.9 635,-354.9 639.5,-349.9 635,-359.9 635,-359.9"/>
</g>
<!-- histdatacom.cli -->
<g id="node4" class="node">
<title>histdatacom.cli</title>
<polygon fill="none" stroke="black" points="606,-36 506,-36 506,0 606,0 606,-36"/>
<text text-anchor="middle" x="556" y="-14.3" font-family="Times,serif" font-size="14.00">histdatacom.cli</text>
</g>
<!-- histdatacom.cli&#45;&gt;histdatacom -->
<g id="edge8" class="edge">
<title>histdatacom.cli&#45;&gt;histdatacom</title>
<path fill="none" stroke="black" d="M606.33,-34.7C711.31,-67.82 944,-143.22 944,-161 944,-161 944,-161 944,-379 944,-430.31 897.94,-473.13 863.62,-497.92"/>
<polygon fill="black" stroke="black" points="855.62,-503.53 861.22,-494.1 859.72,-500.66 863.81,-497.79 863.81,-497.79 863.81,-497.79 859.72,-500.66 866.39,-501.47 855.62,-503.53 855.62,-503.53"/>
</g>
<!-- histdatacom.cli&#45;&gt;histdatacom.concurrency -->
<g id="edge9" class="edge">
<title>histdatacom.cli&#45;&gt;histdatacom.concurrency</title>
<path fill="none" stroke="black" d="M556,-36.3C556,-44.1 556,-53.49 556,-62.17"/>
<polygon fill="black" stroke="black" points="556,-71.9 551.5,-61.9 556,-66.9 556,-61.9 556,-61.9 556,-61.9 556,-66.9 560.5,-61.9 556,-71.9 556,-71.9"/>
</g>
<!-- histdatacom.cli&#45;&gt;histdatacom.fx_enums -->
<g id="edge10" class="edge">
<title>histdatacom.cli&#45;&gt;histdatacom.fx_enums</title>
<path fill="none" stroke="black" d="M606.46,-33.81C609.35,-34.57 612.21,-35.31 615,-36 797.82,-81.41 1020,27.38 1020,-161 1020,-161 1020,-161 1020,-523 1020,-565.19 1017.43,-582.78 987,-612 964.44,-633.66 932.92,-646.47 903.6,-654.05"/>
<polygon fill="black" stroke="black" points="894.18,-656.33 902.84,-649.6 899.04,-655.15 903.9,-653.98 903.9,-653.98 903.9,-653.98 899.04,-655.15 904.95,-658.35 894.18,-656.33 894.18,-656.33"/>
</g>
<!-- histdatacom.utils -->
<g id="node18" class="node">
<title>histdatacom.utils</title>
<polygon fill="none" stroke="black" points="471,-684 361,-684 361,-648 471,-648 471,-684"/>
<text text-anchor="middle" x="416" y="-662.3" font-family="Times,serif" font-size="14.00">histdatacom.utils</text>
</g>
<!-- histdatacom.cli&#45;&gt;histdatacom.utils -->
<g id="edge11" class="edge">
<title>histdatacom.cli&#45;&gt;histdatacom.utils</title>
<path fill="none" stroke="black" d="M505.68,-21.13C368.81,-28.26 0,-57.14 0,-161 0,-161 0,-161 0,-523 0,-596.3 234.24,-639.55 351.18,-656.58"/>
<polygon fill="black" stroke="black" points="360.76,-657.95 350.22,-660.98 355.81,-657.24 350.86,-656.53 350.86,-656.53 350.86,-656.53 355.81,-657.24 351.5,-652.07 360.76,-657.95 360.76,-657.95"/>
</g>
<!-- histdatacom.concurrency&#45;&gt;histdatacom -->
<g id="edge12" class="edge">
<title>histdatacom.concurrency&#45;&gt;histdatacom</title>
<path fill="none" stroke="black" d="M632.81,-106.07C735.84,-128.53 906,-174.47 906,-233 906,-233 906,-233 906,-379 906,-424.96 874,-469.93 850.74,-496.56"/>
<polygon fill="black" stroke="black" points="844.14,-503.89 847.48,-493.45 847.49,-500.18 850.83,-496.46 850.83,-496.46 850.83,-496.46 847.49,-500.18 854.18,-499.47 844.14,-503.89 844.14,-503.89"/>
</g>
<!-- histdatacom.concurrency&#45;&gt;histdatacom.config -->
<g id="edge13" class="edge">
<title>histdatacom.concurrency&#45;&gt;histdatacom.config</title>
<path fill="none" stroke="black" d="M479.01,-99.7C352.37,-116.17 114,-157.24 114,-233 114,-233 114,-233 114,-307 114,-385.38 126.28,-417.22 186,-468 221.85,-498.48 273.38,-511.65 315.15,-517.23"/>
<polygon fill="black" stroke="black" points="325,-518.44 314.53,-521.69 320.04,-517.83 315.07,-517.22 315.07,-517.22 315.07,-517.22 320.04,-517.83 315.62,-512.76 325,-518.44 325,-518.44"/>
</g>
<!-- histdatacom.histdata_com -->
<g id="node10" class="node">
<title>histdatacom.histdata_com</title>
<polygon fill="none" stroke="black" points="508.5,-180 349.5,-180 349.5,-144 508.5,-144 508.5,-180"/>
<text text-anchor="middle" x="429" y="-158.3" font-family="Times,serif" font-size="14.00">histdatacom.histdata_com</text>
</g>
<!-- histdatacom.concurrency&#45;&gt;histdatacom.histdata_com -->
<g id="edge14" class="edge">
<title>histdatacom.concurrency&#45;&gt;histdatacom.histdata_com</title>
<path fill="none" stroke="black" d="M518.35,-108.48C500.77,-117.66 480.07,-128.99 462.98,-138.78"/>
<polygon fill="black" stroke="black" points="454.4,-143.74 460.81,-134.84 458.73,-141.24 463.06,-138.73 463.06,-138.73 463.06,-138.73 458.73,-141.24 465.31,-142.63 454.4,-143.74 454.4,-143.74"/>
</g>
<!-- histdatacom.concurrency&#45;&gt;histdatacom.options -->
<g id="edge15" class="edge">
<title>histdatacom.concurrency&#45;&gt;histdatacom.options</title>
<path fill="none" stroke="black" d="M632.65,-100.57C755.3,-118.05 982,-160.21 982,-233 982,-233 982,-233 982,-451 982,-495.47 954.8,-540.92 935.06,-568.05"/>
<polygon fill="black" stroke="black" points="929.21,-575.86 931.6,-565.16 932.21,-571.86 935.2,-567.85 935.2,-567.85 935.2,-567.85 932.21,-571.86 938.81,-570.55 929.21,-575.86 929.21,-575.86"/>
</g>
<!-- histdatacom.concurrency&#45;&gt;histdatacom.records -->
<g id="edge16" class="edge">
<title>histdatacom.concurrency&#45;&gt;histdatacom.records</title>
<path fill="none" stroke="black" d="M479.2,-94.87C379.14,-100.98 210.53,-115.25 156,-144 108.95,-168.8 76,-179.81 76,-233 76,-233 76,-233 76,-451 76,-508.42 243.2,-555.14 343.1,-577.93"/>
<polygon fill="black" stroke="black" points="352.85,-580.12 342.1,-582.31 347.97,-579.02 343.09,-577.92 343.09,-577.92 343.09,-577.92 347.97,-579.02 344.08,-573.53 352.85,-580.12 352.85,-580.12"/>
</g>
<!-- histdatacom.config&#45;&gt;histdatacom.records -->
<g id="edge17" class="edge">
<title>histdatacom.config&#45;&gt;histdatacom.records</title>
<path fill="none" stroke="black" d="M393.42,-540.3C396.83,-548.27 400.96,-557.9 404.74,-566.74"/>
<polygon fill="black" stroke="black" points="408.67,-575.9 400.59,-568.48 406.7,-571.3 404.73,-566.7 404.73,-566.7 404.73,-566.7 406.7,-571.3 408.87,-564.93 408.67,-575.9 408.67,-575.9"/>
</g>
<!-- histdatacom.csvs -->
<g id="node7" class="node">
<title>histdatacom.csvs</title>
<polygon fill="none" stroke="black" points="328,-468 218,-468 218,-432 328,-432 328,-468"/>
<text text-anchor="middle" x="273" y="-446.3" font-family="Times,serif" font-size="14.00">histdatacom.csvs</text>
</g>
<!-- histdatacom.csvs&#45;&gt;histdatacom -->
<g id="edge18" class="edge">
<title>histdatacom.csvs&#45;&gt;histdatacom</title>
<path fill="none" stroke="black" d="M328.4,-458C435.92,-471.59 671.44,-501.34 775.65,-514.51"/>
<polygon fill="black" stroke="black" points="785.32,-515.73 774.83,-518.94 780.35,-515.11 775.39,-514.48 775.39,-514.48 775.39,-514.48 780.35,-515.11 775.96,-510.01 785.32,-515.73 785.32,-515.73"/>
</g>
<!-- histdatacom.csvs&#45;&gt;histdatacom.concurrency -->
<g id="edge19" class="edge">
<title>histdatacom.csvs&#45;&gt;histdatacom.concurrency</title>
<path fill="none" stroke="black" d="M321.54,-431.6C388.21,-404.76 505.5,-346.25 555,-252 577.38,-209.39 570.11,-151.26 562.94,-117.77"/>
<polygon fill="black" stroke="black" points="560.76,-108.21 567.38,-116.96 561.87,-113.08 562.99,-117.96 562.99,-117.96 562.99,-117.96 561.87,-113.08 558.6,-118.96 560.76,-108.21 560.76,-108.21"/>
</g>
<!-- histdatacom.csvs&#45;&gt;histdatacom.config -->
<g id="edge20" class="edge">
<title>histdatacom.csvs&#45;&gt;histdatacom.config</title>
<path fill="none" stroke="black" d="M301.22,-468.48C315.89,-477.57 333.99,-488.78 349.7,-498.51"/>
<polygon fill="black" stroke="black" points="358.14,-503.74 347.27,-502.3 353.89,-501.11 349.64,-498.47 349.64,-498.47 349.64,-498.47 353.89,-501.11 352.01,-494.65 358.14,-503.74 358.14,-503.74"/>
</g>
<!-- histdatacom.csvs&#45;&gt;histdatacom.records -->
<g id="edge21" class="edge">
<title>histdatacom.csvs&#45;&gt;histdatacom.records</title>
<path fill="none" stroke="black" d="M277.77,-468.31C283.88,-487.78 296.12,-519.36 316,-540 328.36,-552.83 344.52,-563.23 360.23,-571.3"/>
<polygon fill="black" stroke="black" points="368.88,-575.54 357.92,-575.18 364.4,-573.34 359.91,-571.14 359.91,-571.14 359.91,-571.14 364.4,-573.34 361.89,-567.1 368.88,-575.54 368.88,-575.54"/>
</g>
<!-- histdatacom.exceptions -->
<g id="node8" class="node">
<title>histdatacom.exceptions</title>
<polygon fill="none" stroke="black" points="928,-36 784,-36 784,0 928,0 928,-36"/>
<text text-anchor="middle" x="856" y="-14.3" font-family="Times,serif" font-size="14.00">histdatacom.exceptions</text>
</g>
<!-- histdatacom.histdata_com&#45;&gt;histdatacom -->
<g id="edge22" class="edge">
<title>histdatacom.histdata_com&#45;&gt;histdatacom</title>
<path fill="none" stroke="black" d="M499.26,-180.46C566.55,-199.47 668.84,-234.5 745,-288 807.34,-331.79 826.74,-356.65 838,-432 841.1,-452.72 837.9,-476.26 834.16,-493.92"/>
<polygon fill="black" stroke="black" points="831.95,-503.57 829.8,-492.82 833.07,-498.7 834.19,-493.82 834.19,-493.82 834.19,-493.82 833.07,-498.7 838.57,-494.83 831.95,-503.57 831.95,-503.57"/>
</g>
<!-- histdatacom.histdata_com&#45;&gt;histdatacom.api -->
<g id="edge23" class="edge">
<title>histdatacom.histdata_com&#45;&gt;histdatacom.api</title>
<path fill="none" stroke="black" d="M484.76,-180.4C507.71,-189.06 533.83,-200.94 555,-216 579.74,-233.6 602.3,-260.11 617.11,-279.61"/>
<polygon fill="black" stroke="black" points="622.97,-287.5 613.39,-282.16 619.99,-283.49 617,-279.47 617,-279.47 617,-279.47 619.99,-283.49 620.62,-276.79 622.97,-287.5 622.97,-287.5"/>
</g>
<!-- histdatacom.histdata_com&#45;&gt;histdatacom.cli -->
<g id="edge24" class="edge">
<title>histdatacom.histdata_com&#45;&gt;histdatacom.cli</title>
<path fill="none" stroke="black" d="M433.69,-143.57C439.59,-124.28 451.27,-93.14 470,-72 480.79,-59.83 495.05,-49.52 508.85,-41.32"/>
<polygon fill="black" stroke="black" points="517.35,-36.49 510.87,-45.34 513,-38.96 508.65,-41.43 508.65,-41.43 508.65,-41.43 513,-38.96 506.43,-37.52 517.35,-36.49 517.35,-36.49"/>
</g>
<!-- histdatacom.histdata_com&#45;&gt;histdatacom.concurrency -->
<g id="edge25" class="edge">
<title>histdatacom.histdata_com&#45;&gt;histdatacom.concurrency</title>
<path fill="none" stroke="black" d="M466.23,-143.74C483.75,-134.6 504.45,-123.27 521.6,-113.46"/>
<polygon fill="black" stroke="black" points="530.21,-108.48 523.81,-117.38 525.88,-110.98 521.56,-113.49 521.56,-113.49 521.56,-113.49 525.88,-110.98 519.3,-109.59 530.21,-108.48 530.21,-108.48"/>
</g>
<!-- histdatacom.histdata_com&#45;&gt;histdatacom.config -->
<g id="edge26" class="edge">
<title>histdatacom.histdata_com&#45;&gt;histdatacom.config</title>
<path fill="none" stroke="black" d="M349.08,-176.37C279.61,-193.1 190,-229.35 190,-305 190,-305 190,-305 190,-379 190,-419.45 181.58,-438.27 209,-468 236.15,-497.44 278.92,-510.77 315.61,-516.7"/>
<polygon fill="black" stroke="black" points="325.28,-518.12 314.74,-521.12 320.34,-517.39 315.39,-516.67 315.39,-516.67 315.39,-516.67 320.34,-517.39 316.04,-512.21 325.28,-518.12 325.28,-518.12"/>
</g>
<!-- histdatacom.histdata_com&#45;&gt;histdatacom.csvs -->
<g id="edge27" class="edge">
<title>histdatacom.histdata_com&#45;&gt;histdatacom.csvs</title>
<path fill="none" stroke="black" d="M419.48,-180.46C392.98,-229.04 318.29,-365.98 287.03,-423.28"/>
<polygon fill="black" stroke="black" points="282.4,-431.77 283.24,-420.83 284.79,-427.38 287.19,-422.99 287.19,-422.99 287.19,-422.99 284.79,-427.38 291.14,-425.14 282.4,-431.77 282.4,-431.77"/>
</g>
<!-- histdatacom.influx -->
<g id="node11" class="node">
<title>histdatacom.influx</title>
<polygon fill="none" stroke="black" points="546.5,-252 427.5,-252 427.5,-216 546.5,-216 546.5,-252"/>
<text text-anchor="middle" x="487" y="-230.3" font-family="Times,serif" font-size="14.00">histdatacom.influx</text>
</g>
<!-- histdatacom.histdata_com&#45;&gt;histdatacom.influx -->
<g id="edge28" class="edge">
<title>histdatacom.histdata_com&#45;&gt;histdatacom.influx</title>
<path fill="none" stroke="black" d="M443.34,-180.3C450.36,-188.78 458.94,-199.14 466.63,-208.42"/>
<polygon fill="black" stroke="black" points="472.83,-215.9 462.98,-211.07 469.64,-212.05 466.45,-208.2 466.45,-208.2 466.45,-208.2 469.64,-212.05 469.91,-205.32 472.83,-215.9 472.83,-215.9"/>
</g>
<!-- histdatacom.scraper.repo -->
<g id="node15" class="node">
<title>histdatacom.scraper.repo</title>
<polygon fill="none" stroke="black" points="612,-468 460,-468 460,-432 612,-432 612,-468"/>
<text text-anchor="middle" x="536" y="-446.3" font-family="Times,serif" font-size="14.00">histdatacom.scraper.repo</text>
</g>
<!-- histdatacom.histdata_com&#45;&gt;histdatacom.scraper.repo -->
<g id="edge29" class="edge">
<title>histdatacom.histdata_com&#45;&gt;histdatacom.scraper.repo</title>
<path fill="none" stroke="black" d="M420.28,-180.17C415.63,-190.31 410.38,-203.56 408,-216 405,-231.72 404.32,-236.43 408,-252 424.62,-322.41 479.66,-389.83 511.9,-424.6"/>
<polygon fill="black" stroke="black" points="518.41,-431.51 508.28,-427.31 514.99,-427.87 511.56,-424.23 511.56,-424.23 511.56,-424.23 514.99,-427.87 514.83,-421.14 518.41,-431.51 518.41,-431.51"/>
</g>
<!-- histdatacom.histdata_com&#45;&gt;histdatacom.scraper.scraper -->
<g id="edge30" class="edge">
<title>histdatacom.histdata_com&#45;&gt;histdatacom.scraper.scraper</title>
<path fill="none" stroke="black" d="M420.95,-180.31C413.43,-199.22 405.14,-229.76 418,-252 448.77,-305.24 511.79,-337.81 562.02,-356.3"/>
<polygon fill="black" stroke="black" points="571.24,-359.58 560.31,-360.46 566.53,-357.9 561.82,-356.22 561.82,-356.22 561.82,-356.22 566.53,-357.9 563.33,-351.99 571.24,-359.58 571.24,-359.58"/>
</g>
<!-- histdatacom.histdata_com&#45;&gt;histdatacom.utils -->
<g id="edge31" class="edge">
<title>histdatacom.histdata_com&#45;&gt;histdatacom.utils</title>
<path fill="none" stroke="black" d="M349.13,-173.49C294.15,-182.27 227.49,-196.5 207,-216 159.58,-261.13 180.51,-294.69 176,-360 170.34,-441.95 168.56,-474.39 218,-540 254.73,-588.75 316.49,-623.32 361.29,-643.57"/>
<polygon fill="black" stroke="black" points="370.29,-647.55 359.32,-647.62 365.71,-645.53 361.14,-643.5 361.14,-643.5 361.14,-643.5 365.71,-645.53 362.96,-639.39 370.29,-647.55 370.29,-647.55"/>
</g>
<!-- histdatacom.influx&#45;&gt;histdatacom -->
<g id="edge32" class="edge">
<title>histdatacom.influx&#45;&gt;histdatacom</title>
<path fill="none" stroke="black" d="M546.87,-241.03C618.13,-251.69 734.67,-280.87 792,-360 821.05,-400.09 826.82,-459.57 827.51,-493.9"/>
<polygon fill="black" stroke="black" points="827.58,-503.69 823,-493.72 827.54,-498.69 827.5,-493.69 827.5,-493.69 827.5,-493.69 827.54,-498.69 832,-493.66 827.58,-503.69 827.58,-503.69"/>
</g>
<!-- histdatacom.influx&#45;&gt;histdatacom.api -->
<g id="edge33" class="edge">
<title>histdatacom.influx&#45;&gt;histdatacom.api</title>
<path fill="none" stroke="black" d="M523.96,-252.48C543.82,-261.87 568.46,-273.53 589.49,-283.47"/>
<polygon fill="black" stroke="black" points="598.25,-287.62 587.29,-287.41 593.73,-285.48 589.21,-283.34 589.21,-283.34 589.21,-283.34 593.73,-285.48 591.13,-279.27 598.25,-287.62 598.25,-287.62"/>
</g>
<!-- histdatacom.influx&#45;&gt;histdatacom.concurrency -->
<g id="edge34" class="edge">
<title>histdatacom.influx&#45;&gt;histdatacom.concurrency</title>
<path fill="none" stroke="black" d="M497.46,-215.58C503.44,-205.35 510.94,-192.1 517,-180 527.32,-159.38 537.74,-135.41 545.21,-117.54"/>
<polygon fill="black" stroke="black" points="549.03,-108.3 549.36,-119.26 547.12,-112.92 545.21,-117.54 545.21,-117.54 545.21,-117.54 547.12,-112.92 541.05,-115.82 549.03,-108.3 549.03,-108.3"/>
</g>
<!-- histdatacom.influx&#45;&gt;histdatacom.config -->
<g id="edge35" class="edge">
<title>histdatacom.influx&#45;&gt;histdatacom.config</title>
<path fill="none" stroke="black" d="M475.81,-252.31C454.98,-285.55 410.67,-361.33 392,-432 386.64,-452.28 385.27,-476.01 385.17,-493.86"/>
<polygon fill="black" stroke="black" points="385.24,-503.62 380.67,-493.66 385.21,-498.62 385.17,-493.62 385.17,-493.62 385.17,-493.62 385.21,-498.62 389.67,-493.59 385.24,-503.62 385.24,-503.62"/>
</g>
<!-- histdatacom.influx&#45;&gt;histdatacom.records -->
<g id="edge36" class="edge">
<title>histdatacom.influx&#45;&gt;histdatacom.records</title>
<path fill="none" stroke="black" d="M439.32,-252.44C373.52,-279.43 257.49,-338.2 209,-432 174.16,-499.39 272.37,-547.26 345.18,-572.47"/>
<polygon fill="black" stroke="black" points="354.38,-575.58 343.46,-576.64 349.64,-573.98 344.9,-572.38 344.9,-572.38 344.9,-572.38 349.64,-573.98 346.35,-568.11 354.38,-575.58 354.38,-575.58"/>
</g>
<!-- histdatacom.options&#45;&gt;histdatacom.fx_enums -->
<g id="edge37" class="edge">
<title>histdatacom.options&#45;&gt;histdatacom.fx_enums</title>
<path fill="none" stroke="black" d="M892.51,-612.3C881.02,-621.14 866.88,-632.01 854.44,-641.59"/>
<polygon fill="black" stroke="black" points="846.55,-647.65 851.73,-637.99 850.51,-644.6 854.48,-641.56 854.48,-641.56 854.48,-641.56 850.51,-644.6 857.22,-645.12 846.55,-647.65 846.55,-647.65"/>
</g>
<!-- histdatacom.records&#45;&gt;histdatacom.fx_enums -->
<g id="edge38" class="edge">
<title>histdatacom.records&#45;&gt;histdatacom.fx_enums</title>
<path fill="none" stroke="black" d="M479.3,-605.86C550.57,-618.09 666.49,-637.98 743.97,-651.27"/>
<polygon fill="black" stroke="black" points="753.7,-652.94 743.08,-655.68 748.77,-652.09 743.84,-651.25 743.84,-651.25 743.84,-651.25 748.77,-652.09 744.6,-646.81 753.7,-652.94 753.7,-652.94"/>
</g>
<!-- histdatacom.records&#45;&gt;histdatacom.utils -->
<g id="edge39" class="edge">
<title>histdatacom.records&#45;&gt;histdatacom.utils</title>
<path fill="none" stroke="black" d="M416,-612.3C416,-620.1 416,-629.49 416,-638.17"/>
<polygon fill="black" stroke="black" points="416,-647.9 411.5,-637.9 416,-642.9 416,-637.9 416,-637.9 416,-637.9 416,-642.9 420.5,-637.9 416,-647.9 416,-647.9"/>
</g>
<!-- histdatacom.scraper -->
<g id="node14" class="node">
<title>histdatacom.scraper</title>
<polygon fill="none" stroke="black" points="1071.5,-36 946.5,-36 946.5,0 1071.5,0 1071.5,-36"/>
<text text-anchor="middle" x="1009" y="-14.3" font-family="Times,serif" font-size="14.00">histdatacom.scraper</text>
</g>
<!-- histdatacom.scraper.repo&#45;&gt;histdatacom -->
<g id="edge40" class="edge">
<title>histdatacom.scraper.repo&#45;&gt;histdatacom</title>
<path fill="none" stroke="black" d="M608.68,-468.48C660.7,-481 729.46,-497.54 775.8,-508.68"/>
<polygon fill="black" stroke="black" points="785.33,-510.98 774.55,-513.01 780.47,-509.81 775.61,-508.64 775.61,-508.64 775.61,-508.64 780.47,-509.81 776.66,-504.26 785.33,-510.98 785.33,-510.98"/>
</g>
<!-- histdatacom.scraper.repo&#45;&gt;histdatacom.config -->
<g id="edge41" class="edge">
<title>histdatacom.scraper.repo&#45;&gt;histdatacom.config</title>
<path fill="none" stroke="black" d="M498.54,-468.48C478.41,-477.87 453.44,-489.53 432.13,-499.47"/>
<polygon fill="black" stroke="black" points="423.25,-503.62 430.41,-495.31 427.78,-501.5 432.31,-499.39 432.31,-499.39 432.31,-499.39 427.78,-501.5 434.21,-503.47 423.25,-503.62 423.25,-503.62"/>
</g>
<!-- histdatacom.scraper.repo&#45;&gt;histdatacom.records -->
<g id="edge42" class="edge">
<title>histdatacom.scraper.repo&#45;&gt;histdatacom.records</title>
<path fill="none" stroke="black" d="M521.29,-468.41C500.12,-493.46 460.98,-539.78 436.84,-568.34"/>
<polygon fill="black" stroke="black" points="430.46,-575.89 433.48,-565.35 433.69,-572.07 436.91,-568.25 436.91,-568.25 436.91,-568.25 433.69,-572.07 440.35,-571.16 430.46,-575.89 430.46,-575.89"/>
</g>
<!-- histdatacom.scraper.repo&#45;&gt;histdatacom.scraper.scraper -->
<g id="edge43" class="edge">
<title>histdatacom.scraper.repo&#45;&gt;histdatacom.scraper.scraper</title>
<path fill="none" stroke="black" d="M566.45,-431.65C579.99,-422.73 595.71,-411.73 608.73,-402.09"/>
<polygon fill="black" stroke="black" points="616.44,-396.3 611.15,-405.91 612.44,-399.3 608.45,-402.31 608.45,-402.31 608.45,-402.31 612.44,-399.3 605.74,-398.71 616.44,-396.3 616.44,-396.3"/>
</g>
<!-- histdatacom.scraper.repo&#45;&gt;histdatacom.utils -->
<g id="edge44" class="edge">
<title>histdatacom.scraper.repo&#45;&gt;histdatacom.utils</title>
<path fill="none" stroke="black" d="M534.49,-468.05C531,-499.24 520.05,-566.43 488,-612 479.73,-623.76 468.02,-633.95 456.44,-642.16"/>
<polygon fill="black" stroke="black" points="448.49,-647.53 454.26,-638.2 452.63,-644.73 456.78,-641.93 456.78,-641.93 456.78,-641.93 452.63,-644.73 459.29,-645.66 448.49,-647.53 448.49,-647.53"/>
</g>
<!-- histdatacom.scraper.scraper&#45;&gt;histdatacom -->
<g id="edge45" class="edge">
<title>histdatacom.scraper.scraper&#45;&gt;histdatacom</title>
<path fill="none" stroke="black" d="M658.54,-396.41C693.04,-421.92 757.38,-469.51 795.78,-497.91"/>
<polygon fill="black" stroke="black" points="803.57,-503.67 792.85,-501.34 799.55,-500.69 795.53,-497.72 795.53,-497.72 795.53,-497.72 799.55,-500.69 798.2,-494.1 803.57,-503.67 803.57,-503.67"/>
</g>
<!-- histdatacom.scraper.scraper&#45;&gt;histdatacom.concurrency -->
<g id="edge46" class="edge">
<title>histdatacom.scraper.scraper&#45;&gt;histdatacom.concurrency</title>
<path fill="none" stroke="black" d="M663.89,-359.5C675.88,-350.53 688.49,-338.44 695,-324 701.58,-309.41 699.22,-303.43 695,-288 675.42,-216.31 655.8,-202.53 610,-144 602.02,-133.8 592.17,-123.59 583.08,-114.89"/>
<polygon fill="black" stroke="black" points="576,-108.27 586.38,-111.82 579.65,-111.69 583.3,-115.1 583.3,-115.1 583.3,-115.1 579.65,-111.69 580.23,-118.39 576,-108.27 576,-108.27"/>
</g>
<!-- histdatacom.scraper.scraper&#45;&gt;histdatacom.config -->
<g id="edge47" class="edge">
<title>histdatacom.scraper.scraper&#45;&gt;histdatacom.config</title>
<path fill="none" stroke="black" d="M551.11,-391.03C517.77,-398.78 480.42,-411.43 451,-432 428.02,-448.07 410.05,-474.91 398.88,-494.92"/>
<polygon fill="black" stroke="black" points="394.24,-503.57 395,-492.63 396.6,-499.16 398.97,-494.76 398.97,-494.76 398.97,-494.76 396.6,-499.16 402.93,-496.89 394.24,-503.57 394.24,-503.57"/>
</g>
<!-- histdatacom.scraper.scraper&#45;&gt;histdatacom.records -->
<g id="edge48" class="edge">
<title>histdatacom.scraper.scraper&#45;&gt;histdatacom.records</title>
<path fill="none" stroke="black" d="M636.38,-396.26C637.04,-415.4 635.44,-446.42 621,-468 586.99,-518.83 524.63,-552.46 477.58,-571.9"/>
<polygon fill="black" stroke="black" points="468.39,-575.6 475.99,-567.69 473.03,-573.73 477.67,-571.87 477.67,-571.87 477.67,-571.87 473.03,-573.73 479.35,-576.04 468.39,-575.6 468.39,-575.6"/>
</g>
<!-- histdatacom.scraper.scraper&#45;&gt;histdatacom.scraper.repo -->
<g id="edge49" class="edge">
<title>histdatacom.scraper.scraper&#45;&gt;histdatacom.scraper.repo</title>
<path fill="none" stroke="black" d="M604.34,-396.48C590.82,-405.4 575.16,-416.37 562.19,-425.97"/>
<polygon fill="black" stroke="black" points="554.5,-431.74 559.8,-422.14 558.5,-428.74 562.5,-425.74 562.5,-425.74 562.5,-425.74 558.5,-428.74 565.2,-429.33 554.5,-431.74 554.5,-431.74"/>
</g>
<!-- histdatacom.scraper.urls -->
<g id="node17" class="node">
<title>histdatacom.scraper.urls</title>
<polygon fill="none" stroke="black" points="790.5,-612 641.5,-612 641.5,-576 790.5,-576 790.5,-612"/>
<text text-anchor="middle" x="716" y="-590.3" font-family="Times,serif" font-size="14.00">histdatacom.scraper.urls</text>
</g>
<!-- histdatacom.scraper.scraper&#45;&gt;histdatacom.scraper.urls -->
<g id="edge50" class="edge">
<title>histdatacom.scraper.scraper&#45;&gt;histdatacom.scraper.urls</title>
<path fill="none" stroke="black" d="M641.49,-396.15C655.59,-433.4 689.1,-521.93 705.95,-566.46"/>
<polygon fill="black" stroke="black" points="709.48,-575.77 701.73,-568.01 707.71,-571.09 705.94,-566.42 705.94,-566.42 705.94,-566.42 707.71,-571.09 710.15,-564.82 709.48,-575.77 709.48,-575.77"/>
</g>
<!-- histdatacom.scraper.urls&#45;&gt;histdatacom.fx_enums -->
<g id="edge51" class="edge">
<title>histdatacom.scraper.urls&#45;&gt;histdatacom.fx_enums</title>
<path fill="none" stroke="black" d="M742.97,-612.48C757,-621.57 774.3,-632.78 789.3,-642.51"/>
<polygon fill="black" stroke="black" points="797.37,-647.74 786.53,-646.08 793.17,-645.02 788.98,-642.3 788.98,-642.3 788.98,-642.3 793.17,-645.02 791.43,-638.52 797.37,-647.74 797.37,-647.74"/>
</g>
<!-- histdatacom.scraper.urls&#45;&gt;histdatacom.utils -->
<g id="edge52" class="edge">
<title>histdatacom.scraper.urls&#45;&gt;histdatacom.utils</title>
<path fill="none" stroke="black" d="M641.07,-612.48C591.71,-624 527.74,-638.93 480.62,-649.92"/>
<polygon fill="black" stroke="black" points="471.13,-652.14 479.85,-645.48 476,-651 480.87,-649.86 480.87,-649.86 480.87,-649.86 476,-651 481.89,-654.25 471.13,-652.14 471.13,-652.14"/>
</g>
</g>
</svg>
