<?xml version="1.0" encoding="UTF-8" standalone="no"?>
<!DOCTYPE svg PUBLIC "-//W3C//DTD SVG 1.1//EN"
 "http://www.w3.org/Graphics/SVG/1.1/DTD/svg11.dtd">
<!-- Generated by graphviz version 2.50.0 (20211204.2007)
 -->
<!-- Title: packages Pages: 1 -->
<svg width="700pt" height="476pt"
 viewBox="0.00 0.00 699.50 476.00" xmlns="http://www.w3.org/2000/svg" xmlns:xlink="http://www.w3.org/1999/xlink">
<g id="graph0" class="graph" transform="scale(1 1) rotate(0) translate(4 472)">
<title>packages</title>
<polygon fill="white" stroke="transparent" points="-4,4 -4,-472 695.5,-472 695.5,4 -4,4"/>
<!-- histdatacom -->
<g id="node1" class="node">
<title>histdatacom</title>
<polygon fill="none" stroke="black" points="83,-36 0,-36 0,0 83,0 83,-36"/>
<text text-anchor="middle" x="41.5" y="-14.3" font-family="Times,serif" font-size="14.00">histdatacom</text>
</g>
<!-- histdatacom.__main__ -->
<g id="node2" class="node">
<title>histdatacom.__main__</title>
<polygon fill="none" stroke="black" points="242,-36 101,-36 101,0 242,0 242,-36"/>
<text text-anchor="middle" x="171.5" y="-14.3" font-family="Times,serif" font-size="14.00">histdatacom.__main__</text>
</g>
<!-- histdatacom.api -->
<g id="node3" class="node">
<title>histdatacom.api</title>
<polygon fill="none" stroke="black" points="444,-180 341,-180 341,-144 444,-144 444,-180"/>
<text text-anchor="middle" x="392.5" y="-158.3" font-family="Times,serif" font-size="14.00">histdatacom.api</text>
</g>
<!-- histdatacom.concurrency -->
<g id="node5" class="node">
<title>histdatacom.concurrency</title>
<polygon fill="none" stroke="black" points="461,-324 308,-324 308,-288 461,-288 461,-324"/>
<text text-anchor="middle" x="384.5" y="-302.3" font-family="Times,serif" font-size="14.00">histdatacom.concurrency</text>
</g>
<!-- histdatacom.api&#45;&gt;histdatacom.concurrency -->
<g id="edge1" class="edge">
<title>histdatacom.api&#45;&gt;histdatacom.concurrency</title>
<path fill="none" stroke="black" d="M391.54,-180.13C390.17,-204.33 387.67,-248.79 386.04,-277.61"/>
<polygon fill="black" stroke="black" points="385.47,-287.81 381.54,-277.57 385.75,-282.82 386.03,-277.83 386.03,-277.83 386.03,-277.83 385.75,-282.82 390.52,-278.08 385.47,-287.81 385.47,-287.81"/>
</g>
<!-- histdatacom.urls -->
<g id="node12" class="node">
<title>histdatacom.urls</title>
<polygon fill="none" stroke="black" points="625,-252 518,-252 518,-216 625,-216 625,-252"/>
<text text-anchor="middle" x="571.5" y="-230.3" font-family="Times,serif" font-size="14.00">histdatacom.urls</text>
</g>
<!-- histdatacom.api&#45;&gt;histdatacom.urls -->
<g id="edge2" class="edge">
<title>histdatacom.api&#45;&gt;histdatacom.urls</title>
<path fill="none" stroke="black" d="M436.29,-180.12C461.08,-189.82 492.28,-202.02 518.46,-212.26"/>
<polygon fill="black" stroke="black" points="527.85,-215.93 516.9,-216.48 523.2,-214.11 518.54,-212.29 518.54,-212.29 518.54,-212.29 523.2,-214.11 520.18,-208.1 527.85,-215.93 527.85,-215.93"/>
</g>
<!-- histdatacom.cli -->
<g id="node4" class="node">
<title>histdatacom.cli</title>
<polygon fill="none" stroke="black" points="246.5,-252 146.5,-252 146.5,-216 246.5,-216 246.5,-252"/>
<text text-anchor="middle" x="196.5" y="-230.3" font-family="Times,serif" font-size="14.00">histdatacom.cli</text>
</g>
<!-- histdatacom.cli&#45;&gt;histdatacom.concurrency -->
<g id="edge3" class="edge">
<title>histdatacom.cli&#45;&gt;histdatacom.concurrency</title>
<path fill="none" stroke="black" d="M242.49,-252.12C268.65,-261.86 301.59,-274.13 329.15,-284.39"/>
<polygon fill="black" stroke="black" points="338.66,-287.93 327.72,-288.66 333.97,-286.19 329.29,-284.44 329.29,-284.44 329.29,-284.44 333.97,-286.19 330.86,-280.23 338.66,-287.93 338.66,-287.93"/>
</g>
<!-- histdatacom.fx_enums -->
<g id="node7" class="node">
<title>histdatacom.fx_enums</title>
<polygon fill="none" stroke="black" points="419.5,-468 279.5,-468 279.5,-432 419.5,-432 419.5,-468"/>
<text text-anchor="middle" x="349.5" y="-446.3" font-family="Times,serif" font-size="14.00">histdatacom.fx_enums</text>
</g>
<!-- histdatacom.cli&#45;&gt;histdatacom.fx_enums -->
<g id="edge4" class="edge">
<title>histdatacom.cli&#45;&gt;histdatacom.fx_enums</title>
<path fill="none" stroke="black" d="M208.76,-252.15C235.62,-289.72 299.76,-379.42 331.32,-423.57"/>
<polygon fill="black" stroke="black" points="337.18,-431.77 327.7,-426.25 334.27,-427.7 331.36,-423.63 331.36,-423.63 331.36,-423.63 334.27,-427.7 335.02,-421.02 337.18,-431.77 337.18,-431.77"/>
</g>
<!-- histdatacom.options -->
<g id="node10" class="node">
<title>histdatacom.options</title>
<polygon fill="none" stroke="black" points="213.5,-324 87.5,-324 87.5,-288 213.5,-288 213.5,-324"/>
<text text-anchor="middle" x="150.5" y="-302.3" font-family="Times,serif" font-size="14.00">histdatacom.options</text>
</g>
<!-- histdatacom.cli&#45;&gt;histdatacom.options -->
<g id="edge5" class="edge">
<title>histdatacom.cli&#45;&gt;histdatacom.options</title>
<path fill="none" stroke="black" d="M185.13,-252.3C179.78,-260.44 173.3,-270.31 167.39,-279.3"/>
<polygon fill="black" stroke="black" points="161.74,-287.9 163.47,-277.07 164.49,-283.72 167.23,-279.54 167.23,-279.54 167.23,-279.54 164.49,-283.72 170.99,-282.01 161.74,-287.9 161.74,-287.9"/>
</g>
<!-- histdatacom.utils -->
<g id="node13" class="node">
<title>histdatacom.utils</title>
<polygon fill="none" stroke="black" points="662.5,-468 552.5,-468 552.5,-432 662.5,-432 662.5,-468"/>
<text text-anchor="middle" x="607.5" y="-446.3" font-family="Times,serif" font-size="14.00">histdatacom.utils</text>
</g>
<!-- histdatacom.cli&#45;&gt;histdatacom.utils -->
<g id="edge6" class="edge">
<title>histdatacom.cli&#45;&gt;histdatacom.utils</title>
<path fill="none" stroke="black" d="M219,-252.08C232,-262.19 248.5,-275.44 262.5,-288 279.35,-303.11 281,-309.65 298.5,-324 343.11,-360.57 353.89,-372.32 406.5,-396 449.88,-415.53 501.89,-429 542.13,-437.47"/>
<polygon fill="black" stroke="black" points="552.09,-439.52 541.39,-441.91 547.19,-438.51 542.3,-437.5 542.3,-437.5 542.3,-437.5 547.19,-438.51 543.2,-433.1 552.09,-439.52 552.09,-439.52"/>
</g>
<!-- histdatacom.records -->
<g id="node11" class="node">
<title>histdatacom.records</title>
<polygon fill="none" stroke="black" points="541.5,-396 415.5,-396 415.5,-360 541.5,-360 541.5,-396"/>
<text text-anchor="middle" x="478.5" y="-374.3" font-family="Times,serif" font-size="14.00">histdatacom.records</text>
</g>
<!-- histdatacom.concurrency&#45;&gt;histdatacom.records -->
<g id="edge7" class="edge">
<title>histdatacom.concurrency&#45;&gt;histdatacom.records</title>
<path fill="none" stroke="black" d="M407.74,-324.3C419.69,-333.2 434.42,-344.18 447.35,-353.8"/>
<polygon fill="black" stroke="black" points="455.53,-359.9 444.82,-357.53 451.52,-356.91 447.51,-353.92 447.51,-353.92 447.51,-353.92 451.52,-356.91 450.2,-350.31 455.53,-359.9 455.53,-359.9"/>
</g>
<!-- histdatacom.csvs -->
<g id="node6" class="node">
<title>histdatacom.csvs</title>
<polygon fill="none" stroke="black" points="284.5,-180 174.5,-180 174.5,-144 284.5,-144 284.5,-180"/>
<text text-anchor="middle" x="229.5" y="-158.3" font-family="Times,serif" font-size="14.00">histdatacom.csvs</text>
</g>
<!-- histdatacom.csvs&#45;&gt;histdatacom.concurrency -->
<g id="edge8" class="edge">
<title>histdatacom.csvs&#45;&gt;histdatacom.concurrency</title>
<path fill="none" stroke="black" d="M240.14,-180.22C252.51,-199.33 274.35,-230.31 298.5,-252 311.47,-263.65 327.33,-274.24 341.88,-282.84"/>
<polygon fill="black" stroke="black" points="350.73,-287.93 339.82,-286.84 346.4,-285.43 342.06,-282.94 342.06,-282.94 342.06,-282.94 346.4,-285.43 344.3,-279.04 350.73,-287.93 350.73,-287.93"/>
</g>
<!-- histdatacom.histdata_com -->
<g id="node8" class="node">
<title>histdatacom.histdata_com</title>
<polygon fill="none" stroke="black" points="419,-36 260,-36 260,0 419,0 419,-36"/>
<text text-anchor="middle" x="339.5" y="-14.3" font-family="Times,serif" font-size="14.00">histdatacom.histdata_com</text>
</g>
<!-- histdatacom.histdata_com&#45;&gt;histdatacom.api -->
<g id="edge9" class="edge">
<title>histdatacom.histdata_com&#45;&gt;histdatacom.api</title>
<path fill="none" stroke="black" d="M345.89,-36.13C355.01,-60.54 371.81,-105.57 382.56,-134.36"/>
<polygon fill="black" stroke="black" points="386.08,-143.81 378.37,-136.02 384.34,-139.13 382.59,-134.44 382.59,-134.44 382.59,-134.44 384.34,-139.13 386.8,-132.87 386.08,-143.81 386.08,-143.81"/>
</g>
<!-- histdatacom.histdata_com&#45;&gt;histdatacom.cli -->
<g id="edge10" class="edge">
<title>histdatacom.histdata_com&#45;&gt;histdatacom.cli</title>
<path fill="none" stroke="black" d="M296.3,-36.03C254.22,-55.23 192.74,-90.88 165.5,-144 155.04,-164.39 165.31,-189.12 176.75,-207.32"/>
<polygon fill="black" stroke="black" points="182.38,-215.69 173.07,-209.91 179.59,-211.54 176.8,-207.39 176.8,-207.39 176.8,-207.39 179.59,-211.54 180.53,-204.88 182.38,-215.69 182.38,-215.69"/>
</g>
<!-- histdatacom.histdata_com&#45;&gt;histdatacom.concurrency -->
<g id="edge11" class="edge">
<title>histdatacom.histdata_com&#45;&gt;histdatacom.concurrency</title>
<path fill="none" stroke="black" d="M335.89,-36.13C330.25,-65.78 321.02,-128.44 331.5,-180 338.79,-215.89 356.76,-254.26 369.75,-278.88"/>
<polygon fill="black" stroke="black" points="374.63,-287.92 365.92,-281.25 372.25,-283.52 369.88,-279.12 369.88,-279.12 369.88,-279.12 372.25,-283.52 373.84,-276.98 374.63,-287.92 374.63,-287.92"/>
</g>
<!-- histdatacom.histdata_com&#45;&gt;histdatacom.csvs -->
<g id="edge12" class="edge">
<title>histdatacom.histdata_com&#45;&gt;histdatacom.csvs</title>
<path fill="none" stroke="black" d="M326.23,-36.13C306.99,-60.97 271.21,-107.15 248.98,-135.86"/>
<polygon fill="black" stroke="black" points="242.82,-143.81 245.38,-133.15 245.88,-139.86 248.94,-135.91 248.94,-135.91 248.94,-135.91 245.88,-139.86 252.5,-138.66 242.82,-143.81 242.82,-143.81"/>
</g>
<!-- histdatacom.influx -->
<g id="node9" class="node">
<title>histdatacom.influx</title>
<polygon fill="none" stroke="black" points="532,-108 413,-108 413,-72 532,-72 532,-108"/>
<text text-anchor="middle" x="472.5" y="-86.3" font-family="Times,serif" font-size="14.00">histdatacom.influx</text>
</g>
<!-- histdatacom.histdata_com&#45;&gt;histdatacom.influx -->
<g id="edge13" class="edge">
<title>histdatacom.histdata_com&#45;&gt;histdatacom.influx</title>
<path fill="none" stroke="black" d="M372.04,-36.12C389.75,-45.45 411.85,-57.08 430.82,-67.06"/>
<polygon fill="black" stroke="black" points="439.84,-71.81 428.89,-71.13 435.41,-69.48 430.99,-67.15 430.99,-67.15 430.99,-67.15 435.41,-69.48 433.09,-63.17 439.84,-71.81 439.84,-71.81"/>
</g>
<!-- histdatacom.histdata_com&#45;&gt;histdatacom.options -->
<g id="edge14" class="edge">
<title>histdatacom.histdata_com&#45;&gt;histdatacom.options</title>
<path fill="none" stroke="black" d="M259.91,-33.66C234.65,-41.55 208.2,-53.61 188.5,-72 127.71,-128.73 127.52,-169.45 137.5,-252 138.52,-260.47 140.43,-269.53 142.48,-277.72"/>
<polygon fill="black" stroke="black" points="145.09,-287.53 138.17,-279.02 143.8,-282.7 142.52,-277.87 142.52,-277.87 142.52,-277.87 143.8,-282.7 146.87,-276.71 145.09,-287.53 145.09,-287.53"/>
</g>
<!-- histdatacom.histdata_com&#45;&gt;histdatacom.urls -->
<g id="edge15" class="edge">
<title>histdatacom.histdata_com&#45;&gt;histdatacom.urls</title>
<path fill="none" stroke="black" d="M419.01,-31.1C467.65,-40.13 523.68,-54.01 540.5,-72 574.49,-108.37 576.51,-170.2 574.37,-205.72"/>
<polygon fill="black" stroke="black" points="573.61,-215.84 569.87,-205.53 573.98,-210.85 574.36,-205.87 574.36,-205.87 574.36,-205.87 573.98,-210.85 578.85,-206.21 573.61,-215.84 573.61,-215.84"/>
</g>
<!-- histdatacom.histdata_com&#45;&gt;histdatacom.utils -->
<g id="edge16" class="edge">
<title>histdatacom.histdata_com&#45;&gt;histdatacom.utils</title>
<path fill="none" stroke="black" d="M419.06,-29.96C463.5,-37.95 519.1,-51.13 565.5,-72 628.03,-100.12 691.5,-92.44 691.5,-161 691.5,-161 691.5,-161 691.5,-307 691.5,-353.4 657.86,-397.94 633.16,-424.4"/>
<polygon fill="black" stroke="black" points="626.14,-431.69 629.83,-421.36 629.61,-428.08 633.08,-424.48 633.08,-424.48 633.08,-424.48 629.61,-428.08 636.32,-427.6 626.14,-431.69 626.14,-431.69"/>
</g>
<!-- histdatacom.influx&#45;&gt;histdatacom.api -->
<g id="edge17" class="edge">
<title>histdatacom.influx&#45;&gt;histdatacom.api</title>
<path fill="none" stroke="black" d="M452.72,-108.3C442.75,-117.03 430.49,-127.76 419.64,-137.25"/>
<polygon fill="black" stroke="black" points="412.05,-143.9 416.61,-133.92 415.81,-140.6 419.57,-137.31 419.57,-137.31 419.57,-137.31 415.81,-140.6 422.54,-140.7 412.05,-143.9 412.05,-143.9"/>
</g>
<!-- histdatacom.influx&#45;&gt;histdatacom.concurrency -->
<g id="edge18" class="edge">
<title>histdatacom.influx&#45;&gt;histdatacom.concurrency</title>
<path fill="none" stroke="black" d="M470.1,-108.14C467.21,-126.36 461.58,-155.84 452.5,-180 438.93,-216.09 416.63,-254.63 401.29,-279.22"/>
<polygon fill="black" stroke="black" points="395.79,-287.93 397.33,-277.07 398.46,-283.71 401.13,-279.48 401.13,-279.48 401.13,-279.48 398.46,-283.71 404.94,-281.88 395.79,-287.93 395.79,-287.93"/>
</g>
<!-- histdatacom.influx&#45;&gt;histdatacom.fx_enums -->
<g id="edge19" class="edge">
<title>histdatacom.influx&#45;&gt;histdatacom.fx_enums</title>
<path fill="none" stroke="black" d="M477.65,-108.05C488.87,-148.78 511.35,-253.58 469.5,-324 453.02,-351.72 429.87,-337.78 406.5,-360 387.5,-378.06 371.96,-403.68 361.93,-422.8"/>
<polygon fill="black" stroke="black" points="357.33,-431.86 357.84,-420.91 359.59,-427.41 361.85,-422.95 361.85,-422.95 361.85,-422.95 359.59,-427.41 365.86,-424.98 357.33,-431.86 357.33,-431.86"/>
</g>
<!-- histdatacom.influx&#45;&gt;histdatacom.utils -->
<g id="edge20" class="edge">
<title>histdatacom.influx&#45;&gt;histdatacom.utils</title>
<path fill="none" stroke="black" d="M527.3,-108.02C580.57,-128.38 653.5,-168.1 653.5,-233 653.5,-233 653.5,-233 653.5,-307 653.5,-348.96 635.1,-394.64 621.57,-422.56"/>
<polygon fill="black" stroke="black" points="617.03,-431.66 617.47,-420.7 619.26,-427.18 621.5,-422.71 621.5,-422.71 621.5,-422.71 619.26,-427.18 625.52,-424.72 617.03,-431.66 617.03,-431.66"/>
</g>
<!-- histdatacom.options&#45;&gt;histdatacom.fx_enums -->
<g id="edge21" class="edge">
<title>histdatacom.options&#45;&gt;histdatacom.fx_enums</title>
<path fill="none" stroke="black" d="M161.74,-324.11C175.32,-343.7 199.84,-375.68 227.5,-396 245.41,-409.16 267.1,-419.92 287.2,-428.22"/>
<polygon fill="black" stroke="black" points="296.6,-431.98 285.65,-432.45 291.96,-430.12 287.32,-428.27 287.32,-428.27 287.32,-428.27 291.96,-430.12 288.99,-424.09 296.6,-431.98 296.6,-431.98"/>
</g>
<!-- histdatacom.records&#45;&gt;histdatacom.fx_enums -->
<g id="edge22" class="edge">
<title>histdatacom.records&#45;&gt;histdatacom.fx_enums</title>
<path fill="none" stroke="black" d="M446.94,-396.12C429.84,-405.4 408.52,-416.97 390.18,-426.92"/>
<polygon fill="black" stroke="black" points="381.18,-431.81 387.82,-423.09 385.57,-429.43 389.97,-427.04 389.97,-427.04 389.97,-427.04 385.57,-429.43 392.11,-431 381.18,-431.81 381.18,-431.81"/>
</g>
<!-- histdatacom.records&#45;&gt;histdatacom.utils -->
<g id="edge23" class="edge">
<title>histdatacom.records&#45;&gt;histdatacom.utils</title>
<path fill="none" stroke="black" d="M510.06,-396.12C527.16,-405.4 548.48,-416.97 566.82,-426.92"/>
<polygon fill="black" stroke="black" points="575.82,-431.81 564.89,-431 571.43,-429.43 567.03,-427.04 567.03,-427.04 567.03,-427.04 571.43,-429.43 569.18,-423.09 575.82,-431.81 575.82,-431.81"/>
</g>
<!-- histdatacom.urls&#45;&gt;histdatacom.concurrency -->
<g id="edge24" class="edge">
<title>histdatacom.urls&#45;&gt;histdatacom.concurrency</title>
<path fill="none" stroke="black" d="M525.75,-252.12C499.74,-261.86 466.97,-274.13 439.55,-284.39"/>
<polygon fill="black" stroke="black" points="430.1,-287.93 437.88,-280.21 434.78,-286.18 439.46,-284.43 439.46,-284.43 439.46,-284.43 434.78,-286.18 441.04,-288.64 430.1,-287.93 430.1,-287.93"/>
</g>
<!-- histdatacom.urls&#45;&gt;histdatacom.fx_enums -->
<g id="edge25" class="edge">
<title>histdatacom.urls&#45;&gt;histdatacom.fx_enums</title>
<path fill="none" stroke="black" d="M574.84,-252.03C580.12,-284.38 586.43,-355.15 550.5,-396 534.25,-414.48 478.29,-428.31 429.53,-437.2"/>
<polygon fill="black" stroke="black" points="419.57,-438.97 428.63,-432.79 424.49,-438.09 429.41,-437.22 429.41,-437.22 429.41,-437.22 424.49,-438.09 430.2,-441.65 419.57,-438.97 419.57,-438.97"/>
</g>
<!-- histdatacom.urls&#45;&gt;histdatacom.records -->
<g id="edge26" class="edge">
<title>histdatacom.urls&#45;&gt;histdatacom.records</title>
<path fill="none" stroke="black" d="M560.28,-252.13C544.15,-276.76 514.28,-322.36 495.45,-351.12"/>
<polygon fill="black" stroke="black" points="489.76,-359.81 491.47,-348.98 492.5,-355.63 495.24,-351.45 495.24,-351.45 495.24,-351.45 492.5,-355.63 499,-353.91 489.76,-359.81 489.76,-359.81"/>
</g>
<!-- histdatacom.urls&#45;&gt;histdatacom.utils -->
<g id="edge27" class="edge">
<title>histdatacom.urls&#45;&gt;histdatacom.utils</title>
<path fill="none" stroke="black" d="M575.72,-252.12C578.18,-262.47 581.24,-275.95 583.5,-288 592.25,-334.67 599.85,-389.42 604.04,-421.55"/>
<polygon fill="black" stroke="black" points="605.33,-431.54 599.59,-422.19 604.69,-426.58 604.05,-421.62 604.05,-421.62 604.05,-421.62 604.69,-426.58 608.52,-421.04 605.33,-431.54 605.33,-431.54"/>
</g>
</g>
</svg>
