<?xml version="1.0" encoding="UTF-8" standalone="no"?>
<!DOCTYPE svg PUBLIC "-//W3C//DTD SVG 1.1//EN"
 "http://www.w3.org/Graphics/SVG/1.1/DTD/svg11.dtd">
<!-- Generated by graphviz version 12.2.1 (20241206.2353)
 -->
<!-- Title: packages_pyreverse Pages: 1 -->
<svg width="3390pt" height="620pt"
 viewBox="0.00 0.00 3389.62 620.00" xmlns="http://www.w3.org/2000/svg" xmlns:xlink="http://www.w3.org/1999/xlink">
<g id="graph0" class="graph" transform="scale(1 1) rotate(0) translate(4 616)">
<title>packages_pyreverse</title>
<polygon fill="white" stroke="none" points="-4,4 -4,-616 3385.62,-616 3385.62,4 -4,4"/>
<!-- histdatacom -->
<g id="node1" class="node">
<title>histdatacom</title>
<polygon fill="none" stroke="black" points="320.62,-468 238.62,-468 238.62,-432 320.62,-432 320.62,-468"/>
<text text-anchor="middle" x="279.62" y="-444.95" font-family="Times,serif" font-size="14.00">histdatacom</text>
</g>
<!-- histdatacom.fx_enums -->
<g id="node11" class="node">
<title>histdatacom.fx_enums</title>
<polygon fill="none" stroke="black" points="349.5,-612 209.75,-612 209.75,-576 349.5,-576 349.5,-612"/>
<text text-anchor="middle" x="279.62" y="-588.95" font-family="Times,serif" font-size="14.00">histdatacom.fx_enums</text>
</g>
<!-- histdatacom&#45;&gt;histdatacom.fx_enums -->
<g id="edge1" class="edge">
<title>histdatacom&#45;&gt;histdatacom.fx_enums</title>
<path fill="none" stroke="black" d="M279.62,-468.41C279.62,-492.5 279.62,-536.25 279.62,-564.97"/>
<polygon fill="black" stroke="black" points="279.63,-574.67 275.13,-564.67 279.63,-570.89 279.63,-564.67 279.63,-564.67 279.63,-564.67 279.63,-570.89 284.13,-564.67 279.63,-574.67"/>
</g>
<!-- histdatacom.options -->
<g id="node17" class="node">
<title>histdatacom.options</title>
<polygon fill="none" stroke="black" points="167.38,-540 41.88,-540 41.88,-504 167.38,-504 167.38,-540"/>
<text text-anchor="middle" x="104.62" y="-516.95" font-family="Times,serif" font-size="14.00">histdatacom.options</text>
</g>
<!-- histdatacom&#45;&gt;histdatacom.options -->
<g id="edge2" class="edge">
<title>histdatacom&#45;&gt;histdatacom.options</title>
<path fill="none" stroke="black" d="M238.15,-467.59C214.34,-477.11 184.18,-489.18 158.55,-499.43"/>
<polygon fill="black" stroke="black" points="149.37,-503.1 156.99,-495.21 152.88,-501.7 158.66,-499.39 158.66,-499.39 158.66,-499.39 152.88,-501.7 160.33,-503.56 149.37,-503.1"/>
</g>
<!-- histdatacom.__main__ -->
<g id="node2" class="node">
<title>histdatacom.__main__</title>
<polygon fill="none" stroke="black" points="3096.88,-36 2956.38,-36 2956.38,0 3096.88,0 3096.88,-36"/>
<text text-anchor="middle" x="3026.62" y="-12.95" font-family="Times,serif" font-size="14.00">histdatacom.__main__</text>
</g>
<!-- histdatacom.activity_stages -->
<g id="node3" class="node">
<title>histdatacom.activity_stages</title>
<polygon fill="none" stroke="black" points="1043.62,-396 877.62,-396 877.62,-360 1043.62,-360 1043.62,-396"/>
<text text-anchor="middle" x="960.62" y="-372.95" font-family="Times,serif" font-size="14.00">histdatacom.activity_stages</text>
</g>
<!-- histdatacom.activity_stages&#45;&gt;histdatacom -->
<g id="edge3" class="edge">
<title>histdatacom.activity_stages&#45;&gt;histdatacom</title>
<path fill="none" stroke="black" d="M877.46,-387.55C735.16,-402.18 448.96,-431.59 331.62,-443.66"/>
<polygon fill="black" stroke="black" points="322.02,-444.64 331.5,-439.14 325.78,-444.26 331.96,-443.62 331.96,-443.62 331.96,-443.62 325.78,-444.26 332.42,-448.1 322.02,-444.64"/>
</g>
<!-- histdatacom.cancellation -->
<g id="node5" class="node">
<title>histdatacom.cancellation</title>
<polygon fill="none" stroke="black" points="2185.12,-468 2034.12,-468 2034.12,-432 2185.12,-432 2185.12,-468"/>
<text text-anchor="middle" x="2109.62" y="-444.95" font-family="Times,serif" font-size="14.00">histdatacom.cancellation</text>
</g>
<!-- histdatacom.activity_stages&#45;&gt;histdatacom.cancellation -->
<g id="edge4" class="edge">
<title>histdatacom.activity_stages&#45;&gt;histdatacom.cancellation</title>
<path fill="none" stroke="black" d="M1043.72,-384.06C1254.5,-396.9 1808.43,-430.65 2022.99,-443.72"/>
<polygon fill="black" stroke="black" points="2032.66,-444.31 2022.4,-448.19 2028.88,-444.08 2022.68,-443.7 2022.68,-443.7 2022.68,-443.7 2028.88,-444.08 2022.95,-439.21 2032.66,-444.31"/>
</g>
<!-- histdatacom.config -->
<g id="node8" class="node">
<title>histdatacom.config</title>
<polygon fill="none" stroke="black" points="579.75,-468 459.5,-468 459.5,-432 579.75,-432 579.75,-468"/>
<text text-anchor="middle" x="519.62" y="-444.95" font-family="Times,serif" font-size="14.00">histdatacom.config</text>
</g>
<!-- histdatacom.activity_stages&#45;&gt;histdatacom.config -->
<g id="edge5" class="edge">
<title>histdatacom.activity_stages&#45;&gt;histdatacom.config</title>
<path fill="none" stroke="black" d="M877.49,-388.43C804.42,-397.27 695.04,-411.84 591.14,-431.61"/>
<polygon fill="black" stroke="black" points="581.33,-433.5 590.3,-427.19 585.04,-432.78 591.15,-431.61 591.15,-431.61 591.15,-431.61 585.04,-432.78 592,-436.03 581.33,-433.5"/>
</g>
<!-- histdatacom.exceptions -->
<g id="node10" class="node">
<title>histdatacom.exceptions</title>
<polygon fill="none" stroke="black" points="1471.38,-468 1327.88,-468 1327.88,-432 1471.38,-432 1471.38,-468"/>
<text text-anchor="middle" x="1399.62" y="-444.95" font-family="Times,serif" font-size="14.00">histdatacom.exceptions</text>
</g>
<!-- histdatacom.activity_stages&#45;&gt;histdatacom.exceptions -->
<g id="edge6" class="edge">
<title>histdatacom.activity_stages&#45;&gt;histdatacom.exceptions</title>
<path fill="none" stroke="black" d="M1043.97,-392.29C1122.23,-404.77 1238.65,-423.33 1316.75,-435.79"/>
<polygon fill="black" stroke="black" points="1326.31,-437.31 1315.72,-440.18 1322.57,-436.71 1316.43,-435.73 1316.43,-435.73 1316.43,-435.73 1322.57,-436.71 1317.14,-431.29 1326.31,-437.31"/>
</g>
<!-- histdatacom.activity_stages&#45;&gt;histdatacom.fx_enums -->
<g id="edge7" class="edge">
<title>histdatacom.activity_stages&#45;&gt;histdatacom.fx_enums</title>
<path fill="none" stroke="black" d="M925.24,-396.38C886.99,-414.94 824.04,-444.81 768.62,-468 684.56,-503.19 664.52,-515.89 576.62,-540 504.7,-559.73 420.91,-573.9 360.7,-582.6"/>
<polygon fill="black" stroke="black" points="350.94,-583.99 360.21,-578.13 354.69,-583.46 360.84,-582.58 360.84,-582.58 360.84,-582.58 354.69,-583.46 361.48,-587.04 350.94,-583.99"/>
</g>
<!-- histdatacom.histdata_ascii -->
<g id="node12" class="node">
<title>histdatacom.histdata_ascii</title>
<polygon fill="none" stroke="black" points="1271.25,-468 1112,-468 1112,-432 1271.25,-432 1271.25,-468"/>
<text text-anchor="middle" x="1191.62" y="-444.95" font-family="Times,serif" font-size="14.00">histdatacom.histdata_ascii</text>
</g>
<!-- histdatacom.activity_stages&#45;&gt;histdatacom.histdata_ascii -->
<g id="edge8" class="edge">
<title>histdatacom.activity_stages&#45;&gt;histdatacom.histdata_ascii</title>
<path fill="none" stroke="black" d="M1018.32,-396.48C1050.27,-406.17 1090.18,-418.26 1123.65,-428.4"/>
<polygon fill="black" stroke="black" points="1133.1,-431.26 1122.22,-432.67 1129.48,-430.17 1123.53,-428.36 1123.53,-428.36 1123.53,-428.36 1129.48,-430.17 1124.83,-424.06 1133.1,-431.26"/>
</g>
<!-- histdatacom.records -->
<g id="node18" class="node">
<title>histdatacom.records</title>
<polygon fill="none" stroke="black" points="723.38,-468 597.88,-468 597.88,-432 723.38,-432 723.38,-468"/>
<text text-anchor="middle" x="660.62" y="-444.95" font-family="Times,serif" font-size="14.00">histdatacom.records</text>
</g>
<!-- histdatacom.activity_stages&#45;&gt;histdatacom.records -->
<g id="edge9" class="edge">
<title>histdatacom.activity_stages&#45;&gt;histdatacom.records</title>
<path fill="none" stroke="black" d="M885.7,-396.48C839.42,-407.28 780.31,-421.07 734.27,-431.82"/>
<polygon fill="black" stroke="black" points="724.66,-434.06 733.37,-427.4 728.34,-433.2 734.39,-431.79 734.39,-431.79 734.39,-431.79 728.34,-433.2 735.42,-436.17 724.66,-434.06"/>
</g>
<!-- histdatacom.runtime_contracts -->
<g id="node20" class="node">
<title>histdatacom.runtime_contracts</title>
<polygon fill="none" stroke="black" points="1756.62,-612 1572.62,-612 1572.62,-576 1756.62,-576 1756.62,-612"/>
<text text-anchor="middle" x="1664.62" y="-588.95" font-family="Times,serif" font-size="14.00">histdatacom.runtime_contracts</text>
</g>
<!-- histdatacom.activity_stages&#45;&gt;histdatacom.runtime_contracts -->
<g id="edge10" class="edge">
<title>histdatacom.activity_stages&#45;&gt;histdatacom.runtime_contracts</title>
<path fill="none" stroke="black" d="M962.57,-396.44C967.4,-430.49 983.25,-505.5 1031.62,-540 1073.64,-569.96 1392.59,-584.44 1561.06,-590.06"/>
<polygon fill="black" stroke="black" points="1570.97,-590.39 1560.83,-594.56 1567.19,-590.27 1560.97,-590.06 1560.97,-590.06 1560.97,-590.06 1567.19,-590.27 1561.12,-585.56 1570.97,-590.39"/>
</g>
<!-- histdatacom.utils -->
<g id="node42" class="node">
<title>histdatacom.utils</title>
<polygon fill="none" stroke="black" points="523.12,-540 414.12,-540 414.12,-504 523.12,-504 523.12,-540"/>
<text text-anchor="middle" x="468.62" y="-516.95" font-family="Times,serif" font-size="14.00">histdatacom.utils</text>
</g>
<!-- histdatacom.activity_stages&#45;&gt;histdatacom.utils -->
<g id="edge11" class="edge">
<title>histdatacom.activity_stages&#45;&gt;histdatacom.utils</title>
<path fill="none" stroke="black" d="M877.19,-395.04C844.35,-403.34 807.05,-415.32 775.62,-432 753.61,-443.69 755.09,-457.21 732.62,-468 669.44,-498.33 589.72,-511.31 534.5,-516.86"/>
<polygon fill="black" stroke="black" points="524.66,-517.79 534.2,-512.37 528.43,-517.44 534.62,-516.85 534.62,-516.85 534.62,-516.85 528.43,-517.44 535.04,-521.33 524.66,-517.79"/>
</g>
<!-- histdatacom.api -->
<g id="node4" class="node">
<title>histdatacom.api</title>
<polygon fill="none" stroke="black" points="1008.75,-180 906.5,-180 906.5,-144 1008.75,-144 1008.75,-180"/>
<text text-anchor="middle" x="957.62" y="-156.95" font-family="Times,serif" font-size="14.00">histdatacom.api</text>
</g>
<!-- histdatacom.api&#45;&gt;histdatacom -->
<g id="edge12" class="edge">
<title>histdatacom.api&#45;&gt;histdatacom</title>
<path fill="none" stroke="black" d="M906.18,-167.96C774.99,-181.46 431.86,-222.28 340.62,-288 297.95,-318.74 285.12,-383.28 281.27,-420.64"/>
<polygon fill="black" stroke="black" points="280.41,-430.52 276.79,-420.17 280.74,-426.75 281.28,-420.56 281.28,-420.56 281.28,-420.56 280.74,-426.75 285.76,-420.95 280.41,-430.52"/>
</g>
<!-- histdatacom.api&#45;&gt;histdatacom.activity_stages -->
<g id="edge13" class="edge">
<title>histdatacom.api&#45;&gt;histdatacom.activity_stages</title>
<path fill="none" stroke="black" d="M963.45,-180.44C966.56,-190.67 970.06,-203.92 971.62,-216 977.63,-262.27 971.17,-316.48 965.92,-348.71"/>
<polygon fill="black" stroke="black" points="964.27,-358.34 961.52,-347.72 964.91,-354.61 965.96,-348.48 965.96,-348.48 965.96,-348.48 964.91,-354.61 970.39,-349.24 964.27,-358.34"/>
</g>
<!-- histdatacom.api&#45;&gt;histdatacom.config -->
<g id="edge14" class="edge">
<title>histdatacom.api&#45;&gt;histdatacom.config</title>
<path fill="none" stroke="black" d="M906.13,-175.72C864.98,-186.05 805.92,-201.28 754.62,-216 703.14,-230.77 691.88,-240.25 639.62,-252 583.36,-264.66 420.47,-244.49 382.62,-288 363.74,-309.71 391.99,-384.63 401.62,-396 414.07,-410.68 431.4,-421.47 448.96,-429.33"/>
<polygon fill="black" stroke="black" points="458.16,-433.15 447.2,-433.47 454.67,-431.7 448.93,-429.31 448.93,-429.31 448.93,-429.31 454.67,-431.7 450.66,-425.16 458.16,-433.15"/>
</g>
<!-- histdatacom.api&#45;&gt;histdatacom.histdata_ascii -->
<g id="edge15" class="edge">
<title>histdatacom.api&#45;&gt;histdatacom.histdata_ascii</title>
<path fill="none" stroke="black" d="M1009.06,-169.74C1062.69,-177.88 1141.67,-193.35 1161.62,-216 1212.44,-273.67 1204.7,-372.7 1197.07,-420.95"/>
<polygon fill="black" stroke="black" points="1195.43,-430.59 1192.67,-419.98 1196.06,-426.86 1197.11,-420.73 1197.11,-420.73 1197.11,-420.73 1196.06,-426.86 1201.55,-421.49 1195.43,-430.59"/>
</g>
<!-- histdatacom.observability -->
<g id="node16" class="node">
<title>histdatacom.observability</title>
<polygon fill="none" stroke="black" points="1597.75,-396 1441.5,-396 1441.5,-360 1597.75,-360 1597.75,-396"/>
<text text-anchor="middle" x="1519.62" y="-372.95" font-family="Times,serif" font-size="14.00">histdatacom.observability</text>
</g>
<!-- histdatacom.api&#45;&gt;histdatacom.observability -->
<g id="edge16" class="edge">
<title>histdatacom.api&#45;&gt;histdatacom.observability</title>
<path fill="none" stroke="black" d="M1009.04,-167.51C1099.29,-177.34 1289.64,-206.76 1426.62,-288 1454.92,-304.78 1481.43,-331.69 1498.85,-351.54"/>
<polygon fill="black" stroke="black" points="1505.16,-358.9 1495.24,-354.24 1502.7,-356.03 1498.65,-351.31 1498.65,-351.31 1498.65,-351.31 1502.7,-356.03 1502.07,-348.38 1505.16,-358.9"/>
</g>
<!-- histdatacom.api&#45;&gt;histdatacom.records -->
<g id="edge136" class="edge">
<title>histdatacom.api&#45;&gt;histdatacom.records</title>
<path fill="none" stroke="black" stroke-dasharray="5,2" d="M960.72,-180.48C965.35,-212.37 970.42,-280.65 938.62,-324 931.43,-333.81 790.98,-394.09 712.53,-427.22"/>
<polygon fill="black" stroke="black" points="703.48,-431.04 710.95,-423.01 706.97,-429.57 712.69,-427.15 712.69,-427.15 712.69,-427.15 706.97,-429.57 714.44,-431.3 703.48,-431.04"/>
</g>
<!-- histdatacom.api&#45;&gt;histdatacom.runtime_contracts -->
<g id="edge17" class="edge">
<title>histdatacom.api&#45;&gt;histdatacom.runtime_contracts</title>
<path fill="none" stroke="black" d="M969.69,-180.43C992.4,-213.88 1041.86,-290 1071.62,-360 1091.17,-405.96 1066.26,-433.78 1102.62,-468 1167.89,-529.42 1417.49,-566.13 1561.15,-582.61"/>
<polygon fill="black" stroke="black" points="1570.95,-583.72 1560.5,-587.06 1567.19,-583.29 1561.01,-582.59 1561.01,-582.59 1561.01,-582.59 1567.19,-583.29 1561.52,-578.12 1570.95,-583.72"/>
</g>
<!-- histdatacom.scraper.scraper -->
<g id="node23" class="node">
<title>histdatacom.scraper.scraper</title>
<polygon fill="none" stroke="black" points="930,-252 763.25,-252 763.25,-216 930,-216 930,-252"/>
<text text-anchor="middle" x="846.62" y="-228.95" font-family="Times,serif" font-size="14.00">histdatacom.scraper.scraper</text>
</g>
<!-- histdatacom.api&#45;&gt;histdatacom.scraper.scraper -->
<g id="edge18" class="edge">
<title>histdatacom.api&#45;&gt;histdatacom.scraper.scraper</title>
<path fill="none" stroke="black" d="M929.9,-180.48C915.76,-189.4 898.37,-200.37 883.15,-209.97"/>
<polygon fill="black" stroke="black" points="875.03,-215.09 881.08,-205.95 878.22,-213.07 883.48,-209.76 883.48,-209.76 883.48,-209.76 878.22,-213.07 885.88,-213.56 875.03,-215.09"/>
</g>
<!-- histdatacom.cancellation&#45;&gt;histdatacom.runtime_contracts -->
<g id="edge19" class="edge">
<title>histdatacom.cancellation&#45;&gt;histdatacom.runtime_contracts</title>
<path fill="none" stroke="black" d="M2094.52,-468.31C2073.79,-491.64 2037.11,-531.25 2019.62,-540 1976.63,-561.52 1856.48,-576.35 1767.81,-584.74"/>
<polygon fill="black" stroke="black" points="1758.1,-585.64 1767.64,-580.24 1761.87,-585.29 1768.06,-584.72 1768.06,-584.72 1768.06,-584.72 1761.87,-585.29 1768.47,-589.2 1758.1,-585.64"/>
</g>
<!-- histdatacom.cli -->
<g id="node6" class="node">
<title>histdatacom.cli</title>
<polygon fill="none" stroke="black" points="99.25,-396 0,-396 0,-360 99.25,-360 99.25,-396"/>
<text text-anchor="middle" x="49.62" y="-372.95" font-family="Times,serif" font-size="14.00">histdatacom.cli</text>
</g>
<!-- histdatacom.cli&#45;&gt;histdatacom -->
<g id="edge20" class="edge">
<title>histdatacom.cli&#45;&gt;histdatacom</title>
<path fill="none" stroke="black" d="M99.53,-394.19C137.45,-405.73 189.45,-421.56 227.83,-433.24"/>
<polygon fill="black" stroke="black" points="237.1,-436.06 226.23,-437.45 233.49,-434.96 227.54,-433.15 227.54,-433.15 227.54,-433.15 233.49,-434.96 228.85,-428.84 237.1,-436.06"/>
</g>
<!-- histdatacom.concurrency -->
<g id="node7" class="node">
<title>histdatacom.concurrency</title>
<polygon fill="none" stroke="black" points="1036.88,-612 884.38,-612 884.38,-576 1036.88,-576 1036.88,-612"/>
<text text-anchor="middle" x="960.62" y="-588.95" font-family="Times,serif" font-size="14.00">histdatacom.concurrency</text>
</g>
<!-- histdatacom.cli&#45;&gt;histdatacom.concurrency -->
<g id="edge21" class="edge">
<title>histdatacom.cli&#45;&gt;histdatacom.concurrency</title>
<path fill="none" stroke="black" d="M49.27,-396.39C49.85,-416.54 54.03,-449.36 73.62,-468 131.11,-522.69 660.73,-569.63 873.12,-586.41"/>
<polygon fill="black" stroke="black" points="883,-587.19 872.67,-590.89 879.23,-586.89 873.03,-586.41 873.03,-586.41 873.03,-586.41 879.23,-586.89 873.38,-581.92 883,-587.19"/>
</g>
<!-- histdatacom.cli&#45;&gt;histdatacom.fx_enums -->
<g id="edge22" class="edge">
<title>histdatacom.cli&#45;&gt;histdatacom.fx_enums</title>
<path fill="none" stroke="black" d="M40.61,-396.29C25.23,-428.45 -1.3,-498.03 32.62,-540 53.34,-565.64 134.88,-579.44 198.67,-586.47"/>
<polygon fill="black" stroke="black" points="208.34,-587.49 197.92,-590.91 204.58,-587.09 198.4,-586.44 198.4,-586.44 198.4,-586.44 204.58,-587.09 198.87,-581.96 208.34,-587.49"/>
</g>
<!-- histdatacom.cli&#45;&gt;histdatacom.utils -->
<g id="edge23" class="edge">
<title>histdatacom.cli&#45;&gt;histdatacom.utils</title>
<path fill="none" stroke="black" d="M56.92,-396.31C66.62,-417.03 85.84,-451.05 113.62,-468 160.94,-496.87 313.92,-511.21 402.86,-517.27"/>
<polygon fill="black" stroke="black" points="412.69,-517.92 402.42,-521.75 408.92,-517.67 402.72,-517.26 402.72,-517.26 402.72,-517.26 408.92,-517.67 403.01,-512.77 412.69,-517.92"/>
</g>
<!-- histdatacom.csvs -->
<g id="node9" class="node">
<title>histdatacom.csvs</title>
<polygon fill="none" stroke="black" points="763.12,-324 654.12,-324 654.12,-288 763.12,-288 763.12,-324"/>
<text text-anchor="middle" x="708.62" y="-300.95" font-family="Times,serif" font-size="14.00">histdatacom.csvs</text>
</g>
<!-- histdatacom.csvs&#45;&gt;histdatacom -->
<g id="edge24" class="edge">
<title>histdatacom.csvs&#45;&gt;histdatacom</title>
<path fill="none" stroke="black" d="M656.02,-324.41C573.37,-351.77 414.04,-404.51 331.71,-431.76"/>
<polygon fill="black" stroke="black" points="322.26,-434.89 330.34,-427.47 325.85,-433.7 331.75,-431.75 331.75,-431.75 331.75,-431.75 325.85,-433.7 333.16,-436.02 322.26,-434.89"/>
</g>
<!-- histdatacom.csvs&#45;&gt;histdatacom.activity_stages -->
<g id="edge25" class="edge">
<title>histdatacom.csvs&#45;&gt;histdatacom.activity_stages</title>
<path fill="none" stroke="black" d="M763.62,-322.28C799.83,-332.34 847.67,-345.62 887.13,-356.59"/>
<polygon fill="black" stroke="black" points="896.59,-359.21 885.75,-360.87 892.95,-358.2 886.95,-356.54 886.95,-356.54 886.95,-356.54 892.95,-358.2 888.16,-352.2 896.59,-359.21"/>
</g>
<!-- histdatacom.csvs&#45;&gt;histdatacom.config -->
<g id="edge26" class="edge">
<title>histdatacom.csvs&#45;&gt;histdatacom.config</title>
<path fill="none" stroke="black" d="M688.14,-324.23C666.15,-342.54 630.01,-372.07 597.62,-396 584.04,-406.04 568.73,-416.6 555.3,-425.62"/>
<polygon fill="black" stroke="black" points="547.36,-430.93 553.17,-421.63 550.5,-428.83 555.67,-425.37 555.67,-425.37 555.67,-425.37 550.5,-428.83 558.17,-429.12 547.36,-430.93"/>
</g>
<!-- histdatacom.csvs&#45;&gt;histdatacom.records -->
<g id="edge137" class="edge">
<title>histdatacom.csvs&#45;&gt;histdatacom.records</title>
<path fill="none" stroke="black" stroke-dasharray="5,2" d="M702.74,-324.41C694.56,-348.6 679.68,-392.64 669.97,-421.35"/>
<polygon fill="black" stroke="black" points="666.8,-430.73 665.74,-419.82 668.01,-427.15 670,-421.26 670,-421.26 670,-421.26 668.01,-427.15 674.26,-422.7 666.8,-430.73"/>
</g>
<!-- histdatacom.csvs&#45;&gt;histdatacom.runtime_contracts -->
<g id="edge27" class="edge">
<title>histdatacom.csvs&#45;&gt;histdatacom.runtime_contracts</title>
<path fill="none" stroke="black" d="M722.86,-324.24C761.3,-369.36 872.57,-490.78 995.62,-540 1095.56,-579.97 1399.7,-589.85 1561.24,-592.26"/>
<polygon fill="black" stroke="black" points="1570.93,-592.39 1560.86,-596.75 1567.15,-592.34 1560.93,-592.25 1560.93,-592.25 1560.93,-592.25 1567.15,-592.34 1560.99,-587.75 1570.93,-592.39"/>
</g>
<!-- histdatacom.exceptions&#45;&gt;histdatacom.runtime_contracts -->
<g id="edge28" class="edge">
<title>histdatacom.exceptions&#45;&gt;histdatacom.runtime_contracts</title>
<path fill="none" stroke="black" d="M1411.91,-468.33C1427.04,-488.41 1454.58,-521.17 1485.62,-540 1508.88,-554.11 1536.13,-564.66 1562.26,-572.48"/>
<polygon fill="black" stroke="black" points="1571.81,-575.22 1560.95,-576.78 1568.17,-574.17 1562.19,-572.46 1562.19,-572.46 1562.19,-572.46 1568.17,-574.17 1563.44,-568.13 1571.81,-575.22"/>
</g>
<!-- histdatacom.histdata_com -->
<g id="node13" class="node">
<title>histdatacom.histdata_com</title>
<polygon fill="none" stroke="black" points="666.88,-108 508.38,-108 508.38,-72 666.88,-72 666.88,-108"/>
<text text-anchor="middle" x="587.62" y="-84.95" font-family="Times,serif" font-size="14.00">histdatacom.histdata_com</text>
</g>
<!-- histdatacom.histdata_com&#45;&gt;histdatacom -->
<g id="edge29" class="edge">
<title>histdatacom.histdata_com&#45;&gt;histdatacom</title>
<path fill="none" stroke="black" d="M508.11,-94.02C466.14,-99.56 416.47,-112.92 382.62,-144 345.14,-178.41 372.31,-209.31 344.62,-252 331.97,-271.52 319.36,-268.53 306.62,-288 287.99,-316.47 286.68,-326.52 280.62,-360 276.99,-380.11 276.84,-403.2 277.55,-420.82"/>
<polygon fill="black" stroke="black" points="278.06,-430.56 273.04,-420.81 277.87,-426.78 277.54,-420.57 277.54,-420.57 277.54,-420.57 277.87,-426.78 282.03,-420.34 278.06,-430.56"/>
</g>
<!-- histdatacom.histdata_com&#45;&gt;histdatacom.api -->
<g id="edge30" class="edge">
<title>histdatacom.histdata_com&#45;&gt;histdatacom.api</title>
<path fill="none" stroke="black" d="M667,-106.02C735.31,-118.94 832.5,-137.33 895.33,-149.21"/>
<polygon fill="black" stroke="black" points="905.06,-151.05 894.4,-153.62 901.34,-150.35 895.23,-149.2 895.23,-149.2 895.23,-149.2 901.34,-150.35 896.07,-144.77 905.06,-151.05"/>
</g>
<!-- histdatacom.histdata_com&#45;&gt;histdatacom.cli -->
<g id="edge31" class="edge">
<title>histdatacom.histdata_com&#45;&gt;histdatacom.cli</title>
<path fill="none" stroke="black" d="M507.92,-95.01C380.21,-102.14 141.01,-118.71 111.62,-144 51.42,-195.83 46.41,-298.87 47.84,-348.7"/>
<polygon fill="black" stroke="black" points="48.23,-358.39 43.33,-348.58 48.08,-354.61 47.83,-348.4 47.83,-348.4 47.83,-348.4 48.08,-354.61 52.32,-348.22 48.23,-358.39"/>
</g>
<!-- histdatacom.histdata_com&#45;&gt;histdatacom.histdata_ascii -->
<g id="edge32" class="edge">
<title>histdatacom.histdata_com&#45;&gt;histdatacom.histdata_ascii</title>
<path fill="none" stroke="black" d="M667.36,-94.16C754.66,-99.15 898.14,-111.87 1017.62,-144 1096.47,-165.2 1131.66,-155.63 1186.62,-216 1240.92,-275.63 1222.77,-316.43 1209.62,-396 1208.23,-404.44 1205.67,-413.34 1202.91,-421.38"/>
<polygon fill="black" stroke="black" points="1199.53,-430.56 1198.76,-419.62 1200.83,-427.01 1202.98,-421.18 1202.98,-421.18 1202.98,-421.18 1200.83,-427.01 1207.2,-422.73 1199.53,-430.56"/>
</g>
<!-- histdatacom.histdata_com&#45;&gt;histdatacom.records -->
<g id="edge33" class="edge">
<title>histdatacom.histdata_com&#45;&gt;histdatacom.records</title>
<path fill="none" stroke="black" d="M587.22,-108.48C586.66,-156.18 588.77,-291.9 626.62,-396 630.01,-405.3 635.25,-414.66 640.62,-422.86"/>
<polygon fill="black" stroke="black" points="646.17,-430.89 636.78,-425.23 644.02,-427.78 640.48,-422.67 640.48,-422.67 640.48,-422.67 644.02,-427.78 644.18,-420.11 646.17,-430.89"/>
</g>
<!-- histdatacom.repository_output -->
<g id="node19" class="node">
<title>histdatacom.repository_output</title>
<polygon fill="none" stroke="black" points="335.5,-252 153.75,-252 153.75,-216 335.5,-216 335.5,-252"/>
<text text-anchor="middle" x="244.62" y="-228.95" font-family="Times,serif" font-size="14.00">histdatacom.repository_output</text>
</g>
<!-- histdatacom.histdata_com&#45;&gt;histdatacom.repository_output -->
<g id="edge34" class="edge">
<title>histdatacom.histdata_com&#45;&gt;histdatacom.repository_output</title>
<path fill="none" stroke="black" d="M508.06,-98.96C460.21,-106.08 399.19,-119.37 349.62,-144 317.65,-159.89 287.23,-187.55 267.44,-207.82"/>
<polygon fill="black" stroke="black" points="260.74,-214.85 264.38,-204.51 263.35,-212.12 267.64,-207.62 267.64,-207.62 267.64,-207.62 263.35,-212.12 270.9,-210.73 260.74,-214.85"/>
</g>
<!-- histdatacom.histdata_com&#45;&gt;histdatacom.runtime_contracts -->
<g id="edge35" class="edge">
<title>histdatacom.histdata_com&#45;&gt;histdatacom.runtime_contracts</title>
<path fill="none" stroke="black" d="M667.34,-92.76C768.16,-96.48 946.48,-108.04 1094.62,-144 1265.7,-185.52 1302.83,-216.34 1463.62,-288 1528.62,-316.97 1562.21,-304.41 1606.62,-360 1655.32,-420.94 1663.82,-517.3 1664.86,-564.72"/>
<polygon fill="black" stroke="black" points="1664.97,-574.46 1660.36,-564.51 1664.93,-570.68 1664.86,-564.46 1664.86,-564.46 1664.86,-564.46 1664.93,-570.68 1669.36,-564.41 1664.97,-574.46"/>
</g>
<!-- histdatacom.sidecar.cli -->
<g id="node27" class="node">
<title>histdatacom.sidecar.cli</title>
<polygon fill="none" stroke="black" points="1999.88,-180 1859.38,-180 1859.38,-144 1999.88,-144 1999.88,-180"/>
<text text-anchor="middle" x="1929.62" y="-156.95" font-family="Times,serif" font-size="14.00">histdatacom.sidecar.cli</text>
</g>
<!-- histdatacom.histdata_com&#45;&gt;histdatacom.sidecar.cli -->
<g id="edge36" class="edge">
<title>histdatacom.histdata_com&#45;&gt;histdatacom.sidecar.cli</title>
<path fill="none" stroke="black" d="M667.06,-95.14C904.56,-107.53 1607.65,-144.21 1848,-156.74"/>
<polygon fill="black" stroke="black" points="1857.87,-157.26 1847.65,-161.23 1854.09,-157.06 1847.88,-156.74 1847.88,-156.74 1847.88,-156.74 1854.09,-157.06 1848.12,-152.24 1857.87,-157.26"/>
</g>
<!-- histdatacom.sidecar.client -->
<g id="node28" class="node">
<title>histdatacom.sidecar.client</title>
<polygon fill="none" stroke="black" points="2597.12,-252 2440.12,-252 2440.12,-216 2597.12,-216 2597.12,-252"/>
<text text-anchor="middle" x="2518.62" y="-228.95" font-family="Times,serif" font-size="14.00">histdatacom.sidecar.client</text>
</g>
<!-- histdatacom.histdata_com&#45;&gt;histdatacom.sidecar.client -->
<g id="edge37" class="edge">
<title>histdatacom.histdata_com&#45;&gt;histdatacom.sidecar.client</title>
<path fill="none" stroke="black" d="M667.16,-92.58C1013.57,-99.53 2375.33,-127.83 2416.62,-144 2449.9,-157.03 2479.63,-185.98 2498.29,-207.34"/>
<polygon fill="black" stroke="black" points="2504.56,-214.75 2494.67,-210.02 2502.12,-211.86 2498.1,-207.12 2498.1,-207.12 2498.1,-207.12 2502.12,-211.86 2501.53,-204.21 2504.56,-214.75"/>
</g>
<!-- histdatacom.sidecar.cutover -->
<g id="node30" class="node">
<title>histdatacom.sidecar.cutover</title>
<polygon fill="none" stroke="black" points="559.38,-180 391.88,-180 391.88,-144 559.38,-144 559.38,-180"/>
<text text-anchor="middle" x="475.62" y="-156.95" font-family="Times,serif" font-size="14.00">histdatacom.sidecar.cutover</text>
</g>
<!-- histdatacom.histdata_com&#45;&gt;histdatacom.sidecar.cutover -->
<g id="edge38" class="edge">
<title>histdatacom.histdata_com&#45;&gt;histdatacom.sidecar.cutover</title>
<path fill="none" stroke="black" d="M559.65,-108.48C545.38,-117.4 527.83,-128.37 512.47,-137.97"/>
<polygon fill="black" stroke="black" points="504.28,-143.09 510.37,-133.98 507.48,-141.09 512.76,-137.79 512.76,-137.79 512.76,-137.79 507.48,-141.09 515.14,-141.61 504.28,-143.09"/>
</g>
<!-- histdatacom.histdata_com&#45;&gt;histdatacom.utils -->
<g id="edge39" class="edge">
<title>histdatacom.histdata_com&#45;&gt;histdatacom.utils</title>
<path fill="none" stroke="black" d="M508.13,-100.77C391.4,-117.08 183.25,-154.26 144.62,-216 84.33,-312.39 103.95,-392.12 188.62,-468 204.46,-482.19 325.3,-501.22 402.97,-512.2"/>
<polygon fill="black" stroke="black" points="412.42,-513.52 401.89,-516.59 408.68,-512.99 402.52,-512.13 402.52,-512.13 402.52,-512.13 408.68,-512.99 403.14,-507.68 412.42,-513.52"/>
</g>
<!-- histdatacom.influx -->
<g id="node14" class="node">
<title>histdatacom.influx</title>
<polygon fill="none" stroke="black" points="1369.62,-324 1251.62,-324 1251.62,-288 1369.62,-288 1369.62,-324"/>
<text text-anchor="middle" x="1310.62" y="-300.95" font-family="Times,serif" font-size="14.00">histdatacom.influx</text>
</g>
<!-- histdatacom.influx&#45;&gt;histdatacom -->
<g id="edge40" class="edge">
<title>histdatacom.influx&#45;&gt;histdatacom</title>
<path fill="none" stroke="black" d="M1251.45,-310.1C1144.48,-316.19 911.96,-331.66 717.62,-360 577.05,-380.5 413.52,-417.2 331.77,-436.44"/>
<polygon fill="black" stroke="black" points="322.21,-438.7 330.91,-432.02 325.89,-437.83 331.94,-436.4 331.94,-436.4 331.94,-436.4 325.89,-437.83 332.98,-440.78 322.21,-438.7"/>
</g>
<!-- histdatacom.influx&#45;&gt;histdatacom.activity_stages -->
<g id="edge41" class="edge">
<title>histdatacom.influx&#45;&gt;histdatacom.activity_stages</title>
<path fill="none" stroke="black" d="M1251.25,-318.87C1197.42,-329.64 1117.16,-345.69 1054.61,-358.2"/>
<polygon fill="black" stroke="black" points="1045.14,-360.1 1054.06,-353.72 1048.85,-359.36 1054.95,-358.14 1054.95,-358.14 1054.95,-358.14 1048.85,-359.36 1055.83,-362.55 1045.14,-360.1"/>
</g>
<!-- histdatacom.influx&#45;&gt;histdatacom.config -->
<g id="edge42" class="edge">
<title>histdatacom.influx&#45;&gt;histdatacom.config</title>
<path fill="none" stroke="black" d="M1251.27,-311.64C1166.08,-318.86 1004.43,-334.65 868.62,-360 815.79,-369.86 676.56,-406.61 590.77,-429.69"/>
<polygon fill="black" stroke="black" points="581.24,-432.25 589.73,-425.31 584.9,-431.27 590.9,-429.65 590.9,-429.65 590.9,-429.65 584.9,-431.27 592.07,-434 581.24,-432.25"/>
</g>
<!-- histdatacom.influx&#45;&gt;histdatacom.exceptions -->
<g id="edge43" class="edge">
<title>histdatacom.influx&#45;&gt;histdatacom.exceptions</title>
<path fill="none" stroke="black" d="M1319.9,-324.37C1329.75,-342.54 1346.03,-371.73 1361.62,-396 1367.32,-404.86 1373.89,-414.27 1379.95,-422.68"/>
<polygon fill="black" stroke="black" points="1385.78,-430.66 1376.25,-425.24 1383.55,-427.61 1379.88,-422.58 1379.88,-422.58 1379.88,-422.58 1383.55,-427.61 1383.52,-419.93 1385.78,-430.66"/>
</g>
<!-- histdatacom.influx&#45;&gt;histdatacom.histdata_ascii -->
<g id="edge44" class="edge">
<title>histdatacom.influx&#45;&gt;histdatacom.histdata_ascii</title>
<path fill="none" stroke="black" d="M1296.77,-324.18C1282.19,-342.19 1258.5,-371.26 1237.62,-396 1229.96,-405.08 1221.47,-414.93 1213.88,-423.65"/>
<polygon fill="black" stroke="black" points="1207.46,-431 1210.65,-420.51 1209.95,-428.15 1214.04,-423.47 1214.04,-423.47 1214.04,-423.47 1209.95,-428.15 1217.43,-426.43 1207.46,-431"/>
</g>
<!-- histdatacom.influx&#45;&gt;histdatacom.observability -->
<g id="edge45" class="edge">
<title>histdatacom.influx&#45;&gt;histdatacom.observability</title>
<path fill="none" stroke="black" d="M1362.83,-324.48C1391.49,-334.08 1427.22,-346.05 1457.33,-356.14"/>
<polygon fill="black" stroke="black" points="1466.57,-359.23 1455.66,-360.32 1462.99,-358.03 1457.09,-356.06 1457.09,-356.06 1457.09,-356.06 1462.99,-358.03 1458.52,-351.79 1466.57,-359.23"/>
</g>
<!-- histdatacom.influx&#45;&gt;histdatacom.records -->
<g id="edge138" class="edge">
<title>histdatacom.influx&#45;&gt;histdatacom.records</title>
<path fill="none" stroke="black" stroke-dasharray="5,2" d="M1268.48,-324.44C1218.01,-344.63 1130.53,-377.49 1052.62,-396 943.5,-421.93 814.07,-436.34 734.65,-443.38"/>
<polygon fill="black" stroke="black" points="725,-444.22 734.57,-438.87 728.77,-443.9 734.96,-443.36 734.96,-443.36 734.96,-443.36 728.77,-443.9 735.35,-447.84 725,-444.22"/>
</g>
<!-- histdatacom.influx&#45;&gt;histdatacom.runtime_contracts -->
<g id="edge46" class="edge">
<title>histdatacom.influx&#45;&gt;histdatacom.runtime_contracts</title>
<path fill="none" stroke="black" d="M1334.53,-324.42C1379.75,-357.39 1473.93,-426.16 1480.62,-432 1531.1,-475.98 1534.22,-497.12 1585.62,-540 1598.28,-550.56 1613.07,-560.93 1626.41,-569.67"/>
<polygon fill="black" stroke="black" points="1634.79,-575.06 1623.95,-573.44 1631.61,-573.02 1626.38,-569.65 1626.38,-569.65 1626.38,-569.65 1631.61,-573.02 1628.82,-565.87 1634.79,-575.06"/>
</g>
<!-- histdatacom.influx&#45;&gt;histdatacom.utils -->
<g id="edge47" class="edge">
<title>histdatacom.influx&#45;&gt;histdatacom.utils</title>
<path fill="none" stroke="black" d="M1313.46,-324.31C1317.84,-357.81 1321.88,-431.39 1280.62,-468 1225.35,-517.05 717.96,-521.33 534.46,-521.25"/>
<polygon fill="black" stroke="black" points="524.58,-521.24 534.59,-516.75 528.37,-521.25 534.58,-521.25 534.58,-521.25 534.58,-521.25 528.37,-521.25 534.58,-525.75 524.58,-521.24"/>
</g>
<!-- histdatacom.manifest_store -->
<g id="node15" class="node">
<title>histdatacom.manifest_store</title>
<polygon fill="none" stroke="black" points="1858.62,-540 1692.62,-540 1692.62,-504 1858.62,-504 1858.62,-540"/>
<text text-anchor="middle" x="1775.62" y="-516.95" font-family="Times,serif" font-size="14.00">histdatacom.manifest_store</text>
</g>
<!-- histdatacom.manifest_store&#45;&gt;histdatacom.runtime_contracts -->
<g id="edge48" class="edge">
<title>histdatacom.manifest_store&#45;&gt;histdatacom.runtime_contracts</title>
<path fill="none" stroke="black" d="M1747.9,-540.48C1733.76,-549.4 1716.37,-560.37 1701.15,-569.97"/>
<polygon fill="black" stroke="black" points="1693.03,-575.09 1699.08,-565.95 1696.22,-573.07 1701.48,-569.76 1701.48,-569.76 1701.48,-569.76 1696.22,-573.07 1703.88,-573.56 1693.03,-575.09"/>
</g>
<!-- histdatacom.observability&#45;&gt;histdatacom.runtime_contracts -->
<g id="edge49" class="edge">
<title>histdatacom.observability&#45;&gt;histdatacom.runtime_contracts</title>
<path fill="none" stroke="black" d="M1530.13,-396.11C1536.44,-406.46 1544.58,-419.93 1551.62,-432 1579.43,-479.6 1579.48,-495.95 1612.62,-540 1620.02,-549.84 1629.14,-559.71 1637.66,-568.22"/>
<polygon fill="black" stroke="black" points="1644.7,-575.07 1634.39,-571.32 1641.99,-572.43 1637.53,-568.1 1637.53,-568.1 1637.53,-568.1 1641.99,-572.43 1640.67,-564.87 1644.7,-575.07"/>
</g>
<!-- histdatacom.options&#45;&gt;histdatacom.fx_enums -->
<g id="edge50" class="edge">
<title>histdatacom.options&#45;&gt;histdatacom.fx_enums</title>
<path fill="none" stroke="black" d="M148.33,-540.48C171.81,-549.87 200.95,-561.53 225.81,-571.47"/>
<polygon fill="black" stroke="black" points="235.04,-575.17 224.08,-575.63 231.53,-573.76 225.75,-571.45 225.75,-571.45 225.75,-571.45 231.53,-573.76 227.43,-567.27 235.04,-575.17"/>
</g>
<!-- histdatacom.records&#45;&gt;histdatacom.fx_enums -->
<g id="edge51" class="edge">
<title>histdatacom.records&#45;&gt;histdatacom.fx_enums</title>
<path fill="none" stroke="black" d="M641.3,-468.22C617.46,-488.51 574.88,-521.78 532.62,-540 477.82,-563.63 411.68,-577.01 360.77,-584.42"/>
<polygon fill="black" stroke="black" points="351.02,-585.78 360.3,-579.94 354.77,-585.26 360.93,-584.39 360.93,-584.39 360.93,-584.39 354.77,-585.26 361.55,-588.85 351.02,-585.78"/>
</g>
<!-- histdatacom.records&#45;&gt;histdatacom.manifest_store -->
<g id="edge52" class="edge">
<title>histdatacom.records&#45;&gt;histdatacom.manifest_store</title>
<path fill="none" stroke="black" d="M723.77,-454.96C910.31,-466.67 1459.67,-501.16 1681.31,-515.08"/>
<polygon fill="black" stroke="black" points="1691.04,-515.69 1680.78,-519.55 1687.27,-515.45 1681.06,-515.06 1681.06,-515.06 1681.06,-515.06 1687.27,-515.45 1681.34,-510.57 1691.04,-515.69"/>
</g>
<!-- histdatacom.records&#45;&gt;histdatacom.runtime_contracts -->
<g id="edge53" class="edge">
<title>histdatacom.records&#45;&gt;histdatacom.runtime_contracts</title>
<path fill="none" stroke="black" d="M687.67,-468.44C722.1,-489.63 784.15,-524.47 842.62,-540 975.34,-575.25 1371.55,-587.44 1561.21,-591.33"/>
<polygon fill="black" stroke="black" points="1571.08,-591.53 1560.99,-595.83 1567.3,-591.45 1561.08,-591.33 1561.08,-591.33 1561.08,-591.33 1567.3,-591.45 1561.17,-586.83 1571.08,-591.53"/>
</g>
<!-- histdatacom.records&#45;&gt;histdatacom.utils -->
<g id="edge54" class="edge">
<title>histdatacom.records&#45;&gt;histdatacom.utils</title>
<path fill="none" stroke="black" d="M612.67,-468.48C586.57,-478 554.09,-489.84 526.58,-499.87"/>
<polygon fill="black" stroke="black" points="517.45,-503.2 525.3,-495.55 521,-501.91 526.84,-499.78 526.84,-499.78 526.84,-499.78 521,-501.91 528.38,-504 517.45,-503.2"/>
</g>
<!-- histdatacom.repository_output&#45;&gt;histdatacom.utils -->
<g id="edge55" class="edge">
<title>histdatacom.repository_output&#45;&gt;histdatacom.utils</title>
<path fill="none" stroke="black" d="M218.96,-252.28C207.7,-261.42 195.69,-273.72 189.62,-288 157.56,-363.42 163.94,-419 229.62,-468 279.77,-505.41 351.27,-517.32 402.98,-520.69"/>
<polygon fill="black" stroke="black" points="412.81,-521.23 402.58,-525.17 409.04,-521.02 402.83,-520.68 402.83,-520.68 402.83,-520.68 409.04,-521.02 403.08,-516.19 412.81,-521.23"/>
</g>
<!-- histdatacom.scraper -->
<g id="node21" class="node">
<title>histdatacom.scraper</title>
<polygon fill="none" stroke="black" points="3240,-36 3115.25,-36 3115.25,0 3240,0 3240,-36"/>
<text text-anchor="middle" x="3177.62" y="-12.95" font-family="Times,serif" font-size="14.00">histdatacom.scraper</text>
</g>
<!-- histdatacom.scraper.repo -->
<g id="node22" class="node">
<title>histdatacom.scraper.repo</title>
<polygon fill="none" stroke="black" points="559.5,-324 407.75,-324 407.75,-288 559.5,-288 559.5,-324"/>
<text text-anchor="middle" x="483.62" y="-300.95" font-family="Times,serif" font-size="14.00">histdatacom.scraper.repo</text>
</g>
<!-- histdatacom.scraper.repo&#45;&gt;histdatacom -->
<g id="edge56" class="edge">
<title>histdatacom.scraper.repo&#45;&gt;histdatacom</title>
<path fill="none" stroke="black" d="M458.61,-324.41C422.19,-349.76 354.46,-396.91 313.56,-425.38"/>
<polygon fill="black" stroke="black" points="305.52,-430.97 311.16,-421.57 308.63,-428.81 313.73,-425.26 313.73,-425.26 313.73,-425.26 308.63,-428.81 316.3,-428.95 305.52,-430.97"/>
</g>
<!-- histdatacom.scraper.repo&#45;&gt;histdatacom.activity_stages -->
<g id="edge57" class="edge">
<title>histdatacom.scraper.repo&#45;&gt;histdatacom.activity_stages</title>
<path fill="none" stroke="black" d="M560,-318.21C643.25,-330.42 776.54,-349.99 866.27,-363.15"/>
<polygon fill="black" stroke="black" points="876.06,-364.59 865.51,-367.59 872.32,-364.04 866.16,-363.14 866.16,-363.14 866.16,-363.14 872.32,-364.04 866.82,-358.69 876.06,-364.59"/>
</g>
<!-- histdatacom.scraper.repo&#45;&gt;histdatacom.config -->
<g id="edge58" class="edge">
<title>histdatacom.scraper.repo&#45;&gt;histdatacom.config</title>
<path fill="none" stroke="black" d="M483.83,-324.41C484.44,-342.6 486.57,-371.82 493.62,-396 496.21,-404.85 500.19,-414.03 504.27,-422.22"/>
<polygon fill="black" stroke="black" points="508.81,-430.87 500.18,-424.11 507.05,-427.52 504.16,-422.02 504.16,-422.02 504.16,-422.02 507.05,-427.52 508.14,-419.92 508.81,-430.87"/>
</g>
<!-- histdatacom.scraper.repo&#45;&gt;histdatacom.records -->
<g id="edge59" class="edge">
<title>histdatacom.scraper.repo&#45;&gt;histdatacom.records</title>
<path fill="none" stroke="black" d="M488.97,-324.32C495.88,-344.1 509.71,-376.27 531.62,-396 547.48,-410.28 567.71,-421.01 587.42,-428.94"/>
<polygon fill="black" stroke="black" points="596.52,-432.4 585.57,-433.05 592.99,-431.06 587.17,-428.84 587.17,-428.84 587.17,-428.84 592.99,-431.06 588.78,-424.64 596.52,-432.4"/>
</g>
<!-- histdatacom.scraper.repo&#45;&gt;histdatacom.utils -->
<g id="edge60" class="edge">
<title>histdatacom.scraper.repo&#45;&gt;histdatacom.utils</title>
<path fill="none" stroke="black" d="M475.83,-324.31C463.55,-353.72 441.93,-415.36 450.62,-468 452.02,-476.44 454.58,-485.34 457.34,-493.38"/>
<polygon fill="black" stroke="black" points="460.72,-502.56 453.05,-494.73 459.42,-499.01 457.27,-493.18 457.27,-493.18 457.27,-493.18 459.42,-499.01 461.49,-491.62 460.72,-502.56"/>
</g>
<!-- histdatacom.scraper.scraper&#45;&gt;histdatacom -->
<g id="edge61" class="edge">
<title>histdatacom.scraper.scraper&#45;&gt;histdatacom</title>
<path fill="none" stroke="black" d="M762.76,-242.7C633.45,-254.85 398.52,-278.08 382.62,-288 332.79,-319.09 302.62,-384.17 288.75,-421.36"/>
<polygon fill="black" stroke="black" points="285.53,-430.36 284.67,-419.42 286.81,-426.8 288.91,-420.94 288.91,-420.94 288.91,-420.94 286.81,-426.8 293.14,-422.46 285.53,-430.36"/>
</g>
<!-- histdatacom.scraper.scraper&#45;&gt;histdatacom.activity_stages -->
<g id="edge62" class="edge">
<title>histdatacom.scraper.scraper&#45;&gt;histdatacom.activity_stages</title>
<path fill="none" stroke="black" d="M892.74,-252.43C909.42,-260.84 926.99,-272.54 938.62,-288 951.72,-305.4 957.1,-329.62 959.28,-348.41"/>
<polygon fill="black" stroke="black" points="960.16,-358.35 954.79,-348.79 959.83,-354.58 959.27,-348.39 959.27,-348.39 959.27,-348.39 959.83,-354.58 963.76,-347.99 960.16,-358.35"/>
</g>
<!-- histdatacom.scraper.scraper&#45;&gt;histdatacom.config -->
<g id="edge63" class="edge">
<title>histdatacom.scraper.scraper&#45;&gt;histdatacom.config</title>
<path fill="none" stroke="black" d="M762.97,-243.49C634.98,-256.67 404.63,-281.24 398.62,-288 357.49,-334.28 431.17,-393.57 480.5,-425.73"/>
<polygon fill="black" stroke="black" points="488.67,-430.94 477.82,-429.36 485.48,-428.91 480.24,-425.56 480.24,-425.56 480.24,-425.56 485.48,-428.91 482.66,-421.77 488.67,-430.94"/>
</g>
<!-- histdatacom.scraper.scraper&#45;&gt;histdatacom.observability -->
<g id="edge64" class="edge">
<title>histdatacom.scraper.scraper&#45;&gt;histdatacom.observability</title>
<path fill="none" stroke="black" d="M930.3,-238.64C1058.69,-245.02 1297.93,-260.25 1378.62,-288 1420.93,-302.55 1463.54,-331.96 1490.67,-352.99"/>
<polygon fill="black" stroke="black" points="1498.3,-359.02 1487.66,-356.35 1495.33,-356.67 1490.45,-352.82 1490.45,-352.82 1490.45,-352.82 1495.33,-356.67 1493.24,-349.29 1498.3,-359.02"/>
</g>
<!-- histdatacom.scraper.scraper&#45;&gt;histdatacom.records -->
<g id="edge65" class="edge">
<title>histdatacom.scraper.scraper&#45;&gt;histdatacom.records</title>
<path fill="none" stroke="black" d="M762.97,-246.64C714.56,-255.27 660.36,-268.88 645.62,-288 615.89,-326.59 633.36,-386.85 647.71,-421.66"/>
<polygon fill="black" stroke="black" points="651.52,-430.48 643.42,-423.09 650.02,-427.01 647.55,-421.3 647.55,-421.3 647.55,-421.3 650.02,-427.01 651.68,-419.52 651.52,-430.48"/>
</g>
<!-- histdatacom.scraper.scraper&#45;&gt;histdatacom.runtime_contracts -->
<g id="edge66" class="edge">
<title>histdatacom.scraper.scraper&#45;&gt;histdatacom.runtime_contracts</title>
<path fill="none" stroke="black" d="M905.4,-252.33C954.77,-270.38 1022.01,-304.03 1052.62,-360 1091.18,-430.5 1012.65,-483.33 1069.62,-540 1103.7,-573.89 1400.39,-586.49 1561.51,-590.86"/>
<polygon fill="black" stroke="black" points="1571.18,-591.12 1561.07,-595.35 1567.4,-591.02 1561.19,-590.85 1561.19,-590.85 1561.19,-590.85 1567.4,-591.02 1561.3,-586.36 1571.18,-591.12"/>
</g>
<!-- histdatacom.scraper.scraper&#45;&gt;histdatacom.scraper.repo -->
<g id="edge67" class="edge">
<title>histdatacom.scraper.scraper&#45;&gt;histdatacom.scraper.repo</title>
<path fill="none" stroke="black" d="M762.89,-251.15C705.23,-262.27 628.82,-277 570.5,-288.25"/>
<polygon fill="black" stroke="black" points="561.02,-290.07 569.99,-283.76 564.74,-289.36 570.84,-288.18 570.84,-288.18 570.84,-288.18 564.74,-289.36 571.7,-292.6 561.02,-290.07"/>
</g>
<!-- histdatacom.scraper.urls -->
<g id="node24" class="node">
<title>histdatacom.scraper.urls</title>
<polygon fill="none" stroke="black" points="929.62,-324 781.62,-324 781.62,-288 929.62,-288 929.62,-324"/>
<text text-anchor="middle" x="855.62" y="-300.95" font-family="Times,serif" font-size="14.00">histdatacom.scraper.urls</text>
</g>
<!-- histdatacom.scraper.scraper&#45;&gt;histdatacom.scraper.urls -->
<g id="edge68" class="edge">
<title>histdatacom.scraper.scraper&#45;&gt;histdatacom.scraper.urls</title>
<path fill="none" stroke="black" d="M848.85,-252.3C849.81,-259.76 850.96,-268.68 852.03,-277.03"/>
<polygon fill="black" stroke="black" points="853.27,-286.69 847.53,-277.34 852.79,-282.94 852,-276.77 852,-276.77 852,-276.77 852.79,-282.94 856.46,-276.19 853.27,-286.69"/>
</g>
<!-- histdatacom.scraper.urls&#45;&gt;histdatacom.activity_stages -->
<g id="edge69" class="edge">
<title>histdatacom.scraper.urls&#45;&gt;histdatacom.activity_stages</title>
<path fill="none" stroke="black" d="M881.85,-324.48C895.1,-333.32 911.37,-344.16 925.67,-353.7"/>
<polygon fill="black" stroke="black" points="933.72,-359.06 922.9,-357.26 930.57,-356.97 925.4,-353.52 925.4,-353.52 925.4,-353.52 930.57,-356.97 927.9,-349.77 933.72,-359.06"/>
</g>
<!-- histdatacom.sidecar -->
<g id="node25" class="node">
<title>histdatacom.sidecar</title>
<polygon fill="none" stroke="black" points="3381.62,-36 3257.62,-36 3257.62,0 3381.62,0 3381.62,-36"/>
<text text-anchor="middle" x="3319.62" y="-12.95" font-family="Times,serif" font-size="14.00">histdatacom.sidecar</text>
</g>
<!-- histdatacom.sidecar.activities -->
<g id="node26" class="node">
<title>histdatacom.sidecar.activities</title>
<polygon fill="none" stroke="black" points="1789.5,-108 1613.75,-108 1613.75,-72 1789.5,-72 1789.5,-108"/>
<text text-anchor="middle" x="1701.62" y="-84.95" font-family="Times,serif" font-size="14.00">histdatacom.sidecar.activities</text>
</g>
<!-- histdatacom.sidecar.activities&#45;&gt;histdatacom.activity_stages -->
<g id="edge70" class="edge">
<title>histdatacom.sidecar.activities&#45;&gt;histdatacom.activity_stages</title>
<path fill="none" stroke="black" d="M1613.33,-100.05C1554.49,-107.76 1476.06,-121.31 1409.62,-144 1246.97,-199.55 1070.59,-306.35 996.54,-353.56"/>
<polygon fill="black" stroke="black" points="988.22,-358.9 994.21,-349.71 991.4,-356.85 996.64,-353.5 996.64,-353.5 996.64,-353.5 991.4,-356.85 999.07,-357.29 988.22,-358.9"/>
</g>
<!-- histdatacom.sidecar.activities&#45;&gt;histdatacom.cancellation -->
<g id="edge71" class="edge">
<title>histdatacom.sidecar.activities&#45;&gt;histdatacom.cancellation</title>
<path fill="none" stroke="black" d="M1789.83,-96.68C1868.38,-103.42 1975.81,-117.27 2008.62,-144 2041.58,-170.84 2043.62,-190.5 2043.62,-233 2043.62,-233 2043.62,-233 2043.62,-307 2043.62,-350.77 2069.73,-395.66 2089.11,-422.94"/>
<polygon fill="black" stroke="black" points="2094.91,-430.84 2085.36,-425.44 2092.67,-427.79 2088.99,-422.78 2088.99,-422.78 2088.99,-422.78 2092.67,-427.79 2092.62,-420.12 2094.91,-430.84"/>
</g>
<!-- histdatacom.sidecar.activities&#45;&gt;histdatacom.exceptions -->
<g id="edge72" class="edge">
<title>histdatacom.sidecar.activities&#45;&gt;histdatacom.exceptions</title>
<path fill="none" stroke="black" d="M1685.13,-108.23C1662.78,-133.47 1625.62,-182.95 1625.62,-233 1625.62,-233 1625.62,-233 1625.62,-307 1625.62,-347.45 1634.64,-366.83 1606.62,-396 1589.24,-414.1 1532.39,-427.88 1482.66,-436.84"/>
<polygon fill="black" stroke="black" points="1473.05,-438.52 1482.12,-432.37 1476.78,-437.87 1482.9,-436.8 1482.9,-436.8 1482.9,-436.8 1476.78,-437.87 1483.68,-441.23 1473.05,-438.52"/>
</g>
<!-- histdatacom.sidecar.activities&#45;&gt;histdatacom.influx -->
<g id="edge73" class="edge">
<title>histdatacom.sidecar.activities&#45;&gt;histdatacom.influx</title>
<path fill="none" stroke="black" d="M1613.25,-97.79C1565.82,-104.47 1507.8,-117.72 1461.62,-144 1402.31,-177.75 1352.45,-242.46 1327.59,-278.72"/>
<polygon fill="black" stroke="black" points="1322.22,-286.7 1324.07,-275.89 1324.33,-283.57 1327.8,-278.41 1327.8,-278.41 1327.8,-278.41 1324.33,-283.57 1331.53,-280.92 1322.22,-286.7"/>
</g>
<!-- histdatacom.sidecar.activities&#45;&gt;histdatacom.manifest_store -->
<g id="edge74" class="edge">
<title>histdatacom.sidecar.activities&#45;&gt;histdatacom.manifest_store</title>
<path fill="none" stroke="black" d="M1701.62,-108.49C1701.62,-135.29 1701.62,-188.13 1701.62,-233 1701.62,-233 1701.62,-233 1701.62,-307 1701.62,-377.55 1737.99,-454.35 1759.74,-493.97"/>
<polygon fill="black" stroke="black" points="1764.58,-502.61 1755.77,-496.09 1762.73,-499.31 1759.69,-493.89 1759.69,-493.89 1759.69,-493.89 1762.73,-499.31 1763.61,-491.68 1764.58,-502.61"/>
</g>
<!-- histdatacom.sidecar.activities&#45;&gt;histdatacom.observability -->
<g id="edge75" class="edge">
<title>histdatacom.sidecar.activities&#45;&gt;histdatacom.observability</title>
<path fill="none" stroke="black" d="M1659.38,-108.5C1642.69,-117.14 1624.47,-128.98 1611.62,-144 1558.74,-205.86 1534.01,-301.79 1524.53,-348.92"/>
<polygon fill="black" stroke="black" points="1522.68,-358.61 1520.14,-347.94 1523.39,-354.89 1524.56,-348.79 1524.56,-348.79 1524.56,-348.79 1523.39,-354.89 1528.98,-349.63 1522.68,-358.61"/>
</g>
<!-- histdatacom.sidecar.activities&#45;&gt;histdatacom.runtime_contracts -->
<g id="edge76" class="edge">
<title>histdatacom.sidecar.activities&#45;&gt;histdatacom.runtime_contracts</title>
<path fill="none" stroke="black" d="M1712.31,-108.3C1757.02,-181.67 1924.14,-466.83 1867.62,-540 1854.64,-556.81 1811.36,-569.3 1768.08,-577.92"/>
<polygon fill="black" stroke="black" points="1758.29,-579.8 1767.27,-573.5 1762.01,-579.09 1768.11,-577.92 1768.11,-577.92 1768.11,-577.92 1762.01,-579.09 1768.96,-582.34 1758.29,-579.8"/>
</g>
<!-- histdatacom.sidecar.workflow_metadata -->
<g id="node40" class="node">
<title>histdatacom.sidecar.workflow_metadata</title>
<polygon fill="none" stroke="black" points="2383.5,-324 2147.75,-324 2147.75,-288 2383.5,-288 2383.5,-324"/>
<text text-anchor="middle" x="2265.62" y="-300.95" font-family="Times,serif" font-size="14.00">histdatacom.sidecar.workflow_metadata</text>
</g>
<!-- histdatacom.sidecar.activities&#45;&gt;histdatacom.sidecar.workflow_metadata -->
<g id="edge77" class="edge">
<title>histdatacom.sidecar.activities&#45;&gt;histdatacom.sidecar.workflow_metadata</title>
<path fill="none" stroke="black" d="M1789.84,-91.82C1864.01,-95.34 1971.41,-107.22 2057.62,-144 2133.58,-176.4 2206.01,-243.36 2242,-279.89"/>
<polygon fill="black" stroke="black" points="2248.67,-286.75 2238.48,-282.72 2246.04,-284.04 2241.7,-279.58 2241.7,-279.58 2241.7,-279.58 2246.04,-284.04 2244.93,-276.44 2248.67,-286.75"/>
</g>
<!-- histdatacom.sidecar.workflows -->
<g id="node41" class="node">
<title>histdatacom.sidecar.workflows</title>
<polygon fill="none" stroke="black" points="2408,-180 2223.25,-180 2223.25,-144 2408,-144 2408,-180"/>
<text text-anchor="middle" x="2315.62" y="-156.95" font-family="Times,serif" font-size="14.00">histdatacom.sidecar.workflows</text>
</g>
<!-- histdatacom.sidecar.activities&#45;&gt;histdatacom.sidecar.workflows -->
<g id="edge78" class="edge">
<title>histdatacom.sidecar.activities&#45;&gt;histdatacom.sidecar.workflows</title>
<path fill="none" stroke="black" d="M1789.9,-98.72C1891.37,-107.95 2062.82,-124.58 2209.62,-144 2210.44,-144.11 2211.26,-144.22 2212.08,-144.33"/>
<polygon fill="black" stroke="black" points="2221.68,-145.66 2211.16,-148.74 2217.93,-145.14 2211.77,-144.28 2211.77,-144.28 2211.77,-144.28 2217.93,-145.14 2212.39,-139.83 2221.68,-145.66"/>
</g>
<!-- histdatacom.sidecar.activities&#45;&gt;histdatacom.utils -->
<g id="edge79" class="edge">
<title>histdatacom.sidecar.activities&#45;&gt;histdatacom.utils</title>
<path fill="none" stroke="black" d="M1647.05,-108.39C1625.79,-116.91 1602.14,-128.68 1583.62,-144 1493.39,-218.69 1467.8,-248.28 1432.62,-360 1427.82,-375.26 1425.47,-381.69 1432.62,-396 1444.55,-419.85 1468.7,-408.15 1480.62,-432 1487.78,-446.31 1491.64,-456.39 1480.62,-468 1448.02,-502.36 753.95,-516.42 534.51,-520.02"/>
<polygon fill="black" stroke="black" points="524.72,-520.17 534.65,-515.51 528.5,-520.11 534.72,-520.01 534.72,-520.01 534.72,-520.01 528.5,-520.11 534.79,-524.51 524.72,-520.17"/>
</g>
<!-- histdatacom.sidecar.cli&#45;&gt;histdatacom.runtime_contracts -->
<g id="edge80" class="edge">
<title>histdatacom.sidecar.cli&#45;&gt;histdatacom.runtime_contracts</title>
<path fill="none" stroke="black" d="M1903.68,-180.27C1890.46,-189.83 1874.68,-202.5 1862.62,-216 1762.25,-328.42 1739.98,-364.22 1683.62,-504 1675.73,-523.59 1670.9,-547 1668.08,-564.89"/>
<polygon fill="black" stroke="black" points="1666.69,-574.55 1663.66,-564.01 1667.23,-570.81 1668.12,-564.65 1668.12,-564.65 1668.12,-564.65 1667.23,-570.81 1672.57,-565.29 1666.69,-574.55"/>
</g>
<!-- histdatacom.sidecar.cli&#45;&gt;histdatacom.sidecar.client -->
<g id="edge81" class="edge">
<title>histdatacom.sidecar.cli&#45;&gt;histdatacom.sidecar.client</title>
<path fill="none" stroke="black" d="M2000.09,-171.37C2107.17,-184.1 2310.83,-208.3 2428.53,-222.29"/>
<polygon fill="black" stroke="black" points="2438.44,-223.47 2427.97,-226.76 2434.68,-223.02 2428.51,-222.29 2428.51,-222.29 2428.51,-222.29 2434.68,-223.02 2429.04,-217.82 2438.44,-223.47"/>
</g>
<!-- histdatacom.sidecar.control -->
<g id="node29" class="node">
<title>histdatacom.sidecar.control</title>
<polygon fill="none" stroke="black" points="3035.25,-324 2870,-324 2870,-288 3035.25,-288 3035.25,-324"/>
<text text-anchor="middle" x="2952.62" y="-300.95" font-family="Times,serif" font-size="14.00">histdatacom.sidecar.control</text>
</g>
<!-- histdatacom.sidecar.cli&#45;&gt;histdatacom.sidecar.control -->
<g id="edge82" class="edge">
<title>histdatacom.sidecar.cli&#45;&gt;histdatacom.sidecar.control</title>
<path fill="none" stroke="black" d="M2000.12,-166.96C2149.04,-175.58 2491.42,-196.82 2606.62,-216 2705.5,-232.46 2817.42,-263.6 2886.52,-284.33"/>
<polygon fill="black" stroke="black" points="2896.06,-287.22 2885.19,-288.63 2892.44,-286.12 2886.49,-284.33 2886.49,-284.33 2886.49,-284.33 2892.44,-286.12 2887.79,-280.02 2896.06,-287.22"/>
</g>
<!-- histdatacom.sidecar.performance -->
<g id="node32" class="node">
<title>histdatacom.sidecar.performance</title>
<polygon fill="none" stroke="black" points="2267.62,-540 2071.62,-540 2071.62,-504 2267.62,-504 2267.62,-540"/>
<text text-anchor="middle" x="2169.62" y="-516.95" font-family="Times,serif" font-size="14.00">histdatacom.sidecar.performance</text>
</g>
<!-- histdatacom.sidecar.cli&#45;&gt;histdatacom.sidecar.performance -->
<g id="edge83" class="edge">
<title>histdatacom.sidecar.cli&#45;&gt;histdatacom.sidecar.performance</title>
<path fill="none" stroke="black" d="M1905.6,-180.32C1894.88,-189.56 1883.38,-201.92 1877.62,-216 1859.47,-260.43 1862.55,-278.43 1877.62,-324 1902.67,-399.7 1919.06,-422.63 1984.62,-468 2007.18,-483.61 2034.3,-494.66 2060.73,-502.47"/>
<polygon fill="black" stroke="black" points="2070.03,-505.08 2059.19,-506.71 2066.39,-504.06 2060.4,-502.38 2060.4,-502.38 2060.4,-502.38 2066.39,-504.06 2061.62,-498.04 2070.03,-505.08"/>
</g>
<!-- histdatacom.sidecar.queues -->
<g id="node33" class="node">
<title>histdatacom.sidecar.queues</title>
<polygon fill="none" stroke="black" points="2928.88,-468 2764.38,-468 2764.38,-432 2928.88,-432 2928.88,-468"/>
<text text-anchor="middle" x="2846.62" y="-444.95" font-family="Times,serif" font-size="14.00">histdatacom.sidecar.queues</text>
</g>
<!-- histdatacom.sidecar.cli&#45;&gt;histdatacom.sidecar.queues -->
<g id="edge84" class="edge">
<title>histdatacom.sidecar.cli&#45;&gt;histdatacom.sidecar.queues</title>
<path fill="none" stroke="black" d="M1937.11,-180.3C1945.81,-199.2 1961.45,-229.73 1980.62,-252 2052.8,-335.82 2078.82,-360.62 2183.62,-396 2286.46,-430.71 2595.78,-443.02 2752.88,-447.12"/>
<polygon fill="black" stroke="black" points="2762.7,-447.37 2752.59,-451.61 2758.92,-447.27 2752.71,-447.11 2752.71,-447.11 2752.71,-447.11 2758.92,-447.27 2752.82,-442.61 2762.7,-447.37"/>
</g>
<!-- histdatacom.sidecar.resources -->
<g id="node35" class="node">
<title>histdatacom.sidecar.resources</title>
<polygon fill="none" stroke="black" points="2535.62,-396 2357.62,-396 2357.62,-360 2535.62,-360 2535.62,-396"/>
<text text-anchor="middle" x="2446.62" y="-372.95" font-family="Times,serif" font-size="14.00">histdatacom.sidecar.resources</text>
</g>
<!-- histdatacom.sidecar.cli&#45;&gt;histdatacom.sidecar.resources -->
<g id="edge85" class="edge">
<title>histdatacom.sidecar.cli&#45;&gt;histdatacom.sidecar.resources</title>
<path fill="none" stroke="black" d="M1946.15,-180.47C1979.19,-214.25 2057.25,-288.3 2138.62,-324 2204.36,-352.84 2284.42,-366.02 2346.44,-372.03"/>
<polygon fill="black" stroke="black" points="2356.19,-372.93 2345.82,-376.5 2352.43,-372.58 2346.23,-372.02 2346.23,-372.02 2346.23,-372.02 2352.43,-372.58 2346.64,-367.53 2356.19,-372.93"/>
</g>
<!-- histdatacom.sidecar.runtime -->
<g id="node36" class="node">
<title>histdatacom.sidecar.runtime</title>
<polygon fill="none" stroke="black" points="3059.5,-540 2889.75,-540 2889.75,-504 3059.5,-504 3059.5,-540"/>
<text text-anchor="middle" x="2974.62" y="-516.95" font-family="Times,serif" font-size="14.00">histdatacom.sidecar.runtime</text>
</g>
<!-- histdatacom.sidecar.cli&#45;&gt;histdatacom.sidecar.runtime -->
<g id="edge86" class="edge">
<title>histdatacom.sidecar.cli&#45;&gt;histdatacom.sidecar.runtime</title>
<path fill="none" stroke="black" d="M1928.48,-180.43C1925.97,-235.04 1926.82,-403.06 2025.62,-468 2060.85,-491.15 2644.71,-511.12 2878.73,-518.23"/>
<polygon fill="black" stroke="black" points="2888.39,-518.52 2878.26,-522.72 2884.61,-518.41 2878.39,-518.22 2878.39,-518.22 2878.39,-518.22 2884.61,-518.41 2878.53,-513.72 2888.39,-518.52"/>
</g>
<!-- histdatacom.sidecar.supervisor -->
<g id="node37" class="node">
<title>histdatacom.sidecar.supervisor</title>
<polygon fill="none" stroke="black" points="2813.25,-324 2630,-324 2630,-288 2813.25,-288 2813.25,-324"/>
<text text-anchor="middle" x="2721.62" y="-300.95" font-family="Times,serif" font-size="14.00">histdatacom.sidecar.supervisor</text>
</g>
<!-- histdatacom.sidecar.cli&#45;&gt;histdatacom.sidecar.supervisor -->
<g id="edge87" class="edge">
<title>histdatacom.sidecar.cli&#45;&gt;histdatacom.sidecar.supervisor</title>
<path fill="none" stroke="black" d="M2000.26,-175.66C2140.63,-200.83 2455.2,-257.23 2618.63,-286.53"/>
<polygon fill="black" stroke="black" points="2628.46,-288.3 2617.82,-290.96 2624.73,-287.63 2618.61,-286.53 2618.61,-286.53 2618.61,-286.53 2624.73,-287.63 2619.41,-282.1 2628.46,-288.3"/>
</g>
<!-- histdatacom.sidecar.client&#45;&gt;histdatacom.cancellation -->
<g id="edge88" class="edge">
<title>histdatacom.sidecar.client&#45;&gt;histdatacom.cancellation</title>
<path fill="none" stroke="black" d="M2512.29,-252.33C2504.07,-272.42 2487.87,-305.17 2463.62,-324 2421.33,-356.85 2399.29,-342.65 2348.62,-360 2285.01,-381.78 2212.77,-409.04 2164.52,-427.61"/>
<polygon fill="black" stroke="black" points="2155.44,-431.12 2163.15,-423.32 2158.97,-429.75 2164.77,-427.52 2164.77,-427.52 2164.77,-427.52 2158.97,-429.75 2166.39,-431.72 2155.44,-431.12"/>
</g>
<!-- histdatacom.sidecar.client&#45;&gt;histdatacom.manifest_store -->
<g id="edge89" class="edge">
<title>histdatacom.sidecar.client&#45;&gt;histdatacom.manifest_store</title>
<path fill="none" stroke="black" d="M2500.64,-252.14C2476.02,-275.25 2432.71,-314.61 2413.62,-324 2345.1,-357.7 2319.35,-340.1 2245.62,-360 2146.3,-386.82 2122.98,-398.75 2025.62,-432 1959.69,-454.52 1884.4,-481.5 1833.83,-499.8"/>
<polygon fill="black" stroke="black" points="1824.57,-503.16 1832.44,-495.52 1828.12,-501.87 1833.97,-499.75 1833.97,-499.75 1833.97,-499.75 1828.12,-501.87 1835.5,-503.98 1824.57,-503.16"/>
</g>
<!-- histdatacom.sidecar.client&#45;&gt;histdatacom.runtime_contracts -->
<g id="edge90" class="edge">
<title>histdatacom.sidecar.client&#45;&gt;histdatacom.runtime_contracts</title>
<path fill="none" stroke="black" d="M2537.05,-252.36C2561.5,-277.38 2601.62,-326.17 2601.62,-377 2601.62,-377 2601.62,-377 2601.62,-451 2601.62,-534.55 2011.7,-574.91 1768.02,-588.02"/>
<polygon fill="black" stroke="black" points="1758.25,-588.54 1768,-583.52 1762.03,-588.34 1768.24,-588.01 1768.24,-588.01 1768.24,-588.01 1762.03,-588.34 1768.47,-592.5 1758.25,-588.54"/>
</g>
<!-- histdatacom.sidecar.client&#45;&gt;histdatacom.sidecar.control -->
<g id="edge91" class="edge">
<title>histdatacom.sidecar.client&#45;&gt;histdatacom.sidecar.control</title>
<path fill="none" stroke="black" d="M2597.34,-246.98C2665.67,-257.48 2767.26,-273.31 2855.62,-288 2856.62,-288.17 2857.62,-288.33 2858.63,-288.5"/>
<polygon fill="black" stroke="black" points="2868.36,-290.14 2857.76,-292.92 2864.64,-289.51 2858.5,-288.48 2858.5,-288.48 2858.5,-288.48 2864.64,-289.51 2859.25,-284.04 2868.36,-290.14"/>
</g>
<!-- histdatacom.sidecar.client&#45;&gt;histdatacom.sidecar.queues -->
<g id="edge92" class="edge">
<title>histdatacom.sidecar.client&#45;&gt;histdatacom.sidecar.queues</title>
<path fill="none" stroke="black" d="M2597.3,-251.02C2599.09,-251.35 2600.87,-251.68 2602.62,-252 2651.36,-260.91 2787.85,-252.72 2822.62,-288 2840.59,-306.22 2845.15,-379.25 2846.28,-420.41"/>
<polygon fill="black" stroke="black" points="2846.49,-430.37 2841.78,-420.47 2846.41,-426.59 2846.28,-420.37 2846.28,-420.37 2846.28,-420.37 2846.41,-426.59 2850.78,-420.27 2846.49,-430.37"/>
</g>
<!-- histdatacom.sidecar.client&#45;&gt;histdatacom.sidecar.resources -->
<g id="edge93" class="edge">
<title>histdatacom.sidecar.client&#45;&gt;histdatacom.sidecar.resources</title>
<path fill="none" stroke="black" d="M2518.38,-252.43C2517.43,-271.17 2513.91,-301.31 2501.62,-324 2495.93,-334.52 2487.42,-344.2 2478.79,-352.33"/>
<polygon fill="black" stroke="black" points="2471.48,-358.82 2475.97,-348.82 2474.3,-356.31 2478.96,-352.19 2478.96,-352.19 2478.96,-352.19 2474.3,-356.31 2481.94,-355.55 2471.48,-358.82"/>
</g>
<!-- histdatacom.sidecar.client&#45;&gt;histdatacom.sidecar.supervisor -->
<g id="edge94" class="edge">
<title>histdatacom.sidecar.client&#45;&gt;histdatacom.sidecar.supervisor</title>
<path fill="none" stroke="black" d="M2569.33,-252.48C2597.04,-262.04 2631.57,-273.95 2660.74,-284"/>
<polygon fill="black" stroke="black" points="2670.07,-287.22 2659.15,-288.22 2666.49,-285.99 2660.61,-283.96 2660.61,-283.96 2660.61,-283.96 2666.49,-285.99 2662.08,-279.71 2670.07,-287.22"/>
</g>
<!-- histdatacom.sidecar.client&#45;&gt;histdatacom.sidecar.workflow_metadata -->
<g id="edge95" class="edge">
<title>histdatacom.sidecar.client&#45;&gt;histdatacom.sidecar.workflow_metadata</title>
<path fill="none" stroke="black" d="M2455.44,-252.48C2420.13,-262.25 2375.97,-274.47 2339.13,-284.66"/>
<polygon fill="black" stroke="black" points="2329.62,-287.29 2338.06,-280.29 2333.27,-286.28 2339.26,-284.63 2339.26,-284.63 2339.26,-284.63 2333.27,-286.28 2340.46,-288.96 2329.62,-287.29"/>
</g>
<!-- histdatacom.sidecar.control&#45;&gt;histdatacom.cancellation -->
<g id="edge96" class="edge">
<title>histdatacom.sidecar.control&#45;&gt;histdatacom.cancellation</title>
<path fill="none" stroke="black" d="M2882.26,-324.45C2801.25,-344.05 2663.99,-375.75 2544.62,-396 2424.5,-416.37 2284.43,-432 2196.38,-440.84"/>
<polygon fill="black" stroke="black" points="2186.59,-441.82 2196.09,-436.35 2190.35,-441.44 2196.54,-440.83 2196.54,-440.83 2196.54,-440.83 2190.35,-441.44 2196.99,-445.3 2186.59,-441.82"/>
</g>
<!-- histdatacom.sidecar.control&#45;&gt;histdatacom.runtime_contracts -->
<g id="edge97" class="edge">
<title>histdatacom.sidecar.control&#45;&gt;histdatacom.runtime_contracts</title>
<path fill="none" stroke="black" d="M3035.7,-324.18C3054.13,-332.01 3071.48,-343.41 3082.62,-360 3109.5,-399.98 3156.41,-457.26 3068.62,-540 3021.45,-584.46 2084.29,-591.63 1767.91,-592.78"/>
<polygon fill="black" stroke="black" points="1758.14,-592.81 1768.13,-588.28 1761.92,-592.8 1768.14,-592.78 1768.14,-592.78 1768.14,-592.78 1761.92,-592.8 1768.16,-597.28 1758.14,-592.81"/>
</g>
<!-- histdatacom.sidecar.live_smoke -->
<g id="node31" class="node">
<title>histdatacom.sidecar.live_smoke</title>
<polygon fill="none" stroke="black" points="3079.62,-180 2889.62,-180 2889.62,-144 3079.62,-144 3079.62,-180"/>
<text text-anchor="middle" x="2984.62" y="-156.95" font-family="Times,serif" font-size="14.00">histdatacom.sidecar.live_smoke</text>
</g>
<!-- histdatacom.sidecar.live_smoke&#45;&gt;histdatacom.runtime_contracts -->
<g id="edge98" class="edge">
<title>histdatacom.sidecar.live_smoke&#45;&gt;histdatacom.runtime_contracts</title>
<path fill="none" stroke="black" d="M3027.11,-180.27C3044.26,-188.94 3063.14,-200.85 3076.62,-216 3172.57,-323.78 3218.07,-460.52 3097.62,-540 3042.32,-576.49 2087.79,-588.94 1768.04,-592.1"/>
<polygon fill="black" stroke="black" points="1758.16,-592.2 1768.11,-587.6 1761.94,-592.16 1768.16,-592.1 1768.16,-592.1 1768.16,-592.1 1761.94,-592.16 1768.2,-596.6 1758.16,-592.2"/>
</g>
<!-- histdatacom.sidecar.live_smoke&#45;&gt;histdatacom.sidecar.client -->
<g id="edge99" class="edge">
<title>histdatacom.sidecar.live_smoke&#45;&gt;histdatacom.sidecar.client</title>
<path fill="none" stroke="black" d="M2889.2,-177.33C2806.76,-189.72 2688.52,-207.48 2607.92,-219.59"/>
<polygon fill="black" stroke="black" points="2598.5,-221 2607.73,-215.07 2602.24,-220.44 2608.39,-219.52 2608.39,-219.52 2608.39,-219.52 2602.24,-220.44 2609.06,-223.97 2598.5,-221"/>
</g>
<!-- histdatacom.sidecar.live_smoke&#45;&gt;histdatacom.sidecar.control -->
<g id="edge100" class="edge">
<title>histdatacom.sidecar.live_smoke&#45;&gt;histdatacom.sidecar.control</title>
<path fill="none" stroke="black" d="M2980.7,-180.41C2975.27,-204.5 2965.41,-248.25 2958.94,-276.97"/>
<polygon fill="black" stroke="black" points="2956.75,-286.7 2954.56,-275.96 2957.58,-283.01 2958.95,-276.95 2958.95,-276.95 2958.95,-276.95 2957.58,-283.01 2963.34,-277.93 2956.75,-286.7"/>
</g>
<!-- histdatacom.sidecar.live_smoke&#45;&gt;histdatacom.sidecar.queues -->
<g id="edge101" class="edge">
<title>histdatacom.sidecar.live_smoke&#45;&gt;histdatacom.sidecar.queues</title>
<path fill="none" stroke="black" d="M3001.14,-180.25C3029.27,-211.76 3080.16,-279.46 3044.62,-324 2999.71,-380.3 2942.34,-314.37 2886.62,-360 2867.91,-375.32 2857.63,-401.24 2852.2,-421.16"/>
<polygon fill="black" stroke="black" points="2849.88,-430.61 2847.89,-419.83 2850.78,-426.94 2852.26,-420.9 2852.26,-420.9 2852.26,-420.9 2850.78,-426.94 2856.63,-421.97 2849.88,-430.61"/>
</g>
<!-- histdatacom.sidecar.live_smoke&#45;&gt;histdatacom.sidecar.runtime -->
<g id="edge102" class="edge">
<title>histdatacom.sidecar.live_smoke&#45;&gt;histdatacom.sidecar.runtime</title>
<path fill="none" stroke="black" d="M3015.85,-180.46C3029.13,-189.42 3043.6,-201.52 3052.62,-216 3095.5,-284.84 3110.91,-319.99 3082.62,-396 3067.35,-437.05 3031.86,-473.61 3005.71,-496.43"/>
<polygon fill="black" stroke="black" points="2998.17,-502.84 3002.88,-492.93 3001.05,-500.39 3005.79,-496.36 3005.79,-496.36 3005.79,-496.36 3001.05,-500.39 3008.71,-499.79 2998.17,-502.84"/>
</g>
<!-- histdatacom.sidecar.live_smoke&#45;&gt;histdatacom.sidecar.supervisor -->
<g id="edge103" class="edge">
<title>histdatacom.sidecar.live_smoke&#45;&gt;histdatacom.sidecar.supervisor</title>
<path fill="none" stroke="black" d="M2952.38,-180.41C2904.83,-206.09 2815.88,-254.11 2763.4,-282.45"/>
<polygon fill="black" stroke="black" points="2754.8,-287.09 2761.46,-278.38 2758.13,-285.29 2763.6,-282.34 2763.6,-282.34 2763.6,-282.34 2758.13,-285.29 2765.74,-286.3 2754.8,-287.09"/>
</g>
<!-- histdatacom.sidecar.performance&#45;&gt;histdatacom.concurrency -->
<g id="edge104" class="edge">
<title>histdatacom.sidecar.performance&#45;&gt;histdatacom.concurrency</title>
<path fill="none" stroke="black" d="M2071.2,-528.7C1840.56,-542.05 1268.1,-575.2 1048.4,-587.92"/>
<polygon fill="black" stroke="black" points="1038.49,-588.49 1048.21,-583.42 1042.26,-588.27 1048.47,-587.91 1048.47,-587.91 1048.47,-587.91 1042.26,-588.27 1048.73,-592.41 1038.49,-588.49"/>
</g>
<!-- histdatacom.sidecar.performance&#45;&gt;histdatacom.runtime_contracts -->
<g id="edge105" class="edge">
<title>histdatacom.sidecar.performance&#45;&gt;histdatacom.runtime_contracts</title>
<path fill="none" stroke="black" d="M2071.3,-538.02C2066.68,-538.69 2062.1,-539.36 2057.62,-540 1959.34,-554.09 1847.07,-569.12 1767.76,-579.57"/>
<polygon fill="black" stroke="black" points="1758,-580.85 1767.33,-575.08 1761.75,-580.36 1767.92,-579.55 1767.92,-579.55 1767.92,-579.55 1761.75,-580.36 1768.51,-584.01 1758,-580.85"/>
</g>
<!-- histdatacom.sidecar.performance&#45;&gt;histdatacom.sidecar.workflows -->
<g id="edge106" class="edge">
<title>histdatacom.sidecar.performance&#45;&gt;histdatacom.sidecar.workflows</title>
<path fill="none" stroke="black" d="M2090.16,-503.61C2067.37,-495.66 2043.79,-484.25 2025.62,-468 1958.82,-408.22 1915.62,-348.06 1953.62,-288 2007.75,-202.47 2125.52,-174.46 2212.1,-165.8"/>
<polygon fill="black" stroke="black" points="2221.82,-164.91 2212.27,-170.31 2218.05,-165.26 2211.86,-165.83 2211.86,-165.83 2211.86,-165.83 2218.05,-165.26 2211.45,-161.35 2221.82,-164.91"/>
</g>
<!-- histdatacom.sidecar.queues&#45;&gt;histdatacom.sidecar.performance -->
<g id="edge107" class="edge">
<title>histdatacom.sidecar.queues&#45;&gt;histdatacom.sidecar.performance</title>
<path fill="none" stroke="black" d="M2763.95,-459.55C2642.12,-472.15 2414.19,-495.71 2278.76,-509.72"/>
<polygon fill="black" stroke="black" points="2269.17,-510.71 2278.66,-505.2 2272.94,-510.32 2279.12,-509.68 2279.12,-509.68 2279.12,-509.68 2272.94,-510.32 2279.58,-514.15 2269.17,-510.71"/>
</g>
<!-- histdatacom.sidecar.queues&#45;&gt;histdatacom.sidecar.runtime -->
<g id="edge108" class="edge">
<title>histdatacom.sidecar.queues&#45;&gt;histdatacom.sidecar.runtime</title>
<path fill="none" stroke="black" d="M2878.59,-468.48C2895.21,-477.57 2915.72,-488.78 2933.5,-498.51"/>
<polygon fill="black" stroke="black" points="2941.99,-503.15 2931.06,-502.3 2938.68,-501.34 2933.22,-498.36 2933.22,-498.36 2933.22,-498.36 2938.68,-501.34 2935.38,-494.41 2941.99,-503.15"/>
</g>
<!-- histdatacom.sidecar.readiness -->
<g id="node34" class="node">
<title>histdatacom.sidecar.readiness</title>
<polygon fill="none" stroke="black" points="3073.25,-396 2896,-396 2896,-360 3073.25,-360 3073.25,-396"/>
<text text-anchor="middle" x="2984.62" y="-372.95" font-family="Times,serif" font-size="14.00">histdatacom.sidecar.readiness</text>
</g>
<!-- histdatacom.sidecar.readiness&#45;&gt;histdatacom.sidecar.queues -->
<g id="edge109" class="edge">
<title>histdatacom.sidecar.readiness&#45;&gt;histdatacom.sidecar.queues</title>
<path fill="none" stroke="black" d="M2950.16,-396.48C2932.07,-405.66 2909.73,-416.99 2890.43,-426.78"/>
<polygon fill="black" stroke="black" points="2881.74,-431.19 2888.62,-422.65 2885.11,-429.48 2890.66,-426.66 2890.66,-426.66 2890.66,-426.66 2885.11,-429.48 2892.69,-430.68 2881.74,-431.19"/>
</g>
<!-- histdatacom.sidecar.supervisor&#45;&gt;histdatacom.sidecar.performance -->
<g id="edge110" class="edge">
<title>histdatacom.sidecar.supervisor&#45;&gt;histdatacom.sidecar.performance</title>
<path fill="none" stroke="black" d="M2712.01,-324.26C2692,-358.33 2642.31,-433.9 2577.62,-468 2527.33,-494.51 2381.8,-508.55 2278.94,-515.37"/>
<polygon fill="black" stroke="black" points="2269.09,-516.01 2278.78,-510.87 2272.86,-515.76 2279.07,-515.36 2279.07,-515.36 2279.07,-515.36 2272.86,-515.76 2279.36,-519.85 2269.09,-516.01"/>
</g>
<!-- histdatacom.sidecar.supervisor&#45;&gt;histdatacom.sidecar.queues -->
<g id="edge111" class="edge">
<title>histdatacom.sidecar.supervisor&#45;&gt;histdatacom.sidecar.queues</title>
<path fill="none" stroke="black" d="M2730.13,-324.3C2739.94,-343.19 2757.34,-373.73 2777.62,-396 2787.34,-406.66 2799.4,-416.74 2810.71,-425.19"/>
<polygon fill="black" stroke="black" points="2818.58,-430.89 2807.84,-428.67 2815.51,-428.67 2810.48,-425.02 2810.48,-425.02 2810.48,-425.02 2815.51,-428.67 2813.12,-421.38 2818.58,-430.89"/>
</g>
<!-- histdatacom.sidecar.supervisor&#45;&gt;histdatacom.sidecar.readiness -->
<g id="edge112" class="edge">
<title>histdatacom.sidecar.supervisor&#45;&gt;histdatacom.sidecar.readiness</title>
<path fill="none" stroke="black" d="M2787.31,-324.48C2824.17,-334.29 2870.31,-346.57 2908.71,-356.79"/>
<polygon fill="black" stroke="black" points="2918.14,-359.3 2907.32,-361.08 2914.49,-358.33 2908.48,-356.73 2908.48,-356.73 2908.48,-356.73 2914.49,-358.33 2909.64,-352.38 2918.14,-359.3"/>
</g>
<!-- histdatacom.sidecar.supervisor&#45;&gt;histdatacom.sidecar.resources -->
<g id="edge113" class="edge">
<title>histdatacom.sidecar.supervisor&#45;&gt;histdatacom.sidecar.resources</title>
<path fill="none" stroke="black" d="M2652.94,-324.48C2614.32,-334.31 2565.95,-346.63 2525.75,-356.86"/>
<polygon fill="black" stroke="black" points="2516.09,-359.32 2524.67,-352.49 2519.76,-358.38 2525.78,-356.85 2525.78,-356.85 2525.78,-356.85 2519.76,-358.38 2526.89,-361.21 2516.09,-359.32"/>
</g>
<!-- histdatacom.sidecar.supervisor&#45;&gt;histdatacom.sidecar.runtime -->
<g id="edge114" class="edge">
<title>histdatacom.sidecar.supervisor&#45;&gt;histdatacom.sidecar.runtime</title>
<path fill="none" stroke="black" d="M2719.81,-324.27C2717.39,-357.02 2717.21,-428.45 2755.62,-468 2773.08,-485.97 2827.9,-499.23 2878.32,-507.99"/>
<polygon fill="black" stroke="black" points="2888.14,-509.64 2877.53,-512.42 2884.41,-509.02 2878.27,-507.98 2878.27,-507.98 2878.27,-507.98 2884.41,-509.02 2879.02,-503.55 2888.14,-509.64"/>
</g>
<!-- histdatacom.sidecar.throughput -->
<g id="node38" class="node">
<title>histdatacom.sidecar.throughput</title>
<polygon fill="none" stroke="black" points="2954.75,-108 2768.5,-108 2768.5,-72 2954.75,-72 2954.75,-108"/>
<text text-anchor="middle" x="2861.62" y="-84.95" font-family="Times,serif" font-size="14.00">histdatacom.sidecar.throughput</text>
</g>
<!-- histdatacom.sidecar.throughput&#45;&gt;histdatacom.runtime_contracts -->
<g id="edge115" class="edge">
<title>histdatacom.sidecar.throughput&#45;&gt;histdatacom.runtime_contracts</title>
<path fill="none" stroke="black" d="M2954.96,-97.51C3035.54,-104.74 3144.37,-118.85 3179.62,-144 3323.98,-247.01 3285.45,-453.51 3130.62,-540 3071.3,-573.14 2091.73,-587.86 1767.74,-591.84"/>
<polygon fill="black" stroke="black" points="1758.18,-591.96 1768.12,-587.34 1761.96,-591.91 1768.18,-591.84 1768.18,-591.84 1768.18,-591.84 1761.96,-591.91 1768.23,-596.34 1758.18,-591.96"/>
</g>
<!-- histdatacom.sidecar.throughput&#45;&gt;histdatacom.sidecar.client -->
<g id="edge116" class="edge">
<title>histdatacom.sidecar.throughput&#45;&gt;histdatacom.sidecar.client</title>
<path fill="none" stroke="black" d="M2768.08,-98.45C2719.23,-105.32 2659.78,-118.55 2611.62,-144 2582.37,-159.46 2555.84,-186.82 2538.67,-207.13"/>
<polygon fill="black" stroke="black" points="2532.46,-214.69 2535.34,-204.1 2534.86,-211.76 2538.81,-206.96 2538.81,-206.96 2538.81,-206.96 2534.86,-211.76 2542.29,-209.82 2532.46,-214.69"/>
</g>
<!-- histdatacom.sidecar.throughput&#45;&gt;histdatacom.sidecar.control -->
<g id="edge117" class="edge">
<title>histdatacom.sidecar.throughput&#45;&gt;histdatacom.sidecar.control</title>
<path fill="none" stroke="black" d="M2863.67,-108.18C2866.22,-126.45 2871.4,-155.96 2880.62,-180 2894.49,-216.12 2917.84,-254.17 2934.18,-278.66"/>
<polygon fill="black" stroke="black" points="2939.6,-286.66 2930.26,-280.9 2937.47,-283.53 2933.99,-278.38 2933.99,-278.38 2933.99,-278.38 2937.47,-283.53 2937.71,-275.85 2939.6,-286.66"/>
</g>
<!-- histdatacom.sidecar.throughput&#45;&gt;histdatacom.sidecar.live_smoke -->
<g id="edge118" class="edge">
<title>histdatacom.sidecar.throughput&#45;&gt;histdatacom.sidecar.live_smoke</title>
<path fill="none" stroke="black" d="M2892.35,-108.48C2908.17,-117.49 2927.65,-128.58 2944.63,-138.24"/>
<polygon fill="black" stroke="black" points="2953.24,-143.14 2942.32,-142.1 2949.95,-141.27 2944.55,-138.19 2944.55,-138.19 2944.55,-138.19 2949.95,-141.27 2946.77,-134.28 2953.24,-143.14"/>
</g>
<!-- histdatacom.sidecar.throughput&#45;&gt;histdatacom.sidecar.performance -->
<g id="edge119" class="edge">
<title>histdatacom.sidecar.throughput&#45;&gt;histdatacom.sidecar.performance</title>
<path fill="none" stroke="black" d="M2836.14,-108.29C2789.96,-140.34 2690.75,-212.63 2620.62,-288 2580.64,-330.97 2591.71,-360.96 2544.62,-396 2465.98,-454.51 2358.35,-486.64 2278.57,-503.62"/>
<polygon fill="black" stroke="black" points="2269.19,-505.57 2278.07,-499.13 2272.89,-504.8 2278.98,-503.53 2278.98,-503.53 2278.98,-503.53 2272.89,-504.8 2279.9,-507.94 2269.19,-505.57"/>
</g>
<!-- histdatacom.sidecar.throughput&#45;&gt;histdatacom.sidecar.queues -->
<g id="edge120" class="edge">
<title>histdatacom.sidecar.throughput&#45;&gt;histdatacom.sidecar.queues</title>
<path fill="none" stroke="black" d="M2955.06,-101.08C3009.91,-109.13 3071.71,-122.68 3088.62,-144 3127.05,-192.43 3304.82,-126.13 3082.62,-396 3064.32,-418.23 2997.88,-431.86 2940.15,-439.71"/>
<polygon fill="black" stroke="black" points="2930.31,-441 2939.64,-435.24 2934.06,-440.51 2940.23,-439.7 2940.23,-439.7 2940.23,-439.7 2934.06,-440.51 2940.81,-444.16 2930.31,-441"/>
</g>
<!-- histdatacom.sidecar.throughput&#45;&gt;histdatacom.sidecar.runtime -->
<g id="edge121" class="edge">
<title>histdatacom.sidecar.throughput&#45;&gt;histdatacom.sidecar.runtime</title>
<path fill="none" stroke="black" d="M2955.16,-101.14C3025.24,-110.08 3114.23,-124.68 3145.62,-144 3179.92,-165.1 3187.72,-177.85 3200.62,-216 3237.64,-325.43 3135.37,-398.24 3063.62,-468 3051.58,-479.71 3036.47,-489.94 3022.14,-498.2"/>
<polygon fill="black" stroke="black" points="3013.45,-503.01 3020.02,-494.23 3016.76,-501.17 3022.2,-498.16 3022.2,-498.16 3022.2,-498.16 3016.76,-501.17 3024.38,-502.1 3013.45,-503.01"/>
</g>
<!-- histdatacom.sidecar.throughput&#45;&gt;histdatacom.sidecar.supervisor -->
<g id="edge122" class="edge">
<title>histdatacom.sidecar.throughput&#45;&gt;histdatacom.sidecar.supervisor</title>
<path fill="none" stroke="black" d="M2850.4,-108.15C2826.03,-145.4 2768.12,-233.93 2738.99,-278.46"/>
<polygon fill="black" stroke="black" points="2733.57,-286.75 2735.27,-275.92 2735.64,-283.58 2739.04,-278.38 2739.04,-278.38 2739.04,-278.38 2735.64,-283.58 2742.81,-280.84 2733.57,-286.75"/>
</g>
<!-- histdatacom.sidecar.throughput&#45;&gt;histdatacom.sidecar.workflows -->
<g id="edge123" class="edge">
<title>histdatacom.sidecar.throughput&#45;&gt;histdatacom.sidecar.workflows</title>
<path fill="none" stroke="black" d="M2768.07,-102.99C2671.14,-115.42 2520.03,-134.79 2419.46,-147.69"/>
<polygon fill="black" stroke="black" points="2409.58,-148.95 2418.93,-143.22 2413.33,-148.47 2419.5,-147.68 2419.5,-147.68 2419.5,-147.68 2413.33,-148.47 2420.07,-152.15 2409.58,-148.95"/>
</g>
<!-- histdatacom.sidecar.worker -->
<g id="node39" class="node">
<title>histdatacom.sidecar.worker</title>
<polygon fill="none" stroke="black" points="2938.25,-36 2773,-36 2773,0 2938.25,0 2938.25,-36"/>
<text text-anchor="middle" x="2855.62" y="-12.95" font-family="Times,serif" font-size="14.00">histdatacom.sidecar.worker</text>
</g>
<!-- histdatacom.sidecar.worker&#45;&gt;histdatacom.sidecar.activities -->
<g id="edge124" class="edge">
<title>histdatacom.sidecar.worker&#45;&gt;histdatacom.sidecar.activities</title>
<path fill="none" stroke="black" d="M2772.63,-24.03C2565.15,-36.62 2024.54,-69.41 1800.8,-82.98"/>
<polygon fill="black" stroke="black" points="1790.96,-83.58 1800.67,-78.48 1794.73,-83.35 1800.94,-82.98 1800.94,-82.98 1800.94,-82.98 1794.73,-83.35 1801.21,-87.47 1790.96,-83.58"/>
</g>
<!-- histdatacom.sidecar.worker&#45;&gt;histdatacom.sidecar.client -->
<g id="edge125" class="edge">
<title>histdatacom.sidecar.worker&#45;&gt;histdatacom.sidecar.client</title>
<path fill="none" stroke="black" d="M2774.44,-36.43C2709.62,-53.99 2620.09,-86.87 2560.62,-144 2543.32,-160.62 2532.36,-185.79 2526,-205.13"/>
<polygon fill="black" stroke="black" points="2523.12,-214.56 2521.73,-203.69 2524.22,-210.95 2526.04,-205 2526.04,-205 2526.04,-205 2524.22,-210.95 2530.34,-206.31 2523.12,-214.56"/>
</g>
<!-- histdatacom.sidecar.worker&#45;&gt;histdatacom.sidecar.queues -->
<g id="edge126" class="edge">
<title>histdatacom.sidecar.worker&#45;&gt;histdatacom.sidecar.queues</title>
<path fill="none" stroke="black" d="M2930.28,-36.49C3043.45,-63.75 3247.48,-116.13 3267.62,-144 3344.93,-250.94 3228.26,-336.22 3110.62,-396 3057.81,-422.84 2992.58,-436.1 2940.18,-442.64"/>
<polygon fill="black" stroke="black" points="2930.41,-443.79 2939.82,-438.15 2934.17,-443.35 2940.34,-442.62 2940.34,-442.62 2940.34,-442.62 2934.17,-443.35 2940.87,-447.09 2930.41,-443.79"/>
</g>
<!-- histdatacom.sidecar.worker&#45;&gt;histdatacom.sidecar.readiness -->
<g id="edge127" class="edge">
<title>histdatacom.sidecar.worker&#45;&gt;histdatacom.sidecar.readiness</title>
<path fill="none" stroke="black" d="M2929.7,-36.44C2984.5,-53.7 3055.2,-86.17 3088.62,-144 3111.49,-183.56 3122.72,-234.44 3064.62,-324 3056.75,-336.14 3045.01,-346.14 3032.93,-354.06"/>
<polygon fill="black" stroke="black" points="3024.73,-359.08 3030.91,-350.02 3027.96,-357.11 3033.26,-353.86 3033.26,-353.86 3033.26,-353.86 3027.96,-357.11 3035.61,-357.7 3024.73,-359.08"/>
</g>
<!-- histdatacom.sidecar.worker&#45;&gt;histdatacom.sidecar.runtime -->
<g id="edge128" class="edge">
<title>histdatacom.sidecar.worker&#45;&gt;histdatacom.sidecar.runtime</title>
<path fill="none" stroke="black" d="M2938.37,-34.3C2941.5,-34.88 2944.59,-35.44 2947.62,-36 3139.19,-71.11 3367.62,33.76 3367.62,-161 3367.62,-161 3367.62,-161 3367.62,-235 3367.62,-387 3173.06,-466.69 3057.73,-500.58"/>
<polygon fill="black" stroke="black" points="3048.34,-503.28 3056.7,-496.19 3051.97,-502.24 3057.95,-500.52 3057.95,-500.52 3057.95,-500.52 3051.97,-502.24 3059.19,-504.84 3048.34,-503.28"/>
</g>
<!-- histdatacom.sidecar.worker&#45;&gt;histdatacom.sidecar.workflows -->
<g id="edge129" class="edge">
<title>histdatacom.sidecar.worker&#45;&gt;histdatacom.sidecar.workflows</title>
<path fill="none" stroke="black" d="M2772.82,-25.46C2702.48,-32.44 2599.41,-46.21 2512.62,-72 2456.41,-88.7 2395.43,-118.17 2356.44,-138.6"/>
<polygon fill="black" stroke="black" points="2348.09,-143.02 2354.83,-134.36 2351.43,-141.25 2356.93,-138.34 2356.93,-138.34 2356.93,-138.34 2351.43,-141.25 2359.04,-142.32 2348.09,-143.02"/>
</g>
<!-- histdatacom.sidecar.workflows&#45;&gt;histdatacom.manifest_store -->
<g id="edge130" class="edge">
<title>histdatacom.sidecar.workflows&#45;&gt;histdatacom.manifest_store</title>
<path fill="none" stroke="black" d="M2223.06,-169.44C2138.43,-176.78 2020.69,-191.12 1981.62,-216 1874.06,-284.5 1809.01,-431.57 1785.56,-493.07"/>
<polygon fill="black" stroke="black" points="1782.09,-502.37 1781.37,-491.43 1783.41,-498.83 1785.58,-493 1785.58,-493 1785.58,-493 1783.41,-498.83 1789.8,-494.58 1782.09,-502.37"/>
</g>
<!-- histdatacom.sidecar.workflows&#45;&gt;histdatacom.observability -->
<g id="edge131" class="edge">
<title>histdatacom.sidecar.workflows&#45;&gt;histdatacom.observability</title>
<path fill="none" stroke="black" d="M2335.57,-180.28C2370.03,-212.14 2433.29,-280.79 2392.62,-324 2379.31,-338.15 1829.16,-363.55 1609.17,-373.17"/>
<polygon fill="black" stroke="black" points="1599.22,-373.61 1609.01,-368.67 1602.99,-373.44 1609.21,-373.17 1609.21,-373.17 1609.21,-373.17 1602.99,-373.44 1609.4,-377.67 1599.22,-373.61"/>
</g>
<!-- histdatacom.sidecar.workflows&#45;&gt;histdatacom.runtime_contracts -->
<g id="edge132" class="edge">
<title>histdatacom.sidecar.workflows&#45;&gt;histdatacom.runtime_contracts</title>
<path fill="none" stroke="black" d="M2223.92,-180.37C2197.08,-188.32 2168.77,-199.73 2145.62,-216 1997.94,-319.83 2052.41,-442.25 1900.62,-540 1861.32,-565.31 1811.58,-578.63 1767.9,-585.6"/>
<polygon fill="black" stroke="black" points="1758.15,-587.06 1767.37,-581.13 1761.89,-586.5 1768.04,-585.58 1768.04,-585.58 1768.04,-585.58 1761.89,-586.5 1768.7,-590.03 1758.15,-587.06"/>
</g>
<!-- histdatacom.sidecar.workflows&#45;&gt;histdatacom.sidecar.client -->
<g id="edge133" class="edge">
<title>histdatacom.sidecar.workflows&#45;&gt;histdatacom.sidecar.client</title>
<path fill="none" stroke="black" d="M2366.33,-180.48C2394.04,-190.04 2428.57,-201.95 2457.74,-212"/>
<polygon fill="black" stroke="black" points="2467.07,-215.22 2456.15,-216.22 2463.49,-213.99 2457.61,-211.96 2457.61,-211.96 2457.61,-211.96 2463.49,-213.99 2459.08,-207.71 2467.07,-215.22"/>
</g>
<!-- histdatacom.sidecar.workflows&#45;&gt;histdatacom.sidecar.queues -->
<g id="edge134" class="edge">
<title>histdatacom.sidecar.workflows&#45;&gt;histdatacom.sidecar.queues</title>
<path fill="none" stroke="black" d="M2267.97,-180.49C2201.79,-207.52 2094.86,-262.73 2138.62,-324 2208.81,-422.25 2577.3,-443.39 2753.11,-447.86"/>
<polygon fill="black" stroke="black" points="2762.94,-448.09 2752.83,-452.35 2759.16,-448 2752.94,-447.85 2752.94,-447.85 2752.94,-447.85 2759.16,-448 2753.05,-443.35 2762.94,-448.09"/>
</g>
<!-- histdatacom.sidecar.workflows&#45;&gt;histdatacom.sidecar.workflow_metadata -->
<g id="edge135" class="edge">
<title>histdatacom.sidecar.workflows&#45;&gt;histdatacom.sidecar.workflow_metadata</title>
<path fill="none" stroke="black" d="M2309.49,-180.41C2300.98,-204.6 2285.47,-248.64 2275.36,-277.35"/>
<polygon fill="black" stroke="black" points="2272.05,-286.74 2271.13,-275.81 2273.31,-283.17 2275.38,-277.31 2275.38,-277.31 2275.38,-277.31 2273.31,-283.17 2279.62,-278.8 2272.05,-286.74"/>
</g>
</g>
</svg>
